<?xml version="1.0" encoding="UTF-8"?><svg id="Layer_2" xmlns="http://www.w3.org/2000/svg" width="134.37" height="111.37" viewBox="0 0 134.37 111.37"><defs><style>.cls-1{fill:none;stroke:#fff;stroke-linecap:round;stroke-linejoin:round;stroke-width:4px;}</style></defs><g id="logo-line-white"><g id="initials"><path class="cls-1" d="M2,97.8H49.53c3.88,0,6.45-2.56,6.45-6.45V52.24c0-3.96-2.56-6.52-6.45-6.52H2v-11.57H50.05c3.66,0,5.93-2.2,5.93-5.49v-9.81c0-3.22-2.27-5.27-5.93-5.27H2V2H69.68v.07l19.85,22.27c1.46,1.61,3.08,2.34,4.61,2.34s3.15-.81,4.61-2.34L118.53,2h13.84V109.37h-13.62V29.32c0-2.86-1.61-4.47-3.59-4.47-1.1,0-2.42,.66-3.59,2.05l-17.29,19.85h-.22l-17.36-19.56c-1.17-1.39-2.49-1.98-3.66-1.98-1.68,0-3.08,1.17-3.37,3.37V109.37H2v-11.57Z"/><path class="cls-1" d="M85.68,65.06c0-4.76,3.71-8.5,8.55-8.5,4.54,0,8.3,3.74,8.3,8.5s-3.74,8.42-8.28,8.42c-4.83,0-8.57-3.81-8.57-8.42Zm8.57,18.6c4.54,0,8.28,3.81,8.28,8.42s-3.74,8.5-8.28,8.5c-4.83,0-8.57-3.81-8.57-8.5s3.74-8.42,8.57-8.42Z"/></g></g></svg>