<?xml version="1.0" encoding="UTF-8"?><svg id="Layer_2" xmlns="http://www.w3.org/2000/svg" width="130.37" height="107.37" viewBox="0 0 130.37 107.37"><g id="logo_comma"><path d="M0,95.8H47.53c3.88,0,6.45-2.56,6.45-6.45V50.24c0-3.96-2.56-6.52-6.45-6.52H0v-11.57H48.05c3.66,0,5.93-2.2,5.93-5.49v-9.81c0-3.22-2.27-5.27-5.93-5.27H0V0H67.68V.07l19.85,22.27c1.46,1.61,3.08,2.34,4.61,2.34s3.15-.81,4.61-2.34L116.53,0h13.84V107.37h-13.62V27.32c0-2.86-1.61-4.47-3.59-4.47-1.1,0-2.42,.66-3.59,2.05l-17.29,19.85h-.22l-17.36-19.56c-1.17-1.39-2.49-1.98-3.66-1.98-1.68,0-3.08,1.17-3.37,3.37V107.37H0v-11.57Z"/><path d="M83.68,63.06c0-4.76,3.71-8.5,8.55-8.5,4.54,0,8.3,3.74,8.3,8.5s-3.74,8.42-8.28,8.42c-4.83,0-8.57-3.81-8.57-8.42Z"/><path d="M83.81,106.33c2.14-3.89,2.19-7.97,.64-11.59-.92-2.08-1.11-4.18-.49-6.44,1.29-4.66,6.04-7.45,10.46-6.22s7.06,6.06,5.77,10.72c-.31,1.13-.73,2.32-2.31,3.94-2.71,2.78-14.07,9.59-14.07,9.59Z"/></g></svg>