<?xml version="1.0" encoding="UTF-8"?><svg id="Layer_2" xmlns="http://www.w3.org/2000/svg" width="390.45" height="90" viewBox="0 0 390.45 90"><defs><style>.cls-1{fill:#00605e;stroke:#00605e;stroke-miterlimit:10;stroke-width:2px;}</style></defs><g id="a_propos"><g id="a_propos-2"><path id="A" class="cls-1" d="M20.13,21.79h13.35l19.26,66.12h-8.89l-2.35-7.58c-.18-.68-1.17-3.29-4.38-3.29H16.53c-3.29,0-4.24,2.62-4.47,3.29l-2.21,7.58H1.32L20.13,21.79ZM23.11,1l7.4,15.79h-6.9L14.95,1h8.16Zm-3.56,68.88h14.48c4.01,0,3.65-3.43,3.43-4.42L27.8,30.77c-.18-.68-.54-1.22-1.17-1.22-.68,0-.99,.54-1.13,1.22l-9.34,34.69c-.27,1.04-.63,4.42,3.38,4.42Z"/><path id="P" class="cls-1" d="M88.16,21.79h20.57c15.25,0,25.12,8.3,25.12,23.32,0,13.85-9.88,22.69-25.12,22.69h-8.16c-2.35,0-4.01,1.71-4.01,4.06v16.06h-8.39V21.79Zm12.13,38.88h7.17c11.01,0,18-6,18-15.74s-6.99-16.01-18-16.01h-7.17c-2.3,0-3.74,1.31-3.74,3.29v25.17c0,1.98,1.44,3.29,3.74,3.29Z"/><path id="R" class="cls-1" d="M140.66,21.79h34.23c8.3,0,14.03,5.5,14.03,13.44s-5.73,13.49-14.03,13.49h-9.11c-1.58,0-2.26,.72-2.26,1.67,0,.5,.23,1.04,.63,1.62l23.59,35.9h-9.7l-24.09-37.03c-.5-.72-1.26-2.17-2.8-2.17-1.8,0-2.12,1.44-2.12,2.53v36.67h-8.39V21.79Zm12.54,19.8h20.12c4.46,0,7.22-2.48,7.22-6.36s-2.75-6.31-7.22-6.31h-20.12c-2.57,0-4.15,1.04-4.15,3.56v5.37c0,2.71,1.62,3.74,4.15,3.74Z"/><path id="o" class="cls-1" d="M194.41,36.03c0-8.97,6.66-15.03,16.6-15.03s16.46,6.06,16.46,15.03v12.76c0,8.97-6.61,15.03-16.46,15.03s-16.6-6.06-16.6-15.03v-12.76Zm16.6,21.04c5.32,0,8.83-3.56,8.83-8.78v-11.65c0-5.27-3.51-8.78-8.83-8.78s-8.97,3.47-8.97,8.78v11.65c0,5.32,3.61,8.78,8.97,8.78Zm0,15.33c3.05,0,5.64,2.5,5.64,5.55,0,3.24-2.59,5.69-5.64,5.69s-5.73-2.45-5.73-5.69c0-3.05,2.59-5.55,5.73-5.55Z"/><path id="P-2" class="cls-1" d="M234.4,21.79h20.57c15.25,0,25.12,8.3,25.12,23.32,0,13.85-9.88,22.69-25.12,22.69h-8.16c-2.35,0-4.01,1.71-4.01,4.06v16.06h-8.39V21.79Zm12.13,38.88h7.17c11.01,0,18-6,18-15.74s-6.99-16.01-18-16.01h-7.17c-2.3,0-3.74,1.31-3.74,3.29v25.17c0,1.98,1.44,3.29,3.74,3.29Z"/><path id="O" class="cls-1" d="M287.24,65.68v-21.79c0-13.85,9.88-23.18,24.63-23.18s24.54,9.34,24.54,23.18v21.79c0,13.98-9.83,23.32-24.54,23.32s-24.63-9.34-24.63-23.32Zm24.63,15.88c9.65,0,16.19-6.59,16.19-16.42v-20.61c0-9.79-6.54-16.37-16.19-16.37s-16.19,6.58-16.19,16.37v20.61c0,9.83,6.5,16.42,16.19,16.42Z"/><g id="point-virgule"><path class="cls-1" d="M317.23,57.41c.05,1.7-3.77,14.91-4.17,16.85h-4.99c.79-3.78,3.95-10.33-.12-13.22-5.98-7.7,8.47-13.22,9.28-3.63Z"/><path class="cls-1" d="M317.18,40.81c0,2.91-2.36,5.32-5.22,5.32-3.05,0-5.41-2.41-5.41-5.32s2.36-5.36,5.41-5.36c2.86,0,5.22,2.35,5.22,5.36Z"/></g><path id="S" class="cls-1" d="M343.31,67.03v-2.98h8.39v2.8c0,8.93,5.82,14.57,15.02,14.57,8.71,0,14.25-4.74,14.3-12.31,.04-6.95-4.65-11.23-12.4-11.37l-5.32-.13c-12-.27-19.26-6.77-19.26-17.86s8.75-18.81,21.88-18.81c13.94,0,22.51,7.58,22.51,19.85v2.89h-8.39v-2.71c0-7.71-5.55-12.58-14.21-12.58-8.03,0-13.4,4.42-13.4,11.14,0,6.22,4.51,10.01,12.09,10.15l5.32,.13c12.18,.27,19.62,7.26,19.62,18.81,0,12.49-8.84,20.16-22.82,20.16s-23.32-8.3-23.32-21.74Z"/></g></g></svg>