<?xml version="1.0" encoding="UTF-8"?><svg id="Layer_2" xmlns="http://www.w3.org/2000/svg" width="263.37" height="72" viewBox="0 0 263.37 72"><defs><style>.cls-1{fill:#f9f3dc;stroke:#f9f3dc;stroke-miterlimit:10;stroke-width:2px;}</style></defs><g id="About_offwhite"><g id="about"><path id="AB" class="cls-1" d="M40.23,2.11h36.57c9.52,0,15.03,5.22,15.03,13.22,0,4.76-1.99,10.36-8.23,12.3,6.94,3.51,10.73,9.99,10.73,18.73,0,14.93-10.22,23.53-26.12,23.53h-21.68v-7.91h-.05c0-2.13-1.16-3.24-3.28-3.24H21.23c-3.38,0-5.09,2.68-5.46,3.38l-4.67,7.77H1.72L40.23,2.11Zm-14.01,49.29h16.97c2.13,0,3.28-1.11,3.28-3.24h.05V11.17l-.05,.23c0-.69-.32-1.16-.97-1.16-.74,0-1.02,.46-1.39,1.2L24,46.87c-.6,1.06-1.9,4.53,2.22,4.53ZM58.96,22.41h16.88c4.67,0,7.4-2.64,7.4-6.47s-2.73-6.52-7.4-6.52h-16.88c-2.36,0-3.84,1.34-3.84,3.38v6.2c0,2.03,1.48,3.42,3.84,3.42Zm0,40.18h8c11.42,0,18.73-6.2,18.73-16.51s-7.31-16.37-18.73-16.37h-7.72c-2.45,0-4.11,1.66-4.11,4.16v25.34c0,1.94,1.53,3.38,3.84,3.38Z"/><path id="O" class="cls-1" d="M101.61,47.1V24.76c0-14.19,10.13-23.76,25.24-23.76s25.15,9.57,25.15,23.76v22.33c0,14.33-10.08,23.9-25.15,23.9s-25.24-9.57-25.24-23.9Zm25.24,16.27c9.89,0,16.6-6.75,16.6-16.83V25.41c0-10.03-6.7-16.78-16.6-16.78s-16.6,6.75-16.6,16.78v21.13c0,10.08,6.66,16.83,16.6,16.83Z"/><path id="U" class="cls-1" d="M161.64,47.1V2.11h8.6V47.14c0,9.66,6.1,16.04,15.17,16.04s15.17-6.38,15.17-16.04V2.11h8.6V47.1c0,14.24-9.52,23.67-23.76,23.67s-23.76-9.43-23.76-23.67Z"/><g><path class="cls-1" d="M190.83,25.43c.05,1.7-3.77,14.91-4.17,16.85h-4.99c.79-3.78,3.95-10.33-.12-13.22-5.98-7.7,8.47-13.22,9.28-3.63Z"/><path class="cls-1" d="M190.78,6.83c0,2.91-2.36,5.32-5.22,5.32-3.05,0-5.41-2.41-5.41-5.32s2.36-5.36,5.41-5.36c2.86,0,5.22,2.35,5.22,5.36Z"/></g><path id="T" class="cls-1" d="M230.23,9.41h-14.56V2.11h46.7v7.31h-14.93c-2.36,0-4.16,1.71-4.16,4.16v56.31h-8.55V13.85c0-2.59-1.85-4.44-4.48-4.44Z"/></g></g></svg>