<?xml version="1.0" encoding="UTF-8"?><svg id="Layer_2" xmlns="http://www.w3.org/2000/svg" width="1000" height="1000" viewBox="0 0 1000 1000"><defs><style>.cls-1{fill:#d8bb81;}</style></defs><g id="Layer_1-2"><path class="cls-1" d="M8.17,11.98c-.29,5.5-.57,10.99-.84,16.49l-.15,3.12c-2.39-.13-4.78-.2-7.18-.2v3c8.52,0,17.05,.81,25.42,2.44h0c7.06,1.37,14.02,3.32,20.76,5.83h.02c12.92,4.81,25.04,11.66,35.85,20.22-1.35,1.21-2.69,2.43-4.01,3.67h0l-1.07,1.01-1.1,1.05h.01c-16.31,15.68-30.54,33.5-42.09,52.95-12.28,20.66-21.7,43.17-27.52,66.5-2.86,11.44-4.99,23.04-6.25,34.77v28.67c10.19,0,20.38,.62,30.49,1.85-3.24,25.49-6.14,51.02-8.71,76.59-2.55,25.36-4.79,50.75-6.81,76.15-2,25.19-3.68,50.4-5.2,75.61-.9,14.91-1.7,29.83-2.44,44.74l-.08,1.64-.07,1.46c-2.39-.12-4.78-.2-7.18-.2v3c24.92-.01,49.62,7.1,70.68,20.41,4.36,2.76,8.58,5.77,12.57,9.03-1.76,1.57-3.5,3.15-5.22,4.76h0l-1.07,1.01-1.1,1.05h.01c-16.31,15.68-30.54,33.5-42.09,52.95-12.04,20.26-21.52,42.42-27.23,65.31-2.95,11.85-5.24,23.82-6.54,35.96v29.68c10.19,0,20.38,.62,30.49,1.85-3.19,25.09-6.05,50.23-8.59,75.4-2.55,25.26-4.8,50.55-6.81,75.85-2.01,25.33-3.72,50.69-5.26,76.06-.37,6.11-.72,12.22-1.06,18.33h3.01c1.41-25.23,3.02-50.45,4.89-75.65,1.89-25.4,4.01-50.79,6.43-76.14,2.38-25.03,5.06-50.04,8.09-75,.75-6.16,1.5-12.32,2.29-18.47,21.63,2.93,42.8,8.69,62.92,17.14-9.81,22.82-18.57,46.07-26.48,69.61-8,23.81-14.92,47.96-21.18,72.28-6.32,24.56-11.73,49.37-16.44,74.28-.75,3.98-1.5,7.96-2.23,11.95h3.05c4.54-24.92,9.78-49.7,15.74-74.32,5.95-24.6,12.84-48.98,20.57-73.08,7.77-24.27,16.62-48.18,26.41-71.71,1.09-2.62,2.2-5.22,3.32-7.83,22.49,9.78,43.5,22.94,62.16,38.86,2.92,2.49,5.78,5.06,8.58,7.69-17.55,17.91-33.76,37.26-48.08,57.85-14.24,20.48-26.78,41.97-37.96,64.26-9.48,18.9-17.7,38.47-25.07,58.28h3.2c8.83-23.55,18.91-46.64,30.66-68.9,11.71-22.18,25.08-43.4,40.04-63.53,12.02-16.19,25.28-31.5,39.39-45.89,17.7,16.98,33.12,36.59,44.97,58.09,12.05,21.86,21.26,45.43,26.23,69.93,3.3,16.28,5.15,32.78,5.27,49.39-6.64,.04-13.28,.35-19.89,.9h42.84c-6.61-.56-13.25-.86-19.89-.9,.18-24.97,4.23-49.59,11.6-73.43,7.21-23.34,18.42-45.43,32.15-65.58,9.45-13.87,20.52-26.71,32.62-38.32,17.53,18.01,33.74,37.41,48.07,58.06,14.51,20.9,27.33,42.83,38.63,65.62,8.79,17.73,16.51,36.01,23.47,54.54h3.2c-8.87-23.77-19.17-46.93-30.89-69.43-11.77-22.58-25.53-44.13-40.71-64.56-12.11-16.3-25.43-31.76-39.59-46.31,17.99-16.85,38.43-31.05,60.58-41.89,3.38-1.66,6.8-3.25,10.26-4.75,9.92,23.08,18.76,46.59,26.74,70.41,8.07,24.08,15.1,48.53,21.31,73.15,6.12,24.3,11.49,48.79,16.14,73.41,.63,3.32,1.24,6.64,1.85,9.97h3.05c-4.55-25.05-9.82-49.96-15.8-74.7-5.99-24.81-12.94-49.4-20.73-73.71-7.62-23.79-16.23-47.28-25.84-70.34-1.3-3.13-2.62-6.25-3.96-9.37,20.1-8.47,41.3-14.23,62.92-17.14,3.19,25.1,6.06,50.24,8.6,75.41,2.55,25.34,4.81,50.71,6.83,76.11,2.02,25.43,3.73,50.89,5.27,76.35,.35,5.8,.72,11.59,1.01,17.39h3.01c-1.42-25.33-3.02-50.65-4.91-75.95-1.9-25.43-4.03-50.84-6.44-76.22-2.39-25.12-5.08-50.22-8.12-75.28-.73-6.07-1.48-12.13-2.25-18.19,20.18-2.47,40.68-2.47,60.86,0-3.17,25.05-6.03,50.14-8.58,75.26-2.55,25.2-4.79,50.42-6.8,75.66-2.01,25.28-3.74,50.59-5.25,75.9-.38,6.27-.74,12.54-1.09,18.81h3c1.47-25.09,3.01-50.17,4.86-75.24,1.87-25.23,3.96-50.45,6.38-75.64,2.41-25.16,5.07-50.3,8.11-75.39,.77-6.33,1.55-12.66,2.35-18.99,21.6,2.88,42.84,8.67,62.92,17.14-9.9,23.04-18.73,46.51-26.71,70.28-8.02,23.91-14.93,48.17-21.2,72.6-6.28,24.47-11.64,49.19-16.33,74.01-.71,3.74-1.41,7.48-2.09,11.23h3.05c4.57-25.05,9.84-49.95,15.83-74.7,5.95-24.6,12.85-48.99,20.6-73.08,7.76-24.14,16.55-47.93,26.29-71.33,1.09-2.62,2.2-5.22,3.32-7.83,22.39,9.74,43.36,22.8,61.93,38.67,3,2.56,5.94,5.19,8.81,7.88-17.55,17.92-33.76,37.26-48.08,57.85-14.4,20.71-27.06,42.44-38.33,64.99-9.33,18.67-17.42,37.99-24.7,57.54h3.2c8.93-23.79,19.12-47.12,31.02-69.58,11.89-22.45,25.44-44.08,40.79-64.34,11.82-15.59,24.58-30.43,38.27-44.4,17.42,16.72,32.25,35.87,44.25,56.81,12.37,21.59,21.09,45.12,26.55,69.37,3.77,16.77,5.53,34.06,5.66,51.24-6.64,.04-13.28,.34-19.89,.9h42.84c-6.62-.56-13.25-.86-19.89-.9,.1-12.49,1.14-24.94,3.04-37.29,1.89-12.26,4.91-24.28,8.55-36.12,7.34-23.88,18.92-46.63,33.18-67.1,9.26-13.29,19.92-25.6,31.59-36.82,17.51,18,33.71,37.38,48.04,58.02,14.52,20.92,27.35,42.86,38.66,65.67,8.8,17.73,16.53,36.01,23.47,54.54h3.2c-8.75-23.47-18.94-46.29-30.43-68.54-11.46-22.2-24.93-43.45-39.76-63.55-12.53-16.98-26.28-33.08-40.99-48.21,18.09-16.94,38.63-31.12,60.88-42.04,3.28-1.61,6.6-3.14,9.96-4.6,10.03,23.33,18.97,47.1,27,71.18,8.07,24.2,15.16,48.75,21.33,73.5,6.1,24.44,11.45,49.05,16.14,73.8,.53,2.82,1.05,5.63,1.57,8.45h3.05c-4.6-25.33-9.91-50.53-16-75.55-5.94-24.39-12.75-48.57-20.41-72.48-7.7-24.05-16.39-47.79-26.12-71.09-1.25-3.01-2.51-6.01-3.8-9,20.1-8.46,41.3-14.23,62.91-17.14,3.21,25.15,6.08,50.35,8.61,75.57,2.5,24.96,4.74,49.94,6.73,74.94,2.01,25.3,3.73,50.61,5.26,75.94,.38,6.27,.74,12.54,1.09,18.81h3c-1.41-25.19-3.01-50.37-4.88-75.53-1.87-25.26-4-50.49-6.38-75.71-2.43-25.41-5.13-50.79-8.2-76.13-.74-6.09-1.49-12.18-2.26-18.27,10.07-1.23,20.22-1.85,30.37-1.85v-30.7c-2.8-25.09-9.41-49.72-19.56-72.84-9.09-20.7-20.96-40.15-35.26-57.67-6.53-8.01-13.56-15.61-21.02-22.76h.01l-1.11-1.07-1.07-1.01h0c-1.69-1.57-3.4-3.12-5.12-4.66,19.18-15.52,42.51-25.48,67.01-28.46,5.34-.65,10.73-.99,16.11-.99v-3c-2.35,0-4.71,.06-7.06,.2l-.16-3.13v-.09c-1.28-25.65-2.74-51.3-4.49-76.92-1.7-25.35-3.63-50.69-5.87-76.01-2.23-25.2-4.7-50.37-7.5-75.51-1.66-14.86-3.43-29.7-5.31-44.54,10.07-1.23,20.22-1.85,30.37-1.85v-29.69c-2.79-25.09-9.41-49.72-19.56-72.84-9.09-20.7-20.96-40.15-35.26-57.67-6.53-8.01-13.56-15.61-21.02-22.76h.01l-1.11-1.07-1.07-1.01h0c-1.29-1.21-2.6-2.4-3.93-3.58,10.89-8.51,22.91-15.4,35.88-20.22h.02c12.07-4.49,24.79-7.17,37.64-7.99h0c2.94-.18,5.66-.28,8.38-.28v-3c-2.35,0-4.71,.07-7.06,.2l-.16-3.24c-.47-9.45-.97-18.9-1.49-28.35h-3.01c.53,9.5,1.03,19,1.5,28.5l.16,3.28c-4.79,.35-9.57,.97-14.3,1.82-1.82-11.22-3.75-22.42-5.78-33.6h-3.05c2.08,11.37,4.03,22.76,5.89,34.17-6.21,1.28-12.34,2.99-18.31,5.13-4.12-13.22-8.6-26.34-13.46-39.3h-3.2c5.02,13.3,9.6,26.78,13.84,40.35-12.89,4.95-24.99,11.9-35.78,20.5-18.73-16.4-39.88-30.12-62.61-40.3-.95-.42-1.9-.84-2.85-1.25h0l-1.38-.61-1.37-.59h0c-20.38-8.57-41.8-14.41-63.73-17.35h0l-1.49-.2-1.49-.19h0c-1.09-.12-2.18-.23-3.26-.37h-55.09c-1.09,.12-2.18,.25-3.27,.38h0l-1.49,.18-1.49,.19h0c-21.89,2.96-43.37,8.8-63.73,17.38h0l-1.33,.56-.04,.02-1.38,.59h0c-22.04,9.61-42.52,22.39-61,37.75-1.5,1.25-2.99,2.52-4.47,3.82-10.78-8.6-22.89-15.55-35.77-20.5,4.23-13.58,8.81-27.04,13.81-40.35h-3.2c-4.86,12.96-9.32,26.09-13.43,39.31-5.97-2.14-12.11-3.86-18.32-5.13,1.85-11.41,3.81-22.8,5.89-34.17h-3.05c-2.03,11.18-3.97,22.38-5.79,33.6-4.73-.86-9.5-1.47-14.29-1.82l.12-2.48c.48-9.77,.93-19.54,1.54-29.29h-3c-.55,9.71-1.05,19.43-1.53,29.15l-.12,2.44c-4.74-.24-9.49-.24-14.23,0l-.16-3.24c-.47-9.45-.96-18.9-1.49-28.35h-3.01c.53,9.5,1.03,19,1.5,28.5l.16,3.28c-4.79,.36-9.57,.96-14.3,1.82-1.82-11.22-3.75-22.42-5.78-33.6h-3.05c2.08,11.37,4.04,22.76,5.89,34.17-6.21,1.27-12.34,2.99-18.31,5.13-4.12-13.22-8.59-26.34-13.46-39.3h-3.2c5.02,13.31,9.6,26.77,13.84,40.35-12.88,4.95-25,11.9-35.78,20.5-18.55-16.26-39.34-29.45-61.68-39.87-1.25-.58-2.52-1.13-3.78-1.68h0l-1.38-.61-1.37-.59h0c-20.38-8.57-41.8-14.41-63.73-17.35h0l-1.49-.2-1.49-.19h0c-1.09-.12-2.18-.25-3.26-.37h-55.09c-1.09,.12-2.18,.25-3.27,.38h0l-1.49,.18-1.49,.19h0c-21.93,2.96-43.35,8.8-63.73,17.38h0l-1.37,.58-1.38,.59h0c-22.27,9.71-42.94,22.65-61.57,38.22-1.31,1.1-2.61,2.21-3.89,3.34-10.79-8.59-22.88-15.56-35.77-20.5,4.23-13.58,8.81-27.04,13.81-40.35h-3.2c-4.85,12.97-9.31,26.09-13.43,39.31-5.97-2.14-12.11-3.85-18.32-5.13,1.85-11.41,3.8-22.8,5.89-34.17h-3.05c-2.04,11.18-3.97,22.38-5.79,33.6-4.73-.86-9.5-1.47-14.29-1.82l.16-3.16c.47-9.54,.97-19.08,1.51-28.62h-3c-.22,3.99-.44,7.99-.66,11.98-.29,5.5,.16-2.95,0,0ZM89.11,60.69c18.58-15.82,39.49-28.88,61.86-38.62,9.78,22.73,18.51,45.89,26.38,69.34,8.09,24.09,15.1,48.52,21.39,73.14,6.27,24.55,11.66,49.34,16.36,74.23,2.72,14.42,5.25,28.87,7.59,43.35-6.21,1.28-12.34,2.99-18.31,5.13-7.49-24.03-16.2-47.63-26.19-70.73-9.99-23.11-21.7-45.52-34.94-66.94-13.23-21.41-28.14-41.88-44.71-60.83-5.98-6.84-12.09-13.56-18.43-20.07,2.92-2.75,5.93-5.41,8.98-8.01,.4-.34-1.26,1.07,0,0ZM156.88,19.58c19.16-7.75,39.28-13.09,59.77-15.84,3.17,24.88,5.99,49.79,8.53,74.74,2.56,25.26,4.81,50.54,6.82,75.85,2.01,25.3,3.74,50.62,5.26,75.95,.93,15.54,1.78,31.08,2.55,46.62l.14,2.83c-4.79,.36-9.57,.96-14.3,1.82-4.05-25.01-8.59-49.95-13.94-74.72-5.25-24.3-11.11-48.47-17.93-72.37-7.02-24.6-14.9-48.92-23.77-72.92-5.06-13.7-10.51-27.26-16.27-40.67,1.05-.44,2.09-.88,3.14-1.3,.71-.29-.58,.24,0,0ZM220.92,3.2c19.77-2.3,39.82-2.26,59.57,.15-3.24,25.49-6.14,51.02-8.71,76.59-2.55,25.36-4.79,50.75-6.81,76.15-2,25.19-3.68,50.4-5.2,75.61-.9,14.91-1.7,29.83-2.44,44.74l-.08,1.64-.07,1.46c-4.74-.24-9.49-.24-14.23,0l-.14-2.79c-1.27-25.56-2.75-51.1-4.45-76.64-1.67-25.1-3.59-50.19-5.79-75.26-2.2-25.12-4.67-50.22-7.44-75.29-1.7-15.42-3.54-30.82-5.5-46.21,.43-.05,.86-.1,1.29-.15,.61-.07-.43,.05,0,0Zm65.93,1.01c20.45,3.04,40.49,8.65,59.54,16.67-9.96,23.15-18.81,46.75-26.82,70.64-8.1,24.15-15.15,48.68-21.38,73.38-6.1,24.2-11.44,48.6-16.08,73.12-2.74,14.48-5.28,29-7.64,43.54-4.73-.86-9.5-1.47-14.29-1.82l.16-3.13c1.28-25.82,2.77-51.64,4.51-77.43,1.71-25.31,3.63-50.61,5.87-75.89,2.21-25.05,4.68-50.07,7.46-75.07,1.65-14.84,3.42-29.67,5.31-44.48,1.13,.15,2.25,.31,3.37,.47,.76,.11-.63-.09,0,0Zm66.13,19.55c21.74,9.9,42.02,22.98,60.05,38.66,.58,.5,1.15,1.01,1.73,1.51l.07,.07c1.71,1.51,3.4,3.04,5.07,4.6-17.56,17.92-33.77,37.28-48.1,57.88-14.4,20.71-27.09,42.45-38.34,65.02-11.33,22.74-20.88,46.37-29.31,70.33-2.96,8.42-5.75,16.91-8.4,25.43-5.97-2.14-12.11-3.86-18.32-5.13,4.05-25.02,8.62-49.96,13.94-74.74,5.27-24.54,11.23-48.97,18.16-73.1,6.93-24.12,14.64-47.98,23.35-71.52,5.07-13.71,10.51-27.28,16.29-40.71,1.28,.56,2.56,1.12,3.83,1.7,.76,.34-.74-.34,0,0Zm68.01,36.87c10.05-7.53,21.2-13.6,32.97-17.98h.01c12.07-4.49,24.8-7.17,37.65-7.99h0c18.49-1.15,37.18,1.53,54.56,7.99h.03c12.9,4.81,25.07,11.64,35.84,20.22-1.35,1.21-2.69,2.43-4.01,3.67h0l-1.02,.97s-.03,.03-.05,.05l-1.1,1.05h.01c-16.32,15.68-30.54,33.5-42.1,52.95-12.19,20.5-21.45,42.75-27.37,65.85-2.94,11.45-5.06,23.11-6.34,34.86-2.7-24.75-9.16-49-19-71.86-8.95-20.82-20.79-40.41-35.02-58.05-6.77-8.39-14.09-16.35-21.87-23.82h.01l-1.11-1.07-1.07-1.01h0c-1.3-1.21-2.61-2.4-3.93-3.58,.96-.76,1.93-1.51,2.91-2.25,.18-.14-.91,.68,0,0Zm168.11,.07c18.6-15.82,39.49-28.89,61.88-38.64,9.92,23.1,18.78,46.63,26.76,70.47,7.99,23.86,14.94,48.08,21.13,72.46,6.22,24.52,11.6,49.25,16.31,74.1,2.71,14.3,5.2,28.65,7.53,43.02-6.21,1.28-12.34,2.99-18.31,5.13-7.49-24.02-16.19-47.63-26.19-70.72-10.06-23.26-21.86-45.79-35.18-67.34-13.27-21.46-28.27-41.92-44.89-60.92-5.84-6.68-11.82-13.23-18.01-19.59,2.94-2.72,5.91-5.39,8.96-7.99,.63-.53-.48,.41,0,0Zm66.07-40.42c19.67-8.14,40.38-13.71,61.49-16.54,3.2,25.02,6.04,50.09,8.57,75.18,2.54,25.2,4.8,50.43,6.8,75.68,1.98,24.96,3.68,49.94,5.19,74.94,.95,15.64,1.8,31.29,2.57,46.93l.16,3.26c-4.79,.35-9.57,.96-14.3,1.82-4.13-25.51-8.8-50.93-14.25-76.18-5.36-24.81-11.5-49.45-18.47-73.86-6.94-24.29-14.83-48.31-23.67-71.97-4.86-13.01-10.04-25.9-15.53-38.66,.48-.2,.95-.4,1.43-.6,.56-.23-.48,.2,0,0ZM722.74,2.99c19.17-2.09,38.61-1.98,57.75,.36-3.17,24.93-6.02,49.91-8.54,74.91-2.57,25.2-4.8,50.43-6.81,75.68-2.03,25.59-3.78,51.21-5.32,76.83-.93,15.45-1.76,30.91-2.53,46.37l-.02,.32-.1,2.07c-4.74-.27-9.49-.24-14.23,0l-.16-3.13v-.09c-1.28-25.76-2.77-51.51-4.51-77.24-1.7-25.19-3.62-50.37-5.83-75.53-2.19-24.99-4.67-49.94-7.42-74.87-1.67-15.12-3.48-30.23-5.4-45.33,1.04-.13,2.07-.25,3.11-.36,.66-.07-.6,.07,0,0Zm64.11,1.22c9.66,1.43,19.24,3.44,28.66,6h0c10.51,2.86,20.84,6.43,30.88,10.66-9.95,23.14-18.8,46.72-26.81,70.6-7.99,23.8-14.87,47.96-21.1,72.28-6.27,24.5-11.62,49.25-16.34,74.09-2.76,14.53-5.3,29.11-7.66,43.71-4.73-.86-9.5-1.47-14.29-1.82l.12-2.45c1.25-25.31,2.72-50.6,4.4-75.89,1.66-25.11,3.6-50.21,5.77-75.28,2.17-25.13,4.65-50.23,7.42-75.3,1.74-15.71,3.61-31.39,5.59-47.07,1.13,.15,2.25,.31,3.38,.47,.76,.11-.63-.09,0,0Zm66.12,19.55c21.6,9.84,41.9,22.81,59.78,38.43,2.41,2.11,4.79,4.24,7.14,6.41-17.57,17.9-33.76,37.27-48.09,57.86-14.26,20.5-26.79,42.01-38,64.32-11.35,22.61-20.82,46.15-29.29,69.98-3.12,8.77-6.01,17.61-8.78,26.49-5.97-2.14-12.11-3.86-18.32-5.13,4.1-25.35,8.75-50.6,14.14-75.71,5.26-24.48,11.25-48.82,18.17-72.88,7.01-24.36,14.84-48.45,23.67-72.21,4.91-13.22,10.19-26.31,15.75-39.27,1.28,.55,2.55,1.12,3.82,1.7,.77,.35-.73-.33,0,0Zm-47.36,270.81c9.89,4.58,19.17,10.37,27.65,17.22-1.76,1.56-3.5,3.15-5.22,4.76h0l-.98,.92s-.06,.06-.09,.09l-1.1,1.05h.01c-16.32,15.68-30.54,33.5-42.1,52.95-12.19,20.5-21.45,42.75-27.37,65.85-2.94,11.45-5.06,23.11-6.34,34.86-2.7-24.75-9.16-49-19-71.86-9.68-22.51-22.72-43.58-38.53-62.3-5.77-6.84-11.91-13.37-18.37-19.56h.01l-1.11-1.07s-.03-.03-.05-.05l-1.02-.97h0c-1.69-1.57-3.4-3.12-5.12-4.66,11.12-9.01,23.66-16.2,37.08-21.19h.02c22.71-8.44,47.67-10.44,71.44-5.82h0c10.42,2.02,20.56,5.31,30.19,9.78,7.04,3.26-3.09-1.43,0,0Zm34.64,15.15c18.31-15.37,38.8-28.11,60.72-37.65,9.92,23.1,18.78,46.64,26.76,70.48,8.15,24.33,15.28,49.04,21.5,73.94,6.08,24.35,11.44,48.86,16.1,73.52,2.63,14.01,5.08,28.05,7.36,42.12-6.21,1.28-12.34,2.99-18.31,5.13-7.49-24.02-16.2-47.63-26.19-70.73-10.03-23.18-21.77-45.65-35.05-67.12-13.28-21.48-28.27-41.99-44.9-61-5.88-6.72-11.89-13.32-18.12-19.72,3.28-3.09,6.67-6.08,10.12-8.98,.43-.36-1.24,1.04,0,0Zm64.91-39.43c19.67-8.15,40.39-13.7,61.49-16.55,3.21,25.15,6.08,50.35,8.61,75.58,2.51,24.95,4.75,49.93,6.73,74.93,2.02,25.46,3.75,50.94,5.29,76.43,.92,15.26,1.75,30.53,2.5,45.8l.16,3.26c-4.79,.35-9.57,.96-14.3,1.82-4.11-25.38-8.75-50.68-14.17-75.81-5.35-24.82-11.48-49.47-18.45-73.88-6.93-24.28-14.82-48.29-23.63-71.95-4.89-13.14-10.13-26.15-15.67-39.04,.47-.2,.95-.4,1.42-.59,.57-.24-.47,.2,0,0Zm43.21,269.31c-12.17,5.03-23.59,11.87-33.8,20.19-18.91-16.34-40.27-30.02-63.19-40.02-.35-.15-.69-.3-1.04-.45h0l-1.38-.61-.04-.02-1.33-.57h0c-20.38-8.57-41.8-14.41-63.73-17.35h0l-1.49-.2-1.49-.19h0c-9.72-1.18-19.5-1.8-29.29-1.86,.17-25.08,4.15-49.82,11.58-73.76,7.33-23.63,18.68-45.98,32.66-66.35,9.33-13.6,20.25-26.2,32.15-37.62,17.52,17.99,33.71,37.39,48.04,58.02,14.39,20.72,27.02,42.46,38.33,65,11.39,22.71,20.97,46.42,29.31,70.41,2.78,7.99,5.43,16.03,7.95,24.11-1.07,.41-2.14,.85-3.21,1.29Zm-32.41,25.41c1.32,1.19,2.63,2.39,3.93,3.6-17.64,18.01-33.94,37.46-48.31,58.18-14.5,20.92-27.35,42.87-38.62,65.7-11.31,22.9-20.99,46.66-29.33,70.8-2.75,7.95-5.39,15.94-7.9,23.97-5.97-2.14-12.11-3.86-18.32-5.13,4.1-25.33,8.75-50.57,14.13-75.66,5.26-24.52,11.27-48.91,18.2-73.01,7.03-24.45,14.89-48.64,23.78-72.49,4.88-13.1,10.1-26.07,15.62-38.91,22.62,9.86,43.84,23.07,62.53,39.2,1.43,1.24,2.87,2.48,4.28,3.74,.4,.36-.19-.17,0,0Zm-162.17,214.4c-3.61-.12-7.23-.05-10.84,.14l-.15-3.08v-.15c-1.28-25.63-2.72-51.26-4.48-76.86-1.69-25.19-3.61-50.36-5.82-75.5-2.19-24.93-4.66-49.83-7.4-74.71-1.68-15.31-3.52-30.61-5.46-45.89,20.19-2.47,40.67-2.45,60.86,0-3.17,24.93-6.02,49.91-8.54,74.91-2.57,25.33-4.82,50.69-6.84,76.07-2.02,25.48-3.76,50.97-5.29,76.48-.92,15.43-1.76,30.86-2.52,46.3l-.12,2.42c-1.13-.06-2.26-.1-3.39-.14-.17,0,1.04,.03,0,0Zm-17.04,.61c-3.72,.36-7.42,.87-11.09,1.54-4.07-25.08-8.64-50.08-13.98-74.93-5.34-24.88-11.43-49.63-18.45-74.09-7-24.38-14.86-48.48-23.69-72.25-4.93-13.27-10.21-26.4-15.8-39.4,10.04-4.23,20.37-7.8,30.88-10.66h0c10.52-2.86,21.23-5.02,32.04-6.48,3.2,25.02,6.04,50.09,8.57,75.18,2.54,25.2,4.8,50.43,6.8,75.68,1.98,24.96,3.68,49.94,5.19,74.94,.95,15.64,1.8,31.28,2.57,46.93l.16,3.27c-1.07,.08-2.14,.17-3.2,.28-1.33,.13,.44-.04,0,0Zm-18.33,3.07c-4.74,1.14-9.43,2.53-14.02,4.17-7.55-24.25-16.32-48.12-26.48-71.4-10.06-23.03-21.71-45.37-34.94-66.74-13.25-21.41-28.22-41.83-44.8-60.79-5.85-6.69-11.85-13.26-18.05-19.64,18.01-16.94,38.61-31.09,60.8-41.99,3.31-1.63,6.66-3.17,10.04-4.64,9.97,23.22,18.87,46.87,26.88,70.84,7.98,23.86,14.93,48.08,21.1,72.47,6.21,24.53,11.59,49.28,16.29,74.14,2.68,14.17,5.15,28.38,7.45,42.62-1.43,.29-2.87,.62-4.29,.96-1.67,.4,.55-.13,0,0Zm-20.04,6.5c-12.4,5.11-24.05,12.13-34.39,20.68-18.65-16.05-39.73-29.5-62.29-39.37-.46-.2-.91-.4-1.37-.6h0l-1.38-.61-1.37-.59h0c-20.38-8.57-41.8-14.41-63.73-17.35h0l-1.49-.2-1.49-.19h0c-9.72-1.17-19.51-1.8-29.31-1.86,.03-12.54,1.05-25.01,2.85-37.41,1.8-12.4,4.86-24.55,8.48-36.53,7.17-23.71,18.59-46.14,32.5-66.57,9.42-13.84,20.49-26.64,32.56-38.22,17.53,18.01,33.75,37.42,48.08,58.07,14.51,20.91,27.31,42.84,38.63,65.63,11.14,22.42,20.57,45.72,28.83,69.34,2.83,8.12,5.52,16.28,8.08,24.49-1.07,.41-2.14,.85-3.2,1.29-.71,.29,.59-.25,0,0Zm-214.54-39.57c-4.87,.31-9.74,.77-14.59,1.35h0l-1.49,.18-1.49,.19h0c-21.89,2.96-43.36,8.8-63.73,17.38h0l-1.37,.58-1.38,.59h0c-22.61,9.87-43.52,23.04-62.39,38.9-.42,.36-.85,.71-1.27,1.07-11.22-9.28-23.98-16.75-37.57-21.96,7.54-24.2,16.3-47.97,26.33-71.25,9.96-23.11,21.68-45.48,34.9-66.89,13.23-21.43,28.27-41.75,44.86-60.69,5.63-6.43,11.44-12.7,17.43-18.8,17.71,17,33.12,36.62,44.99,58.13,12.1,21.92,21.09,45.44,26.23,69.96,3.49,16.67,5.23,33.71,5.26,50.73-4.91,.03-9.82,.17-14.72,.52-1.22,.08,.03,0,0,0Zm-236.94,29.37c-1.32,.03-2.63,.08-3.95,.15l-.14-2.8c-1.27-25.56-2.75-51.12-4.46-76.65-1.69-25.34-3.62-50.67-5.85-75.97-2.25-25.5-4.75-50.98-7.58-76.42-1.65-14.79-3.41-29.58-5.29-44.34,20.19-2.46,40.68-2.46,60.86,0-3.23,25.44-6.13,50.92-8.7,76.44-2.56,25.42-4.81,50.87-6.83,76.34-2.01,25.32-3.7,50.66-5.23,76.01-.89,14.76-1.68,29.53-2.41,44.3l-.14,2.77-.02,.33c-3.42-.19-6.86-.24-10.29-.15-.19,0,2.12-.05,0,0Zm-28.47,3.69c-4.74,1.14-9.43,2.52-14.03,4.17-7.56-24.25-16.31-48.12-26.48-71.39-10.12-23.16-21.86-45.59-35.15-67.08-13.3-21.5-28.41-41.9-45.02-60.95-5.7-6.53-11.56-12.92-17.61-19.13,18.08-16.91,38.59-31.07,60.8-41.99,3.31-1.63,6.66-3.17,10.04-4.64,9.79,22.73,18.51,45.9,26.39,69.36,8.05,23.97,15.01,48.29,21.3,72.78,6.22,24.25,11.55,48.75,16.22,73.34,2.81,14.82,5.41,29.69,7.82,44.58-1.43,.29-2.86,.62-4.28,.96-1.68,.4,.54-.13,0,0Zm-136.67-226.29c-10.13-7.66-21.33-13.93-33.19-18.49,7.47-23.96,16.15-47.47,26.02-70.54,9.95-23.24,21.73-45.76,35-67.27,13.21-21.42,28.2-41.8,44.8-60.72,5.72-6.52,11.61-12.9,17.68-19.09,17.71,16.99,33.13,36.63,45,58.14,12.06,21.85,21.03,45.29,26.17,69.73,3.45,16.42,5.2,33.19,5.3,49.96-9.79,.06-19.58,.69-29.29,1.87h0l-1.49,.18-1.49,.19h0c-21.93,2.96-43.35,8.8-63.73,17.38h0l-1.37,.58-1.38,.59h0c-21.99,9.59-42.56,22.32-60.95,37.7-1.1,.92-2.2,1.85-3.28,2.79-1.25-1.02-2.52-2.01-3.8-2.98-.17-.13,1.17,.89,0,0Zm-40.09-20.91c-4.68-1.51-9.44-2.77-14.25-3.76,4.05-25.02,8.62-49.96,13.94-74.74,5.27-24.54,11.23-48.96,18.15-73.09,6.96-24.23,14.73-48.2,23.47-71.85,5.03-13.6,10.44-27.06,16.17-40.38,22.6,9.83,43.7,23.07,62.43,39.1,.66,.57,1.32,1.14,1.98,1.71h0c2.14,1.88,4.26,3.78,6.33,5.73-17.48,17.83-33.57,37.09-47.87,57.56-14.17,20.27-26.64,41.61-37.74,63.7-11.28,22.45-20.79,45.77-29.23,69.43-3.3,9.25-6.38,18.59-9.31,27.97-1.35-.48-2.71-.94-4.07-1.38-1.53-.49,.54,.17,0,0Zm-20.3-4.85c-3.71-.59-7.45-1.02-11.19-1.3l.16-3.13c1.28-25.82,2.77-51.64,4.51-77.43,1.71-25.31,3.63-50.61,5.87-75.89,2.21-25.05,4.68-50.07,7.46-75.07,1.65-14.84,3.42-29.67,5.31-44.48,21.62,2.9,42.81,8.69,62.92,17.14-9.96,23.15-18.81,46.75-26.82,70.64-8.1,24.15-15.15,48.68-21.38,73.38-6.1,24.2-11.44,48.6-16.08,73.12-2.74,14.48-5.28,29-7.64,43.54-1.03-.19-2.07-.36-3.1-.52-1.29-.2,.42,.07,0,0Zm148.8-221.83c19.77-15.01,43.63-24.21,68.36-26.35,25.19-2.18,50.81,2.9,73.18,14.7,7.63,4.02,14.86,8.79,21.56,14.23-1.76,1.57-3.5,3.15-5.22,4.76h0l-1.07,1.01-1.1,1.05h.01c-16.31,15.68-30.54,33.5-42.09,52.95-12.18,20.49-21.44,42.74-27.36,65.83-2.94,11.46-5.07,23.12-6.35,34.88-2.7-24.75-9.16-49-19-71.86-8.95-20.82-20.79-40.41-35.02-58.05-6.77-8.39-14.09-16.35-21.87-23.82h.01l-1.11-1.07-1.07-1.01h0c-1.69-1.57-3.39-3.13-5.12-4.66,1.08-.88,2.17-1.75,3.29-2.6,1.37-1.04-.44,.33,0,0Zm130.89-28.76c7.74-23.99,16.77-47.47,27-70.5,10.25-23.06,22.41-45.31,36.01-66.55,13.63-21.3,29.14-41.35,46.1-60.09,3.88-4.29,7.86-8.49,11.91-12.62,17.7,17,33.12,36.62,44.99,58.13,12.06,21.85,21.03,45.29,26.18,69.74,3.45,16.42,5.2,33.19,5.3,49.96-9.79,.06-19.58,.69-29.29,1.87h0l-1.49,.18-1.49,.19h0c-21.92,2.96-43.35,8.79-63.73,17.38h0l-1.37,.58-1.38,.59h0c-21.99,9.59-42.56,22.32-60.95,37.7-1.1,.92-2.2,1.85-3.28,2.79-11.09-9.04-23.63-16.34-36.99-21.47,.82-2.62,1.65-5.25,2.49-7.86,.5-1.56-.42,1.3,0,0Zm200.62-37.61c.36-12.52,1.69-24.97,3.85-37.3,2.14-12.24,5.45-24.22,9.37-35.99,7.83-23.57,19.79-45.73,34.28-65.84,8.52-11.83,18.29-22.83,28.8-32.92,17.51,18,33.7,37.39,48.04,58.02,14.39,20.72,27.02,42.46,38.33,65,11.39,22.71,20.97,46.42,29.31,70.41,2.78,7.99,5.43,16.03,7.95,24.11-13.36,5.13-25.92,12.43-37.01,21.48-18.81-16.26-40.05-29.9-62.85-39.87-.46-.2-.93-.4-1.39-.61h0l-1.38-.61-.04-.02-1.33-.57h0c-20.38-8.57-41.8-14.41-63.73-17.35h0l-1.49-.2-1.49-.19h0c-9.72-1.18-19.5-1.8-29.29-1.86,.01-1.89,.04-3.78,.09-5.67,.03-1.13-.03,1.01,0,0Zm164.24,72.12c1.34,1.2,2.68,2.42,3.99,3.65-17.57,17.92-33.79,37.29-48.12,57.91-14.45,20.79-27.13,42.6-38.44,65.24-11.32,22.64-20.79,46.22-29.19,70.08-2.96,8.42-5.75,16.9-8.4,25.42-5.97-2.14-12.11-3.86-18.32-5.13,4.05-25.01,8.6-49.95,13.94-74.72,5.23-24.28,11.11-48.44,17.94-72.33,6.96-24.38,14.77-48.5,23.57-72.29,5.07-13.71,10.51-27.29,16.29-40.72,22.62,9.87,43.84,23.07,62.53,39.2,1.42,1.22,2.83,2.45,4.22,3.69,.43,.38-.17-.15,0,0Zm14.4,13.99c17.32,18.22,32.06,39.14,43,61.79,10.93,22.62,18.88,46.84,22.45,71.75,1.71,11.95,2.71,23.94,2.79,36.02-9.79,.06-19.58,.69-29.29,1.87h0l-1.49,.18-1.49,.19h0c-21.89,2.96-43.37,8.8-63.73,17.38h0l-1.33,.56-.04,.02-1.38,.59h0c-21.9,9.55-42.32,22.21-60.69,37.47-1.19,.99-2.38,2-3.55,3.01-11.09-9.04-23.63-16.34-36.99-21.47,7.56-24.32,16.32-48.26,26.49-71.61,10.07-23.13,21.76-45.52,35.02-66.98,13.2-21.37,28.25-41.58,44.79-60.48,5.56-6.35,11.3-12.53,17.21-18.55,2.8,2.69,5.55,5.44,8.23,8.26,.71,.75-.71-.75,0,0Zm-100.07,235.57c-.74,.67-1.47,1.35-2.19,2.03h0l-.98,.92s-.06,.06-.09,.09l-1.1,1.05h.01c-16.32,15.68-30.54,33.5-42.1,52.95-12.19,20.5-21.44,42.75-27.37,65.85-2.94,11.45-5.06,23.11-6.34,34.86-2.7-24.75-9.16-49-19-71.86-8.95-20.82-20.79-40.41-35.02-58.05-6.77-8.39-14.09-16.35-21.87-23.82h.01l-1.11-1.07-1.07-1.01h0c-1.69-1.58-3.4-3.14-5.14-4.67,19.18-15.64,42.85-25.57,67.41-28.5,13.69-1.63,27.61-1.13,41.14,1.49h0c21.13,4.1,41.11,13.45,57.83,27-1.02,.9-2.03,1.81-3.03,2.73-.16,.15,.92-.84,0,0Zm-165.05,8.98c-17.26,18.12-32.97,37.66-47.07,58.33-14.04,20.58-26.29,42.34-37.12,64.77-11.01,22.8-20.37,46.38-28.59,70.32-2.32,6.75-4.53,13.53-6.66,20.35-5.97-2.14-12.11-3.86-18.32-5.13,4.09-25.23,8.71-50.37,14.07-75.37,5.28-24.61,11.3-49.08,18.25-73.27,7.03-24.46,14.9-48.66,23.78-72.51,4.88-13.1,10.1-26.07,15.62-38.91,22.6,9.83,43.7,23.07,62.43,39.1,.66,.57,1.32,1.14,1.98,1.71h0c2.14,1.88,4.26,3.78,6.33,5.73-1.58,1.62-3.16,3.25-4.72,4.89-.85,.89,.88-.92,0,0Zm-138.15,192.72c-.87,5.11-1.73,10.22-2.56,15.34-4.73-.86-9.5-1.47-14.29-1.82l.06-1.26,.09-1.88c1.28-25.82,2.76-51.63,4.51-77.42,1.72-25.43,3.65-50.85,5.9-76.25,2.2-24.93,4.66-49.84,7.43-74.71,1.65-14.84,3.42-29.67,5.31-44.48,21.62,2.9,42.81,8.69,62.92,17.14-9.96,23.15-18.81,46.74-26.82,70.62-8.15,24.29-15.25,48.96-21.48,73.8-6.19,24.65-11.55,49.48-16.31,74.44-1.68,8.81-3.24,17.64-4.75,26.48-.17,1.01,.32-1.89,0,0Zm.45-266.23c-8.6-.93-17.24-1.43-25.89-1.48,.14-25.06,4.15-49.83,11.57-73.75,7.4-23.83,18.85-46.51,33.08-66.97,9.29-13.36,20-25.75,31.73-37.01,17.61,18.1,33.93,37.61,48.29,58.39,14.46,20.92,27.37,42.83,38.59,65.66,11.28,22.95,21.04,46.72,29.32,70.91,2.56,7.49,5.06,15.01,7.42,22.57-13.36,5.13-25.92,12.43-37.01,21.48-18.17-15.72-38.46-28.52-60.21-38.68-1.33-.62-2.68-1.21-4.03-1.79h0l-1.38-.61-1.37-.59h0c-20.38-8.57-41.8-14.41-63.73-17.35h0l-1.49-.2-1.49-.19h0c-1.13-.13-2.27-.26-3.4-.38-1-.11,.32,.03,0,0Zm52.89-181.5c18.1-16.92,38.67-31.02,60.9-41.94,3.2-1.57,6.45-3.06,9.72-4.48,9.78,22.73,18.51,45.89,26.38,69.34,8.09,24.09,15.1,48.52,21.39,73.14,6.27,24.55,11.66,49.34,16.36,74.23,2.72,14.42,5.25,28.87,7.59,43.35-6.21,1.27-12.34,2.99-18.31,5.13-7.59-24.35-16.36-48.37-26.62-71.72-10.19-23.18-21.93-45.62-35.25-67.16-13.27-21.46-28.42-41.77-44.99-60.79-5.62-6.45-11.43-12.76-17.4-18.89,.08-.07,.15-.14,.22-.21,.89-.83-.08,.07,0,0Zm74.77-48.19c19.68-8.14,40.41-13.73,61.52-16.56,3.2,25.22,6.09,50.49,8.63,75.78,2.53,25.22,4.78,50.46,6.79,75.72,2.02,25.4,3.72,50.82,5.26,76.25,.91,14.99,1.71,29.98,2.45,44.98l.16,3.26c-4.79,.35-9.57,.96-14.3,1.82-4.05-25.01-8.59-49.95-13.94-74.72-5.25-24.3-11.11-48.47-17.93-72.37-7.02-24.6-14.9-48.92-23.77-72.92-5.06-13.7-10.51-27.26-16.27-40.67,.46-.2,.93-.39,1.39-.58,.58-.24-.47,.19,0,0Zm67.63-17.31c19.17-2.1,38.59-1.96,57.73,.36-3.16,24.81-5.98,49.65-8.51,74.53-2.55,25.08-4.79,50.2-6.79,75.33-2.01,25.21-3.74,50.43-5.26,75.67-.97,16.08-1.85,32.16-2.64,48.24v.28l-.12,2.13c-4.74-.27-9.5-.26-14.23,0l-.06-1.17-.1-2.07c-1.28-25.84-2.76-51.68-4.52-77.49-1.76-25.74-3.73-51.47-5.98-77.17-2.21-25.17-4.69-50.32-7.53-75.43-1.61-14.3-3.31-28.59-5.12-42.86,1.04-.13,2.09-.25,3.13-.36,.65-.07-.61,.07,0,0Zm64.09,1.22c20.45,3.04,40.49,8.65,59.54,16.67-9.96,23.13-18.8,46.73-26.81,70.6-7.96,23.69-14.79,47.75-21.01,71.94-6.33,24.61-11.71,49.48-16.43,74.44-2.75,14.53-5.29,29.09-7.66,43.69-4.73-.86-9.5-1.47-14.29-1.82l.12-2.45c1.25-25.31,2.73-50.61,4.4-75.9,1.66-25.24,3.61-50.46,5.8-75.65,2.19-25.25,4.69-50.48,7.47-75.67,1.7-15.45,3.55-30.89,5.51-46.31,1.13,.15,2.25,.31,3.38,.47,.75,.11-.63-.09,0,0ZM218.4,517.78c3.04,24.88,5.74,49.79,8.17,74.74,2.47,25.29,4.63,50.62,6.52,75.96,1.9,25.41,3.59,50.84,5.02,76.28,.6,10.71,1.17,21.42,1.7,32.13l.14,2.84c-4.79,.36-9.57,.97-14.3,1.82-4.09-25.19-8.68-50.31-14.05-75.26-5.37-24.92-11.47-49.7-18.5-74.2-7-24.38-14.87-48.49-23.72-72.25-4.89-13.11-10.11-26.11-15.64-38.97,20.1-8.46,41.3-14.24,62.92-17.14,.6,4.68,1.18,9.36,1.75,14.04,.15,1.23-.15-1.23,0,0Zm568.44-13.57c20.45,3.04,40.49,8.65,59.54,16.67-9.91,23.02-18.7,46.48-26.69,70.23-8.04,23.91-14.96,48.19-21.22,72.63-6.3,24.61-11.67,49.47-16.41,74.43-2.74,14.42-5.26,28.89-7.6,43.38-4.73-.86-9.5-1.47-14.29-1.82l.12-2.46c1.25-25.3,2.72-50.6,4.4-75.88,1.66-25.11,3.6-50.21,5.77-75.28,2.17-25.13,4.65-50.23,7.42-75.3,1.74-15.71,3.61-31.39,5.59-47.07,1.13,.15,2.25,.31,3.38,.47,.75,.11-.63-.09,0,0ZM24.95,144.61c10.41-22.23,24.15-42.88,40.61-61.08,3.98-4.4,8.12-8.65,12.39-12.75,17.53,18.01,33.74,37.41,48.07,58.06,14.44,20.81,27.17,42.63,38.46,65.29,11.07,22.2,20.37,45.28,28.64,68.65,2.99,8.45,5.78,16.98,8.45,25.53-13.37,5.13-25.91,12.43-37,21.48-17.92-15.52-38.05-28.5-59.59-38.4-1.54-.71-3.09-1.4-4.64-2.08h0l-1.38-.61-1.37-.59h0c-20.38-8.57-41.8-14.41-63.73-17.35h0l-1.49-.2-1.49-.19h0c-9.72-1.17-19.5-1.8-29.29-1.86,.14-25.06,4.15-49.83,11.57-73.75,3.2-10.3,7.23-20.39,11.8-30.15,.28-.6-.87,1.86,0,0Zm0,500c10.41-22.23,24.15-42.88,40.61-61.08,3.98-4.4,8.12-8.65,12.39-12.75,17.53,18.01,33.75,37.41,48.07,58.07,14.5,20.91,27.35,42.83,38.64,65.64,11.27,22.77,20.93,46.41,29.21,70.42,2.67,7.76,5.26,15.56,7.7,23.4-13.61,5.21-26.35,12.69-37.59,21.96-18.86-16.22-40.16-29.73-62.97-39.66-.23-.1-.45-.2-.68-.3h0l-1.38-.61-1.37-.59h0c-20.36-8.56-41.83-14.41-63.73-17.35h0l-1.49-.2-1.49-.19h0c-9.72-1.17-19.51-1.8-29.3-1.86,.02-12.65,1.03-25.28,2.91-37.79,1.84-12.28,4.84-24.3,8.43-36.17,3.2-10.58,7.36-20.93,12.04-30.94,.28-.6-.87,1.86,0,0Zm149.22,174.93h.01l-1.11-1.07-1.07-1.01h0c-1.88-1.75-3.78-3.49-5.71-5.19,19.09-15.61,42.35-25.71,66.83-28.83,24.93-3.18,50.61,.78,73.35,11.51,9.8,4.63,18.97,10.47,27.37,17.32-1.96,1.73-3.89,3.49-5.79,5.28h0l-1.07,1.01-1.1,1.05h.01c-16.35,15.71-30.59,33.58-42.16,53.07-12.31,20.73-21.63,43.26-27.52,66.64-2.82,11.19-4.87,22.58-6.12,34.06-2.71-24.94-9.24-49.39-19.19-72.41-9.01-20.85-20.91-40.45-35.22-58.09-6.66-8.22-13.85-16.01-21.48-23.34Zm595.68,80.06c-10.12,22.94-16.73,47.35-19.62,72.25-.06,.51-.12,1.02-.17,1.53-2.72-25.07-9.3-49.65-19.35-72.77-9.05-20.82-20.96-40.39-35.28-58-6.6-8.12-13.72-15.83-21.27-23.08h.01l-1.11-1.07-1.07-1.01h0c-1.88-1.75-3.78-3.49-5.71-5.19,19.13-15.59,42.32-25.7,66.83-28.83,25.17-3.22,51.1,.86,74,11.82,9.55,4.57,18.54,10.29,26.72,17.01-1.96,1.73-3.89,3.49-5.79,5.28h0l-1.03,.96-.04,.04-1.1,1.05h.01c-23.86,22.93-42.71,49.82-56.02,79.99-.79,1.78,13.31-30.17,0,0Zm210.36-243.5c9.46,23.16,15.11,47.5,17.43,72.38,.65,6.98,.91,14.02,.92,21.03-9.79,.06-19.58,.69-29.31,1.87h0l-1.49,.18-1.49,.19h0c-21.89,2.96-43.37,8.8-63.73,17.38h0l-1.37,.58-1.38,.59h0c-22.35,9.73-43.34,22.73-61.93,38.51-.58,.49-1.16,.97-1.73,1.46-11.24-9.28-23.97-16.72-37.57-21.96,7.54-24.2,16.27-48,26.33-71.27,10.21-23.6,22.21-46.43,35.76-68.28,13.31-21.45,28.53-41.65,45.16-60.62,5.24-5.98,10.69-11.78,16.25-17.46,17.86,17.16,33.43,36.98,45.32,58.73,4.74,8.67,9.07,17.54,12.81,26.69,.25,.62-.81-1.98,0,0Zm-.01-500.03c9.42,23.03,15.13,47.31,17.41,72.06,.62,6.77,.89,13.58,.94,20.37-9.79,.06-19.58,.69-29.29,1.87h0l-1.49,.18-1.49,.19h0c-21.93,2.96-43.35,8.79-63.73,17.38h0l-1.33,.56-.04,.02-1.38,.59h0c-22.5,9.8-43.65,22.91-62.32,38.85-.64,.55-1.29,1.08-1.92,1.63-11.11-9.03-23.62-16.33-36.99-21.47,7.54-24.22,16.28-48.03,26.35-71.31,10.02-23.14,21.74-45.55,34.98-67.01,13.18-21.36,28.19-41.6,44.72-60.48,5.64-6.44,11.46-12.72,17.45-18.83,17.86,17.15,33.43,36.98,45.32,58.73,4.73,8.66,9.06,17.52,12.8,26.66,.25,.62-.81-1.97,0,0Z"/></g></svg>