<?xml version="1.0" encoding="UTF-8"?><svg id="Layer_2" xmlns="http://www.w3.org/2000/svg" width="1351.47" height="861.58" viewBox="0 0 1351.47 861.58"><defs><style>.cls-1{fill:#e3c247;}.cls-2{fill:#b6b5b5;}.cls-3{fill:#aeaeae;}.cls-4{opacity:.17;}.cls-5{opacity:.22;}.cls-6{opacity:.5;}</style></defs><g id="Layer_2-2"><g class="cls-6"><path class="cls-2" d="M296.28,.82c95.94,0,191.88-.37,287.82,.21,32.24,.19,64.5,.91,96.72,.3,42.96-.8,85.91-.26,128.87-.36,10.06-.02,20.06-.2,30.1-.8,10.55-.64,21.11,.74,31.69,.73,157.91-.1,315.82-.07,473.73-.07q5.53,0,5.52,5.84c0,171.11-.62,342.22,.23,513.33,.55,112.09,.05,224.18,.52,336.27,.02,5.09,0,5.09-4.92,5.09-110.55,0-221.1,.63-331.65-.18-110.41-.81-220.81-.87-331.21-.35-225.82,1.06-451.64,.09-677.46,.55-1.34,0-2.68,.03-4.02-.05-1.46-.1-2.5-1.08-2.04-2.46C1.57,854.59,0,850.45,0,846.26,.03,566.15,.02,286.04,.02,5.92q0-5.1,5.15-5.1c97.03,0,194.07,0,291.1,0Zm41.98,47.92l.03-.81c.75-.83,1.1-1.96,.05-2.49-.96-.49-1.35,.66-1.53,1.53-.27,1.32-.51,2.65-.76,3.97-.94,5.19-2.25,10.21-4.26,15.15-4.75,11.69-9.28,23.6-16.97,33.51-5.03,6.49-5.89,13.14-5.88,20.82,.11,128.04,.08,256.09,.08,384.13,0,1.37,.05,2.74,0,4.11-.06,1.73,.67,2.48,2.38,2.48,8.15-.03,16.31-.03,24.46,0,1.69,0,2.45-.73,2.39-2.46-.05-1.49,0-2.99,0-4.49,0-151.36,0-302.71,0-454.07v-1.38Zm-34.38,67.13c-7.92,7.36-14.82,15.82-23.14,22.77-.95,.79-1.58,1.77-1.72,3.16-.38,3.96-.7,7.9-.7,11.9,.03,115.34,.03,230.68,.01,346.02,0,2.75,.3,5.44,.62,8.16,.23,1.92,.92,2.59,2.73,2.56,6.07-.11,12.09,.98,18.19,.73,6.04-.25,5.46,.51,5.46-5.7,0-129.56,.01-259.11,.01-388.67-.15-.86,.49-2.16-.65-2.47-.95-.26-.67,.93-.83,1.54Zm38.72,570.77c0,55.24,0,110.48-.03,165.72,0,2.74-.04,4.6,3.7,4.6,107.61-.1,215.22-.09,322.82-.02,3.18,0,3.85-1.16,3.81-4.12-.12-8.83-.78-17.61-1.48-26.41-.83-10.52-2.39-20.91-4.35-31.26-1.24-6.58-3-13.05-4.23-19.6-1.57-8.33-4.11-16.34-6.7-24.27-4.52-13.86-9.93-27.4-16.16-40.62-7.81-16.58-16.97-32.28-26.95-47.53-5.93-9.05-12.46-17.67-19.34-25.9-8.89-10.63-18.41-20.75-28.47-30.3-8.72-8.27-18.06-15.76-27.29-23.36-6.18-5.09-12.88-9.61-19.69-13.8-8.1-4.97-16.02-10.29-24.58-14.48-6.85-3.36-13.65-6.78-20.62-9.89-10.64-4.75-21.28-9.44-32.47-12.69-4.86-1.41-9.79-2.71-14.54-4.32-5.52-1.87-11.17-3.12-16.77-4.33-6.6-1.43-13.17-3.18-19.99-3.7-7.59-.58-15.14-1.75-22.71-2.64-6.17-.73-12.37-.02-18.5-1.2-4.91-.94-5.46-.29-5.46,4.78,0,55.11,0,110.23,0,165.34ZM171.46,5.27c-54.3,0-108.6,.03-162.9-.08-3.42,0-4.59,1.03-4.21,4.43,.82,7.27,1.15,14.62,2.36,21.82,1.33,7.92,3.21,15.75,5.72,23.4,2,6.09,4.62,11.93,6.88,17.88,3.55,9.33,8.23,18.04,13.61,26.11,8.44,12.67,18.53,24.08,29.92,34.25,9.84,8.79,20.65,16.09,32.06,22.32,9.48,5.18,19.6,9.15,29.97,12.25,12.13,3.63,24.54,6.07,37.14,6.64,16.48,.74,32.81-.62,48.93-4.87,9.5-2.51,18.69-5.67,27.73-9.47,15.07-6.34,28.4-15.59,40.91-26.01,8.17-6.81,15.4-14.74,22.01-23.26,6.16-7.94,11.66-16.3,16.36-25.16,6.7-12.63,12.25-25.84,15.4-39.9,1.23-5.5,2.97-10.89,3.54-16.59,.59-5.93,1.06-11.86,1.6-17.79,.53-5.86,.77-5.98-4.88-5.98-54.06,0-108.11,0-162.17,0Zm166.66,714.48c.04-.45,.1-.89,.1-1.34,0-66.21,0-132.43,.05-198.64,0-2.6-.78-3.45-3.34-3.45-8.5,.01-16.95,.78-25.42,1.48-12.91,1.07-25.73,2.81-38.34,5.74-7.15,1.66-14.31,3.27-21.4,5.34-13.43,3.91-26.54,8.63-39.39,14.12-9.37,4.01-18.58,8.37-27.5,13.42-8.06,4.55-16.04,9.21-23.74,14.34-9.91,6.61-19.2,14.11-28.76,21.22-11.7,8.7-21.21,19.7-31.53,29.82-6.78,6.66-12.77,14.2-18.78,21.68-9.33,11.63-17.99,23.73-25.61,36.51-7.32,12.27-13.72,25.13-19.57,38.25-7.33,16.42-13.26,33.37-17.94,50.74-3.74,13.86-6.59,27.94-8.45,42.25-1.74,13.43-2.64,26.9-3.34,40.4-.27,5.24-.04,5.26,5.08,5.26,59.16,0,118.32,0,177.49,0,1.16,0,2.33,0,4.45,0-51.63-15.6-91.44-65.41-84.02-129.79,3.2-27.76,15.03-51.3,34.61-70.61,19.71-19.44,43.38-30.61,70.66-32.84,27.72-2.27,53.32,4.6,76.24,20.95,25.83,18.43,41.2,44.02,48.45,75.15ZM843.38,171.43v-.02c53.44,0,106.88,0,160.32,0,5.1,0,5.84-.84,5.03-5.83-1.17-7.21-1.23-14.52-2.6-21.74-1.41-7.45-3.34-14.72-5.44-21.94-2.24-7.7-5.57-14.97-8.92-22.28-4-8.72-8.84-16.85-14.13-24.64-10.39-15.29-23.49-27.99-38.14-38.98-11.71-8.79-24.63-15.38-38.08-20.79-13.47-5.42-27.56-9.05-41.98-9.72-18.52-.86-37.13-1.1-55.37,3.73-17.39,4.61-33.84,11.56-48.87,21.53-14.41,9.56-27.45,20.93-38.43,34.61-5.86,7.3-11.61,14.76-15.95,23.05-5.37,10.24-10.43,20.64-13.96,31.87-4.75,15.13-7.63,30.47-8.2,46.29-.17,4.86-.03,4.87,4.76,4.87,53.32,0,106.64,0,159.95,0Zm-165.46,111.44c13.24-41.05,48.56-59.54,85.49-51.39,27.55,6.08,51.13,31.02,53.96,62.49,3.31,36.91-16.2,68.53-52.72,78.88-18.15,5.14-36.42,2.73-53-7.27-16.34-9.86-27.65-24.1-33.49-43.9-.84,9.93-.07,18.6-.11,27.27-.24,52.25-.1,104.5-.22,156.75,0,3.73,.86,4.84,4.63,4.83,52.35-.13,104.69-.09,157.04-.09q5,0,5.01-5.03c0-108.24,0-216.48,0-324.72q0-4.77-4.88-4.77c-32.5,0-65.01-.08-97.51,.03-19.94,.07-39.88,.54-59.82,.6-3.53,.01-4.49,1.01-4.48,4.61,.13,32.55,.08,65.09,.08,97.64,0,1.06,0,2.11,0,4.08Zm668.45,456.8c-3.06,7.35-6.03,14.15-10.31,20.45-10.03,14.74-23.13,25.03-39.44,31.38-18.36,7.15-36.84,7.38-55.56,1.77-13.32-3.99-24.76-11.18-34.65-21.06-3.2-3.2-6.16-6.56-8.74-10.38-4.02-5.95-7.85-12.02-10.3-18.75-6.06-16.62-7.85-33.76-4.26-51.26,.55-2.68-.17-3.32-2.6-3.32-39.44,.03-78.88,.03-118.33-.01-1.82,0-2.69,.8-3.75,2.25-3.33,4.54-5.09,9.86-7.5,14.85-4.78,9.85-9.3,19.81-13.16,30.12-4.25,11.36-8.19,22.81-11.15,34.54-3.32,13.16-5.99,26.48-7.85,40.02-1.92,13.93-3.07,27.85-3.4,41.88-.08,3.47,.83,4.82,4.47,4.82,107.61-.08,215.23-.08,322.84,0,3.62,0,4.51-1.3,4.5-4.79-.1-36.29-.06-72.58-.09-108.86,0-1.05,.38-2.2-.73-3.65Zm-110.15-395.37c4.99,0,9.98,0,14.97,0,26.53,0,53.07,0,79.6-.03,1.25,0,3.11,.71,3.59-.89,.66-2.23,2.36-3.82,3.05-5.87,3.9-11.58,7.99-23.04,9.16-35.46,1.69-17.9-.57-35.12-6.69-51.88-4.27-11.71-10.16-22.58-18.04-32.06-6.43-7.74-13.42-15.12-21.86-20.71-8.15-5.39-16.49-10.26-25.67-13.86-9.76-3.82-19.78-6.08-30-6.75-16.8-1.1-33.23,.88-49.07,7.68-7.19,3.09-14.26,6.34-20.62,10.77-11.89,8.29-21.98,18.54-30.44,30.63-8.64,12.35-14.18,26.06-17.36,40.58-2.32,10.56-2.98,21.48-2.07,32.55,1.2,14.59,4.95,28.19,11.15,41.26,1.4,2.96,3.15,4.11,6.44,4.1,31.28-.12,62.56-.07,93.84-.07ZM673.58,172.11c0-54.48-.03-108.96,.09-163.45,0-2.86-.55-3.47-3.26-3.45-23.85,.11-47.71,.06-71.56,.07-4.87,0-4.9,.03-4.9,4.99,0,107.97,0,215.94,0,323.9,0,5.37,.35,5.65,5.66,4.98,.96-.12,1.94-.07,2.92-.07,20.81,0,41.62,0,62.44,0,1.09,0,2.2-.04,3.28,.13,5.34,.82,5.34,.84,5.34-4.76,0-54.11,0-108.22,0-162.33Zm-83.3,.05c0-43.02,0-86.04,0-129.06,0-11.47-.03-22.94,.03-34.42,.01-2.2-.34-3.46-2.95-3.45-24.71,.07-49.42,.06-74.13,.01-2.61,0-3.27,1.2-3.35,3.65-.15,4.5,.7,8.93,.71,13.4,.08,91.25-.15,182.51,.76,273.76,.13,12.97,.13,25.94-.05,38.9-.05,3.34,.95,4.2,4.14,4.19,23.37-.13,46.74-.07,70.12-.07q4.74,0,4.74-4.93c0-53.99,0-107.99,0-161.98Zm756.84,509.43c0-1.31,0-2.62,0-3.93,0-51.13,0-102.25,0-153.38,0-7.41,0-7.19-7.12-7.22-17.16-.08-34.07,2.14-50.91,5.28-10.59,1.97-21.04,4.5-31.41,7.4-5.38,1.5-10.55,3.65-15.89,5.18-6.33,1.81-12.24,4.63-18.34,6.94-8.28,3.14-16.18,7.28-24.12,11.28-9.9,4.99-19.48,10.56-28.8,16.59-10.25,6.63-20.07,13.9-29.45,21.77-5.98,5.01-12.05,9.93-17.71,15.3-10.33,9.8-20,20.3-29.12,31.3-5.81,7-11.47,14.13-16.62,21.67-4.79,7.01-9.42,14.13-13.81,21.41-.56,.93-1.68,1.82-1.12,2.93,.59,1.18,1.98,.61,3.01,.61,38.83,.03,77.66,.01,116.5,.06,2.1,0,3.07-.53,3.85-2.78,3.63-10.49,8.58-20.26,15.95-28.61,9.22-10.46,19.89-18.79,32.74-24.1,7.94-3.28,16.16-5.35,24.67-5.82,13.54-.76,26.74,.8,39.46,6.2,11.07,4.7,20.8,11.43,28.87,20.23,8.36,9.12,14.93,19.71,19.37,31.66ZM424.86,178.13c-25.81,0-51.62,0-77.42,0-4.42,0-4.82,.37-4.83,4.88-.01,50.63,.01,101.26-.05,151.89,0,2.99,.84,4.22,3.94,4.21,51.98-.07,103.96-.07,155.94-.01,3.4,0,4.64-1.18,4.63-4.83-.11-50.25-.08-100.51-.1-150.76,0-5.21-.19-5.37-5.43-5.37-25.56,0-51.13,0-76.69,0ZM1292.85,5.9l-.09-.62c-.48,0-.96,0-1.44,0-91.41,0-182.82,.01-274.23-.08-3.47,0-3.92,1.37-3.92,4.4,.07,52.49,.08,104.98-.02,157.47,0,3.41,.88,4.46,4.28,4.41,27.97-.35,55.95,.44,83.91-.7,2.87-.12,4.42-1.38,5.18-3.71,4.26-13.1,10.58-25.15,17.11-37.17,7.93-14.62,17.7-27.87,28.08-40.64,9.7-11.93,21.07-22.21,32.79-32.03,10.25-8.59,21.24-16.17,32.8-22.72,18.16-10.3,37.17-18.71,57.29-24.24,6.04-1.66,12.18-2.93,18.27-4.37Zm-4.78,503.93c-13.86-2-26.12-6.51-38.2-11.13-9.69-3.71-19.06-8.5-28.26-13.56-17.49-9.63-33.68-21.24-48.45-34.65-14.52-13.19-27.34-28.12-38.39-44.66-11.24-16.83-20.88-34.45-27.93-53.49-1.17-3.17-2.69-3.65-5.54-3.64-27.75,.09-55.5,.05-83.26,.05-4.79,0-4.81,0-4.81,4.85,0,50.12-.02,100.25,0,150.37,0,7.25-.84,6.46,6.15,6.46,87.15,.01,174.3,.02,261.45-.07,2.07,0,4.22,1.18,7.24-.53ZM4.38,807.27c2.69-14.72,5.86-29.17,9.68-43.49,3.79-14.19,8.84-27.87,14.39-41.41,5.63-13.74,12.36-26.85,19.76-39.68,7.41-12.85,15.55-25.09,24.47-36.87,8.84-11.68,18.52-22.53,28.75-32.97,10.31-10.52,20.95-20.62,32.6-29.54,11.63-8.9,23.73-17.11,36.23-24.69,12.53-7.6,25.52-14.23,38.98-19.82,13.31-5.53,26.7-10.9,40.67-14.57,13.86-3.65,27.79-6.93,41.95-9.32-1.33,0-2.66,0-3.99,0-92.75,0-185.5,0-278.25,0q-5.26,0-5.26,5.5c0,94.26,0,188.52,0,282.78,0,1.36,0,2.72,0,4.09Zm669.19-3.68c0-1.48,0-2.96,0-4.44,0-93.14,0-186.29,0-279.43q0-4.82-4.82-4.82c-93.12,0-186.24,0-279.36,0-1.17,0-2.33,0-3.5,0,73.1,11.64,136.69,42.94,189.55,96.08,52.96,53.24,85.28,117.73,98.12,192.6ZM424.48,173.67c16.06,0,32.13,0,48.19,0,10.1,0,20.2-.02,30.3,.01,1.85,0,3.48-.04,3.29-2.67-.55-7.3-.38-14.73-1.75-21.86-1.8-9.41-3.93-18.79-7.02-27.93-3.65-10.82-8.43-21.08-13.74-31.06-3.92-7.37-8.9-14.16-14.09-20.7-9.16-11.52-19.61-21.67-31.28-30.48-6.82-5.15-14.21-9.35-21.66-13.51-11.13-6.22-22.9-10.54-35.04-13.96-11.37-3.2-23.07-4.41-34.77-5.5-3.28-.3-4.36,.74-4.35,4.29,.11,52.98,.11,105.96-.01,158.94,0,3.7,1.11,4.54,4.55,4.52,25.8-.14,51.6-.08,77.4-.08Zm-.38,169.85c-25.44,0-50.88,.04-76.32-.05-2.81-.01-3.92,.72-3.79,3.77,.2,4.59,.13,9.18,.79,13.76,1.38,9.57,2.84,19.13,5.66,28.38,3.22,10.56,7.51,20.64,12.37,30.56,6.29,12.84,14.22,24.47,23.68,34.81,7.41,8.1,15.11,16.04,24.08,22.62,8.39,6.16,17.1,11.77,26.32,16.28,12.43,6.09,25.29,11.06,39.09,13.5,9.1,1.61,18.1,3.19,27.36,3.36,3.54,.06,4.51-1,4.47-4.61-.48-35.26,.54-70.52-.69-105.78-.48-13.82-.09-27.68-.07-41.52,0-1.61-.03-3.26,.23-4.84,1.35-8.17-.28-10.23-8.3-10.23-24.95,0-49.91,0-74.86,0Zm87.25,83.81h.03v36.65c0,14.21-.02,28.42,.03,42.63,0,1.44-.75,3.52,1.78,3.75,7.93,.72,15.76-.63,23.49-1.99,5.12-.9,10.22-2.58,15.32-3.72,5.94-1.32,11.75-3.13,17.2-5.53,9.19-4.04,18.42-8.16,26.75-14.04,6.89-4.86,13.98-9.39,20.32-15.06,6.76-6.05,12.58-12.96,18.63-19.72,10.79-12.07,18.9-25.84,25.18-40.69,4.27-10.09,7.74-20.54,10.04-31.4,2.15-10.13,3.5-20.25,3.54-30.61,.01-3.36-1.01-4.17-4.16-4.17-50.99,.09-101.98,.06-152.97,.07-4.92,0-5.17,.28-5.17,5.28,0,26.18,0,52.36,0,78.53Zm417.5-78.6c-25.19,0-50.38,.07-75.56-.08-3.51-.02-4.49,.97-4.48,4.59,.11,50.36,.08,100.71,.08,151.07,0,.75,.05,1.5,0,2.24-.1,1.54,.58,1.72,1.97,1.71,12.16-.13,24.12-1.66,35.86-4.9,6.65-1.83,13.24-3.78,19.71-6.29,7.48-2.91,14.77-6.3,21.65-10.29,8.69-5.04,16.91-10.97,24.53-17.72,14.92-13.21,27.75-28.14,37.13-45.99,5.75-10.94,10.18-22.39,13.59-34.39,3.31-11.67,4.73-23.48,5.59-35.47,.27-3.7-1.04-4.57-4.5-4.55-25.19,.14-50.38,.08-75.56,.07Zm418.26,80.91c0-25.56,0-51.13-.02-76.69,0-1.32,.5-2.85-.72-3.87-1.65-1.37-10.25-.13-11.35,1.7-4.27,7.09-9.18,13.63-14.52,19.93-6.59,7.78-14.28,14.14-22.64,19.56-7.34,4.75-15.18,8.59-23.47,11.61-9.46,3.44-19.21,5.6-29.01,6.52-17.71,1.66-35.03-1.39-51.71-7.73-13.08-4.96-24.64-12.77-35.09-21.97-8.84-7.78-16.08-17.25-21.82-27.75-.9-1.65-1.92-2.28-3.73-2.26-6.57,.08-13.15,.13-19.72,0-2.59-.05-2.81,.91-2.08,3.1,3.7,11.11,8.97,21.49,14.55,31.66,4.43,8.07,9.46,15.77,14.88,23.25,7.67,10.58,15.64,20.83,24.72,30.15,6.24,6.41,12.87,12.38,19.73,18.13,7.58,6.36,15.36,12.46,23.7,17.63,6.39,3.97,12.99,7.67,19.61,11.3,9.77,5.35,19.98,9.46,30.31,13.34,11.5,4.32,23.35,7.46,35.38,9.87,9.28,1.86,18.61,3.34,28.11,3.3,6.82-.03,13.64-.19,20.45,.07,3.47,.13,4.56-.86,4.54-4.54-.15-25.44-.08-50.88-.08-76.32ZM225.01,742.13c0,36.54,0,73.08,0,109.62,0,5.27,.44,5.4,5.43,4.76,4.18-.53,8.35-1.22,12.52-1.73,9.74-1.2,18.93-4.45,27.5-8.76,9.36-4.7,18.21-10.44,26.27-17.63,9.85-8.79,17.62-18.99,23.97-30.43,6.39-11.5,10.52-23.86,12.94-36.94,2.45-13.3,2.24-26.55-.32-39.61-3.49-17.83-10.22-34.35-21.4-48.82-6.28-8.13-13.14-15.69-21.05-21.99-8.13-6.48-17.38-11.2-27.07-15.04-11.05-4.37-22.28-7.36-34.17-7.76-3.63-.12-4.75,.81-4.73,4.72,.16,36.54,.09,73.08,.1,109.62Zm-3.66,.15c0-35.03,0-70.06,0-105.1,0-10.05-1.1-10.93-11.01-9.15-10.52,1.88-20.77,4.56-30.76,8.61-14.29,5.8-26.1,15.12-36.75,26.02-7.98,8.16-14.35,17.61-19.58,28.04-6.2,12.38-9.46,25.5-11.25,38.99-.88,6.64-1.23,13.48-.44,20.41,1.23,10.71,2.89,21.15,6.58,31.35,3.46,9.55,8.24,18.26,13.71,26.64,3.09,4.73,6.62,9.12,10.53,13.19,6.57,6.83,13.62,13.01,21.68,18,7.6,4.7,15.5,8.68,23.88,11.65,9.33,3.31,19.08,4.49,28.79,5.89,4.05,.59,4.62,.06,4.62-4.2,0-36.78,0-73.55,0-110.33Zm621.32-53.02c-53.45,0-106.9,.03-160.35-.08-3.52,0-4.53,.97-4.49,4.59,.19,14.84,.08,29.68,.08,44.52q0,5.56,5.43,5.57c62.95,0,125.89,0,188.84,0,44.4,0,88.79-.02,133.19-.07,2.38,0,3.64-.87,3.6-3.95-.22-14.84-.1-29.68-.1-44.52q0-6.05-5.86-6.06c-53.45,0-106.9,0-160.35,0Zm.73-174.36c-53.69,0-107.38,.03-161.06-.08-3.51,0-4.55,.94-4.5,4.58,.19,15.09,.17,30.18,0,45.27-.04,3.32,.92,4.23,4.12,4.2,18.02-.15,36.04-.07,54.05-.07,89.48,0,178.96-.02,268.44,.07,3.5,0,4.55-.95,4.5-4.58-.19-14.84-.08-29.68-.08-44.52q0-4.86-4.78-4.87c-53.57,0-107.13,0-160.7,0Zm0,116.71c-53.69,0-107.38,.03-161.07-.08-3.51,0-4.55,.95-4.5,4.58,.19,15.09,.17,30.18,0,45.27-.04,3.31,.91,4.2,4.12,4.2,107.62-.08,215.24-.08,322.86,0,3.2,0,4.17-.86,4.13-4.18-.17-14.96-.07-29.93-.08-44.89q0-4.89-4.78-4.89c-53.57,0-107.13,0-160.7,0Zm0-4.46c53.69,0,107.38-.03,161.07,.08,3.51,0,4.54-.95,4.49-4.58-.19-15.21-.16-30.43-.03-45.64,.03-2.98-.86-3.85-3.74-3.82-13.39,.13-26.78,.06-40.17,.06-94.11,0-188.22,0-282.32,0q-4.76,0-4.77,4.89c0,14.72,0,29.43,0,44.15q0,4.87,4.78,4.87c53.57,0,107.13,0,160.7,0Zm-.05,174.38c53.55,0,107.1,0,160.65,0q4.88,0,4.88-5.15c0-14.59,0-29.17,0-43.76,0-4.98-.03-5-4.88-5-26.65,0-53.31,0-79.96,0-80.57,0-161.14,.02-241.71-.07-3.52,0-4.53,.98-4.49,4.59,.19,14.71,.08,29.42,.08,44.13q0,5.27,5.14,5.27c53.43,0,106.86,0,160.29,0Zm-.29,55.35c53.92,0,107.83-.03,161.75,.07,3.16,0,4.19-.8,4.15-4.16-.18-14.21-.17-28.43,0-42.64,.04-3.26-.83-4.24-4.08-4.24-107.71,.08-215.42,.08-323.13,0-3.09,0-3.91,1-3.88,4.05,.13,14.34,.23,28.68-.06,43.01-.07,3.47,.81,3.98,3.87,3.97,53.79-.09,107.59-.07,161.38-.07Zm169.49-591.19v28.42c0,15.46,0,30.91,0,46.37,0,1.83-.43,3.83,2.53,3.82,28.84-.04,57.68-.03,86.52-.02,1.55,0,2.2-.38,1.59-2.22-3.57-10.7-6.39-21.58-8.54-32.7-2.39-12.33-3.94-24.75-4.49-37.21-.5-11.4-.71-22.88,.47-34.33,1.22-11.84,2.79-23.62,5.2-35.25,1.48-7.13,3.69-14.09,5.34-21.18,.45-1.95,2.68-4.15,1.23-5.7-1.41-1.51-4.18-.5-6.34-.5-26.29-.04-52.57-.03-78.86-.01-1.86,0-3.97-.58-4.01,2.71-.07,6.96-.58,13.91-.61,20.87-.09,22.31-.03,44.63-.03,66.94Zm-163.67-5.2c0,26.55,.05,53.11-.07,79.66-.02,3.3,.89,4.23,4.11,4.21,23.36-.13,46.73-.13,70.1,0,3.2,.02,4.12-.89,4.11-4.2-.1-53.23-.1-106.46,0-159.69,0-3.67-1.18-4.7-4.63-4.63-22.97,.46-45.96-.66-68.93,.73-4.67,.28-4.69,.05-4.69,5.01,0,26.3,0,52.61,0,78.91Zm160-.02c0-26.68-.01-53.37,.02-80.05,0-2.6-.05-4.6-3.54-4.58-23.74,.1-47.47,.08-71.21,.03-2.5,0-3.37,.98-3.5,3.53-.22,4.27,.79,8.4,.79,12.65-.05,49.25,0,98.5-.11,147.75,0,3.64,1.01,4.6,4.51,4.58,22.88-.15,45.77-.15,68.65,0,3.54,.02,4.49-1,4.47-4.6-.14-26.43-.08-52.87-.08-79.3ZM4.38,42.9v5.46c0,152.35,0,304.7,0,457.05,0,.62,.06,1.25-.01,1.87-.29,2.51,.88,3.21,3.19,3.18,7.42-.1,14.85-.13,22.27,0,2.84,.05,3.48-1.37,2.86-3.7-.62-2.35-.51-4.69-.51-7.05,0-124.3,0-248.6-.02-372.9,0-5.35,1.13-10.64,.7-16.01-.22-2.75-.51-5.45-2.12-7.79-4.12-5.99-7.73-12.32-11.11-18.76-6.86-13.06-11.32-27.07-15.26-41.37Zm1300.89,472.1c-.59-.03-1.18-.09-1.77-.09-95.57,0-191.13,0-286.7-.07-3.04,0-3.65,1.12-3.63,3.92,.1,15.34,.12,30.68,0,46.02-.02,3.03,.75,4.09,3.86,4.08,48.33-.09,96.66-.06,144.99-.07,1.2,0,2.38,.07,3.49-.72,12.31-8.67,25.64-15.47,38.92-22.4,11.56-6.03,23.73-10.56,35.91-14.97,9.74-3.53,19.77-6.28,29.87-8.73,11.55-2.8,23.14-5.16,35.06-6.97ZM36.51,112.85c0,1.69,0,3.38,0,5.07,0,129.16,0,258.33,0,387.49,0,.62,.06,1.25,0,1.87-.27,2.5,.88,3.23,3.2,3.19,6.33-.11,12.68-.33,18.98,.08,3.65,.24,4.25-.87,4.24-4.37-.1-87.52-.08-175.04-.08-262.56,0-33.66,0-67.32-.01-100.99,0-1.97,.23-3.88-1.67-5.4-2.95-2.37-5.66-5.05-8.49-7.58-5.68-5.08-10.24-11.22-16.16-16.81ZM1290.83,688.51c-16.3,0-32.6,.08-48.9-.07-3.28-.03-4.26,1.31-3.53,4.18,.72,2.84,.56,5.68,.57,8.54,.02,26.92,.02,53.83,.03,80.75,0,6.27,.4,6.97,6.61,8.35,10.43,2.32,20.8,3.47,31.64,1.8,11.01-1.69,21.12-5.27,30.56-10.9,12.06-7.19,21.44-17.26,28.5-29.6,5.14-8.99,8.2-18.78,9.96-28.92,1.64-9.47,1.04-19.03-.58-28.53-.82-4.84-1.49-5.6-6.32-5.6-16.18,0-32.36,0-48.54,0ZM66.49,326.35c0,50.38,0,100.76,0,151.13,0,9.85,.05,19.7-.03,29.55-.02,2.23,.46,3.2,2.93,3.53,6.08,.81,12.07-.57,18.13-.2,5.27,.32,5.28,.07,5.28-5.42,0-113.85,0-227.7,0-341.55,0-.75-.05-1.5,0-2.24,.1-1.41-.48-2.28-1.7-2.98-7.83-4.5-15.4-9.43-22.59-14.96-1.36-1.05-1.96-.7-2.01,.95-.04,1.12-.02,2.24-.02,3.37,0,59.61,0,119.21,0,178.82Zm208.21,.32c0-58.97,0-117.95,0-176.92,0-1.12,.03-2.25-.02-3.37-.04-.82,.31-1.93-.77-2.25-.76-.23-1.23,.63-1.8,1.08-5.93,4.76-12.22,8.97-18.95,12.41-3.48,1.78-4.89,3.97-4.88,8.11,.11,113.08,.09,226.17,.09,339.25,0,.75,.07,1.5,0,2.24-.25,2.43,.77,3.29,3.15,3.24,5.84-.13,11.68-.04,17.53-.04q5.66,0,5.66-5.72c0-59.35,0-118.7,0-178.04Zm-29.99,10.5c0-30.04,0-60.09,0-90.13,0-26.68,0-53.36,0-80.04,0-4.25-.13-4.16-4.13-2.92-5.82,1.81-11.32,4.48-17.09,6.4-5.72,1.91-5.76,1.78-5.76,7.83,0,108.96,0,217.92,0,326.88,0,.75,.06,1.5-.01,2.24-.25,2.74,.92,3.79,3.6,3.74,5.96-.12,11.93-.03,17.89-.04,5.42,0,5.51-.1,5.51-5.66,0-56.1,0-112.2,0-168.3Zm-147.55-1.39c0,55.61,0,111.21,0,166.82,0,1.62,.1,3.25-.02,4.86-.17,2.31,.82,3.05,3,3.01,6.08-.1,12.17-.03,18.26-.04q5.06,0,5.06-5.33c0-109.71,0-219.43,0-329.14,0-.62-.05-1.25,0-1.87,.18-1.97-.75-2.94-2.58-3.4-7.53-1.92-14.72-4.84-21.73-8.21-1.63-.79-1.95-.19-1.97,1.25-.02,1.12-.02,2.24-.02,3.37,0,56.23,0,112.46,0,168.69Zm29.96,5.44c0,31.04,0,62.09,0,93.13,0,23.81,.1,47.63-.1,71.44-.03,3.94,1.14,4.9,4.74,4.71,5.58-.29,11.19-.07,16.79-.08q4.88,0,4.88-5.15c0-107.47,0-214.95,0-322.42,0-1.12-.02-2.24-.02-3.37,0-1.36-.62-2-1.98-2.11-6.9-.57-13.64-2.18-20.34-3.84-3.9-.97-4.03,.74-4.03,3.85,.06,54.61,.05,109.22,.04,163.83Zm86.93,1.18c0-38.79,0-77.57,0-116.36,0-16.21-.06-32.43,.05-48.64,.02-3.31-.79-4.06-4.02-3.18-5.85,1.59-11.84,2.96-17.88,3.02-3.93,.04-4.52,1.43-4.51,4.99,.09,93.04,.07,186.08,.07,279.12,0,15.09,.06,30.18-.06,45.27-.02,2.88,.7,3.99,3.68,3.88,5.96-.22,11.93-.06,17.9-.07q4.76,0,4.77-4.89c0-54.38,0-108.75,0-163.13Zm-29.96,2.25c0-54.11-.03-108.23,.07-162.34,0-3.25-.83-4.85-4.06-4.13-5.57,1.25-11.1,.1-16.66-.01-5.64-.11-5.65-.03-5.65,5.68,0,105.36,0,210.72,0,316.08,0,2.49,.1,4.99-.02,7.48-.11,2.28,.78,3.08,2.98,3.04,6.21-.1,12.42-.03,18.62-.03q4.72,0,4.73-4.92c0-53.62,0-107.23,0-160.85Zm1052.14,4.08c-26.04,0-52.08,0-78.12,0-4.75,0-9.49,.07-14.24-.02-2.85-.05-3.24,1.18-1.85,3.37,4.1,6.45,8.52,12.77,13.93,18.06,9.46,9.25,20,16.91,31.85,23.01,16.15,8.32,33.2,11.63,50.88,11.51,10.33-.07,20.57-2.1,30.57-5.53,15.78-5.41,30.01-13.31,42.05-25.06,6.57-6.41,13.03-13,17.68-21.13,2.39-4.18,2.38-4.2-2.23-4.2-30.18,0-60.35,0-90.53,0Zm-489.64-44.15c-21.05,0-42.1,.06-63.14-.07-2.86-.02-3.55,.68-3.42,3.66,.3,7.2,2.46,13.79,5.06,20.36,8.13,20.52,22.89,33.42,43.37,39.66,10.12,3.09,20.37,3.64,30.88,1.62,9.9-1.9,18.82-5.98,26.73-11.94,9.05-6.82,16.29-15.45,21.15-26.09,3.33-7.3,5.47-14.84,6.58-22.75,.45-3.23-.47-4.58-4.07-4.55-21.05,.18-42.09,.09-63.14,.09Zm.4-4.45c21.06,0,42.12-.03,63.17,.04,2.5,0,4-.39,3.65-3.44-1.22-10.61-4.18-20.63-9.62-29.79-5.45-9.17-12.61-16.6-21.47-22.36-17.06-11.08-35.25-13.78-54.68-8.12-14.46,4.21-25.71,13.09-34.83,25-7.75,10.12-11.96,21.74-13.11,34.56-.3,3.35,.9,4.21,4.09,4.19,20.94-.14,41.87-.07,62.81-.07Zm461.02-125c-1.21,0-2.42,0-3.63,0-30.91,0-61.82,.01-92.73,.02-.61,0-1.22,.04-1.82,0-1.61-.13-2.45,.71-2.93,2.19-8.39,25.61-12.81,51.95-13.24,78.94-.25,15.54,1.08,31.01,3.7,46.32,2.19,12.83,5.7,25.34,9.44,37.78,.88,2.92,2.39,4.19,5.56,3.99,4.73-.3,9.49-.08,14.23-.08q5.41,0,3.77-5.04c-.38-1.17-.63-2.41-1.11-3.54-4.75-11.13-7.73-22.8-8.48-34.87-1.11-17.86,.56-35.48,6.89-52.35,5.14-13.69,12.83-25.84,21.93-37.05,5.04-6.2,11.24-11.18,17.54-16.02,3.59-2.76,7.1-5.67,11.09-7.76,9.56-5,19.22-9.83,29.79-12.53Zm-51.29,398.4c-1.6-.16-2.31-.29-3.01-.29-45.51-.45-91.03,.88-136.53-.75-3.05-.11-4.02,1.06-4,4.13,.11,15.46,.14,30.93-.02,46.39-.04,3.33,.94,4.21,4.13,4.19,25.69-.12,51.38-.1,77.07-.02,2.4,0,4.11-.75,5.75-2.5,6.71-7.18,13.14-14.64,20.54-21.1,5.91-5.15,11.71-10.44,17.75-15.42,5.82-4.79,12.19-8.87,18.32-14.63Zm190.39-484.77c0-25.81-.06-51.61,.07-77.42,.02-3.64-1.14-4.69-4.62-4.68-9.23,.03-18.42,.43-27.61,1.45-2.81,.31-3.71,.95-3.71,3.9,.08,51.36,.08,102.73,0,154.09,0,3.29,1.19,3.92,4.05,3.87,9.13-.15,18.26-.21,27.38,.02,3.49,.09,4.54-.91,4.52-4.56-.15-25.56-.08-51.11-.08-76.67Zm-40.15,.56c0-15.2,0-30.4,0-45.61,0-10.47-.04-20.93,.02-31.4,.01-2.22-.33-3.74-3.01-3.17-9.36,1.99-18.75,3.81-28.05,6.03-2.25,.54-4.9,1-4.89,5.07,.17,48.85,.14,97.69,.05,146.54,0,3.23,1.09,3.95,4.01,3.91,9.22-.13,18.43-1.37,27.66-.72,3.39,.24,4.31-.96,4.29-4.39-.13-25.42-.07-50.84-.07-76.26Zm-39.49,4.19c0-23.92-.05-47.85,.06-71.77,.01-3.21-.72-3.69-3.7-2.74-9.16,2.92-17.94,6.8-26.7,10.7-2.56,1.14-6.28,1.65-6.26,6.55,.17,43.61,.12,87.22,.05,130.83,0,2.8,.87,3.64,3.56,3.6,9.12-.14,18.24-.05,27.37-.06,5.25,0,5.62-.38,5.62-5.72,0-23.8,0-47.6,0-71.39ZM343.29,378.95c-1.09,1.53-.67,2.94-.67,4.24-.03,40.89,.02,81.77-.1,122.66,0,3.5,.78,4.71,4.41,4.67,18.25-.19,36.5-.09,54.76-.08,19.1,0,38.21-.02,57.31,.03,2.17,0,4.33,.52,6.5,.64,2.04,.11,4.09,.02,6.37,.02-67.79-18.91-110.44-62.8-128.59-132.18Zm163.33-243.99c-.11-2.19-.32-4.38-.32-6.58-.03-39.29-.03-78.57-.05-117.86q0-5.25-5-5.26c-40.42,0-80.84,0-121.26,0-1.21,0-2.41,0-3.58,0,67.39,17.98,110.65,61.15,130.21,129.69Zm171.3-.44c17.92-66.1,58.78-108.9,122.85-129.25-1.57,0-2.85,0-4.13,0-17.53,0-35.05,0-52.58,0-21.06,0-42.11,0-63.17,0-1.61,0-3.1-.55-3.09,2.47,.15,40.89,.11,81.79,.11,122.68,0,1.36,0,2.73,0,4.09Zm330.96,252.58c-9.05,32.21-25.48,59.44-49.66,81.74-24.21,22.32-52.7,35.75-84.63,42,10.57-.23,21.01,0,31.45-.18,33.1-.57,66.22-.33,99.33-.05,3.6,.03,3.56-1.14,3.55-3.82-.06-32.17-.04-64.34-.04-96.51,0-7.72,0-15.45,0-23.17ZM886.51,5.27c29.95,8.94,56.33,24.09,78.14,47.19,21.76,23.04,36.37,50.19,43.95,81.96,.17-.96,.25-1.2,.25-1.44,.01-41.26,0-82.51,.07-123.77,0-3.24-1.29-4-4.16-3.98-17.4,.09-34.8,.04-52.2,.04-22.02,0-44.04,0-66.06,0Zm-212.95,378.11c-19.34,67.41-61.59,109.51-126.81,127.67,3.41-.12,6.79-.57,10.16-.58,37.49-.05,74.97-.08,112.46,.04,3.4,.01,4.28-1.02,4.27-4.43-.11-39.15-.07-78.3-.08-117.45,0-1.49,0-2.98,0-5.26Zm617.72,301.39c16.3,0,32.61-.07,48.91,.06,2.82,.02,3.19-1.17,2.28-3.26-4.46-10.24-9.68-20.02-17.48-28.07-8.08-8.33-17.11-15.12-27.9-19.59-9.12-3.78-18.46-6.59-28.16-6.53-9.12,.05-18.38,.46-27.2,4-2.71,1.09-3.46,2.19-3.53,4.95-.38,14.82,1.23,29.61,.69,44.42-.13,3.48,1.16,4.11,4.22,4.09,16.06-.13,32.12-.06,48.18-.07Zm-63.99-581.43c0-21.57,0-43.14,.01-64.71,0-2.32-.09-4.32-3.14-2.51-10.49,6.25-20.77,12.84-30.63,20.1-1.58,1.17-2.08,2.54-2.08,4.43,.03,35.54,.04,71.07-.02,106.61,0,2.58,.75,3.49,3.33,3.46,9.49-.13,18.99-.19,28.48,.02,3.2,.07,4.15-.85,4.12-4.18-.14-21.07-.07-42.14-.07-63.22Zm7.32,609.91c0-7.23-.06-14.47,.03-21.7,.03-2.26-.74-3.07-2.96-3.05-13.39,.07-26.78,.07-40.17,0-2.01,0-2.97,.74-3.75,2.67-1.43,3.54-1.67,7.31-1.97,10.95-1.88,22.8,4.24,43.32,18.39,60.95,7.28,9.07,16.33,16.31,26.71,21.59,4.43,2.26,4.39,2.26,4.45-2.65,.27-22.93-.35-45.84-.72-68.76Zm-140.13-82.07c-.6-.12-.92-.24-1.24-.24-25.68-.01-51.37,.02-77.05-.06-3,0-3.7,1.31-3.68,4.07,.09,13.09,.06,26.18,.02,39.28,0,2.61,1.38,5.16,.48,7.75-1.1,3.16,.4,3.66,2.99,3.56,10.68-.4,21.36,.08,32.06-.5,6.33-.34,10.02-1.77,13.45-7.74,9.41-16.4,20.5-31.68,32.97-46.13Zm92.65-514.37c0-16.94,0-33.88-.02-50.82,0-1.09,.49-2.51-.44-3.18-1.22-.88-1.89,.69-2.65,1.3-10.11,8.17-19.33,17.31-27.73,27.27-2.09,2.48-5.07,4.57-5.04,8.72,.13,22.42,.1,44.84,.01,67.26-.01,2.7,.97,3.38,3.42,3.35,9.48-.11,18.97-.18,28.45,.04,3.28,.08,4.1-1.01,4.07-4.25-.15-16.56-.07-33.13-.07-49.7ZM338.23,762.18c-10.5,47.79-38.04,79.55-83.39,94.59-.19-.07,.02,.07,.23,.07,26.77,.02,53.55,.02,80.32,.09,2.31,0,2.88-.98,2.87-3.14-.04-30.54-.03-61.07-.03-91.61Zm1008.89-505.76c0-26.18-.04-52.36,.05-78.55,0-2.91-1.06-3.57-3.66-3.52-7.54,.14-15.09,.04-22.64,.06-3.16,0-6.35-.16-9.48,.18-10.2,1.1-20.41,.4-30.61,.39-5.77,0-11.56,.45-17.32-.41-.18-.03-.43,.45-.61,.65,42.06,11.92,69.68,39.32,84.27,81.2Zm-313.05,432.84c-5.59,0-11.19,0-16.78,0-4.37,.01-4.72,.37-4.76,4.94-.06,7.96,1,15.87,.74,23.85-.24,7.47,.03,14.95-.1,22.42-.04,2.59,.76,3.57,3.34,3.45,3.88-.18,7.78-.1,11.67-.03,1.72,.03,2.89-.58,3.16-2.34,.77-4.98,3.12-9.39,4.92-13.95,4.82-12.19,10.39-24.03,16.79-35.44,1.41-2.51,.45-2.94-1.85-2.91-5.72,.07-11.43,.02-17.15,.02Zm200.52-29.19c0-7.36,.02-14.72,0-22.07-.02-3.76-.47-4.01-3.74-2.08-3.05,1.79-6.13,3.53-9.06,5.5-8.91,5.99-16.47,13.32-22.29,22.61-3.59,5.73-6.77,11.59-9.17,17.91-.75,1.97-.57,2.88,1.88,2.87,13.15-.09,26.3-.1,39.45,0,2.55,.02,3.03-1.14,3-3.4-.09-7.11-.03-14.22-.04-21.33Zm-88.51-556.63c-3.46,4.85-7.01,9.45-10.15,14.33-6.06,9.44-11.68,19.18-16.52,29.35-2.77,5.81-5.42,11.68-7.85,17.64-1.73,4.26-.47,5.91,3.99,5.91,9.13,0,18.27-.15,27.39,.07,3.26,.08,4.11-.98,4.09-4.24-.14-19.7-.06-39.41-.09-59.11,0-1.18,.42-2.48-.86-3.95Zm-133.54,671.12c0,8.09,0,16.18,0,24.27,0,1.29,0,2.59,1.77,2.63,1.76,.04,1.65-1.27,1.9-2.53,1.47-7.51,2.75-15.07,4.65-22.46,2.12-8.24,4.08-16.54,6.87-24.61,1.39-4.01,1.09-4.22-2.95-4.24-2.55-.02-5.12,.17-7.65-.05-3.43-.3-4.78,.9-4.66,4.6,.23,7.46,.07,14.93,.08,22.4Zm334.56-450.35l-1.04-.28c-.73,6.16-4.14,11.22-5.85,16.99-.29,.98-1.8,2.11-.55,2.9,1.8,1.13,4.02,.47,6.06,.37,1.27-.07,1.37-1.21,1.37-2.24,0-5.91,0-11.81,0-17.72Zm-334.56,497.95c.14,0,.28-.01,.42-.02,.72-4.7,1.43-9.41,2.17-14.11,.18-1.12,.58-2.41-1.02-2.59-1.58-.18-1.57,1.18-1.57,2.31-.02,4.8,0,9.61,0,14.41Zm-674.41-98.73l-.24-.56c-.09,.17-.21,.32-.27,.5-.03,.08,.06,.2,.1,.3l.41-.24Z"/><g class="cls-5"><path class="cls-1" d="M171.46,5.27c54.06,0,108.11,0,162.17,0,5.65,0,5.41,.13,4.88,5.98-.54,5.93-1.01,11.86-1.6,17.79-.57,5.71-2.31,11.09-3.54,16.59-3.15,14.06-8.7,27.27-15.4,39.9-4.7,8.86-10.2,17.22-16.36,25.16-6.61,8.52-13.84,16.45-22.01,23.26-12.51,10.42-25.85,19.67-40.91,26.01-9.05,3.81-18.23,6.97-27.73,9.47-16.12,4.25-32.45,5.61-48.93,4.87-12.6-.57-25.01-3.01-37.14-6.64-10.37-3.1-20.49-7.08-29.97-12.25-11.41-6.23-22.22-13.54-32.06-22.32-11.39-10.17-21.48-21.58-29.92-34.25-5.38-8.07-10.06-16.78-13.61-26.11-2.26-5.95-4.88-11.78-6.88-17.88-2.51-7.65-4.39-15.48-5.72-23.4-1.21-7.2-1.53-14.55-2.36-21.82-.39-3.41,.79-4.44,4.21-4.43,54.3,.11,108.6,.08,162.9,.08Z"/><path class="cls-1" d="M338.12,719.75c-7.25-31.13-22.62-56.72-48.45-75.15-22.91-16.35-48.52-23.22-76.24-20.95-27.28,2.24-50.95,13.4-70.66,32.84-19.58,19.31-31.41,42.85-34.61,70.61-7.42,64.37,32.39,114.19,84.02,129.79-2.13,0-3.29,0-4.45,0-59.16,0-118.32,0-177.49,0-5.12,0-5.35-.02-5.08-5.26,.71-13.5,1.6-26.97,3.34-40.4,1.86-14.31,4.71-28.39,8.45-42.25,4.68-17.37,10.61-34.32,17.94-50.74,5.86-13.12,12.25-25.98,19.57-38.25,7.62-12.78,16.28-24.88,25.61-36.51,6.01-7.49,12-15.03,18.78-21.68,10.32-10.13,19.82-21.12,31.53-29.82,9.56-7.11,18.85-14.61,28.76-21.22,7.7-5.14,15.68-9.79,23.74-14.34,8.93-5.04,18.13-9.41,27.5-13.42,12.85-5.49,25.96-10.21,39.39-14.12,7.09-2.07,14.26-3.68,21.4-5.34,12.61-2.94,25.43-4.67,38.34-5.74,8.47-.7,16.91-1.47,25.42-1.48,2.56,0,3.34,.85,3.34,3.45-.06,66.21-.05,132.43-.05,198.64,0,.45-.07,.89-.1,1.34Z"/><path class="cls-1" d="M1346.37,739.66c1.11,1.45,.73,2.6,.73,3.65,.03,36.29-.01,72.58,.09,108.86,0,3.49-.88,4.79-4.5,4.79-107.61-.08-215.23-.08-322.84,0-3.65,0-4.55-1.35-4.47-4.82,.33-14.04,1.48-27.95,3.4-41.88,1.86-13.53,4.52-26.85,7.85-40.02,2.96-11.73,6.9-23.19,11.15-34.54,3.86-10.31,8.38-20.27,13.16-30.12,2.42-4.99,4.18-10.31,7.5-14.85,1.06-1.45,1.93-2.25,3.75-2.25,39.44,.04,78.88,.04,118.33,.01,2.42,0,3.15,.64,2.6,3.32-3.59,17.5-1.8,34.64,4.26,51.26,2.45,6.72,6.28,12.8,10.3,18.75,2.58,3.82,5.54,7.18,8.74,10.38,9.88,9.88,21.33,17.07,34.65,21.06,18.72,5.61,37.2,5.38,55.56-1.77,16.31-6.35,29.41-16.64,39.44-31.38,4.28-6.29,7.25-13.1,10.31-20.45Z"/><path class="cls-1" d="M1236.21,344.3c-31.28,0-62.56-.05-93.84,.07-3.29,.01-5.03-1.14-6.44-4.1-6.2-13.07-9.95-26.67-11.15-41.26-.91-11.07-.25-21.98,2.07-32.55,3.18-14.52,8.71-28.23,17.36-40.58,8.46-12.08,18.55-22.33,30.44-30.63,6.36-4.43,13.42-7.68,20.62-10.77,15.84-6.8,32.27-8.78,49.07-7.68,10.22,.67,20.23,2.92,30,6.75,9.18,3.59,17.53,8.47,25.67,13.86,8.44,5.59,15.43,12.97,21.86,20.71,7.87,9.48,13.77,20.35,18.04,32.06,6.11,16.76,8.37,33.97,6.69,51.88-1.17,12.41-5.26,23.88-9.16,35.46-.69,2.05-2.39,3.64-3.05,5.87-.48,1.6-2.34,.89-3.59,.89-26.53,.04-53.07,.03-79.6,.03-4.99,0-9.98,0-14.97,0Z"/><path class="cls-1" d="M590.28,172.16c0,53.99,0,107.99,0,161.98q0,4.92-4.74,4.93c-23.37,0-46.75-.06-70.12,.07-3.19,.02-4.19-.85-4.14-4.19,.18-12.97,.18-25.94,.05-38.9-.91-91.25-.68-182.51-.76-273.76,0-4.46-.86-8.89-.71-13.4,.08-2.45,.74-3.66,3.35-3.65,24.71,.05,49.42,.06,74.13-.01,2.61,0,2.96,1.25,2.95,3.45-.06,11.47-.03,22.94-.03,34.42,0,43.02,0,86.04,0,129.06Z"/><path class="cls-1" d="M1292.85,5.9c-6.09,1.45-12.23,2.71-18.27,4.37-20.12,5.53-39.13,13.94-57.29,24.24-11.55,6.55-22.55,14.13-32.8,22.72-11.72,9.82-23.09,20.09-32.79,32.03-10.38,12.77-20.14,26.02-28.08,40.64-6.52,12.02-12.85,24.07-17.11,37.17-.76,2.33-2.31,3.59-5.18,3.71-27.97,1.14-55.94,.35-83.91,.7-3.4,.04-4.28-1-4.28-4.41,.1-52.49,.09-104.98,.02-157.47,0-3.03,.45-4.4,3.92-4.4,91.41,.1,182.82,.08,274.23,.08,.48,0,.96,0,1.44,0l.09,.62Z"/><path class="cls-1" d="M673.57,803.59c-12.84-74.87-45.16-139.36-98.12-192.6-52.85-53.14-116.45-84.45-189.55-96.08,1.17,0,2.33,0,3.5,0,93.12,0,186.24,0,279.36,0q4.82,0,4.82,4.82c0,93.14,0,186.29,0,279.43,0,1.48,0,2.96,0,4.44Z"/><path class="cls-1" d="M842.67,689.26c53.45,0,106.9,0,160.35,0q5.86,0,5.86,6.06c0,14.84-.12,29.68,.1,44.52,.05,3.08-1.22,3.95-3.6,3.95-44.4,.05-88.79,.07-133.19,.07-62.95,0-125.89,0-188.84,0q-5.42,0-5.43-5.57c0-14.84,.11-29.68-.08-44.52-.05-3.62,.96-4.6,4.49-4.59,53.45,.11,106.9,.08,160.35,.08Z"/><path class="cls-1" d="M244.71,337.18c0,56.1,0,112.2,0,168.3,0,5.56-.09,5.65-5.51,5.66-5.96,0-11.93-.08-17.89,.04-2.69,.06-3.85-1-3.6-3.74,.07-.74,.01-1.5,.01-2.24,0-108.96,0-217.92,0-326.88,0-6.04,.04-5.92,5.76-7.83,5.76-1.92,11.27-4.59,17.09-6.4,4-1.25,4.13-1.34,4.13,2.92,.01,26.68,0,53.36,0,80.04,0,30.04,0,60.09,0,90.13Z"/><path class="cls-1" d="M746.59,304.59c21.05,0,42.1,.09,63.14-.09,3.59-.03,4.52,1.32,4.07,4.55-1.11,7.91-3.25,15.46-6.58,22.75-4.86,10.64-12.1,19.28-21.15,26.09-7.91,5.96-16.83,10.04-26.73,11.94-10.52,2.02-20.77,1.46-30.88-1.62-20.48-6.24-35.24-19.14-43.37-39.66-2.6-6.57-4.76-13.16-5.06-20.36-.13-2.99,.57-3.68,3.42-3.66,21.05,.12,42.1,.07,63.14,.07Z"/></g><g class="cls-4"><path class="cls-3" d="M843.38,171.43c-53.32,0-106.64,0-159.95,0-4.79,0-4.93-.02-4.76-4.87,.57-15.83,3.44-31.16,8.2-46.29,3.53-11.22,8.59-21.62,13.96-31.87,4.34-8.29,10.09-15.75,15.95-23.05,10.98-13.67,24.02-25.05,38.43-34.61,15.03-9.97,31.48-16.92,48.87-21.53,18.24-4.83,36.85-4.58,55.37-3.73,14.42,.67,28.5,4.3,41.98,9.72,13.45,5.41,26.37,12,38.08,20.79,14.65,11,27.75,23.7,38.14,38.98,5.3,7.79,10.13,15.92,14.13,24.64,3.35,7.31,6.69,14.58,8.92,22.28,2.1,7.22,4.03,14.5,5.44,21.94,1.37,7.22,1.43,14.54,2.6,21.74,.81,4.99,.07,5.83-5.03,5.83-53.44,0-106.88,0-160.32,0v.02Z"/><path class="cls-3" d="M1288.07,509.83c-3.02,1.72-5.17,.53-7.24,.53-87.15,.08-174.3,.08-261.45,.07-6.98,0-6.14,.78-6.15-6.46-.02-50.12,0-100.25,0-150.37,0-4.84,.02-4.85,4.81-4.85,27.75,0,55.5,.04,83.26-.05,2.85,0,4.37,.48,5.54,3.64,7.05,19.04,16.69,36.66,27.93,53.49,11.05,16.54,23.87,31.47,38.39,44.66,14.77,13.41,30.95,25.02,48.45,34.65,9.2,5.06,18.58,9.85,28.26,13.56,12.08,4.62,24.35,9.13,38.2,11.13Z"/><path class="cls-3" d="M424.48,173.67c-25.8,0-51.6-.06-77.4,.08-3.43,.02-4.56-.82-4.55-4.52,.12-52.98,.12-105.96,.01-158.94,0-3.54,1.07-4.59,4.35-4.29,11.71,1.09,23.4,2.3,34.77,5.5,12.13,3.42,23.9,7.74,35.04,13.96,7.45,4.16,14.84,8.36,21.66,13.51,11.67,8.81,22.12,18.96,31.28,30.48,5.2,6.54,10.17,13.33,14.09,20.7,5.31,9.97,10.09,20.24,13.74,31.06,3.09,9.15,5.21,18.52,7.02,27.93,1.37,7.13,1.2,14.57,1.75,21.86,.2,2.63-1.43,2.68-3.29,2.67-10.1-.03-20.2-.01-30.3-.01-16.06,0-32.13,0-48.19,0Z"/><path class="cls-3" d="M928.86,348.74c25.19,0,50.38,.07,75.56-.07,3.46-.02,4.77,.85,4.5,4.55-.86,12-2.28,23.8-5.59,35.47-3.4,12-7.84,23.45-13.59,34.39-9.38,17.85-22.22,32.78-37.13,45.99-7.62,6.75-15.84,12.68-24.53,17.72-6.88,3.99-14.17,7.38-21.65,10.29-6.47,2.51-13.06,4.46-19.71,6.29-11.74,3.24-23.71,4.78-35.86,4.9-1.4,.01-2.08-.17-1.97-1.71,.05-.74,0-1.5,0-2.24,0-50.36,.03-100.71-.08-151.07,0-3.62,.98-4.61,4.48-4.59,25.19,.15,50.38,.08,75.56,.08Z"/><text/><path class="cls-3" d="M4.38,42.9c3.94,14.3,8.39,28.31,15.26,41.37,3.38,6.44,6.99,12.76,11.11,18.76,1.61,2.34,1.9,5.04,2.12,7.79,.42,5.37-.7,10.66-.7,16.01,.02,124.3,.01,248.6,.02,372.9,0,2.36-.11,4.7,.51,7.05,.62,2.33-.02,3.75-2.86,3.7-7.42-.14-14.85-.11-22.27,0-2.31,.03-3.48-.67-3.19-3.18,.07-.61,.01-1.25,.01-1.87,0-152.35,0-304.7,0-457.05v-5.46Z"/><path class="cls-3" d="M1347.1,88.78c0,25.56-.07,51.12,.08,76.67,.02,3.65-1.03,4.66-4.52,4.56-9.12-.24-18.26-.17-27.38-.02-2.86,.05-4.06-.58-4.05-3.87,.09-51.36,.09-102.73,0-154.09,0-2.94,.9-3.59,3.71-3.9,9.19-1.02,18.38-1.42,27.61-1.45,3.47-.01,4.63,1.05,4.62,4.68-.13,25.81-.07,51.61-.07,77.42Z"/><path class="cls-3" d="M1012.54,774.56c0-7.47,.16-14.94-.07-22.4-.12-3.69,1.23-4.9,4.66-4.6,2.53,.22,5.1,.03,7.65,.05,4.04,.03,4.34,.24,2.95,4.24-2.79,8.06-4.75,16.36-6.87,24.61-1.9,7.39-3.18,14.95-4.65,22.46-.25,1.27-.14,2.57-1.9,2.53-1.77-.04-1.77-1.34-1.77-2.63,0-8.09,0-16.18,0-24.27Z"/></g></g></g></svg>