
        <svg id="menu-open" xmlns="http://www.w3.org/2000/svg" width="35.29" height="35.5" viewBox="0 0 35.29 35.5">
                        <defs>
                            <style>
                                .cls-1 {
                                    fill: #fff;
                                }
                            </style>
                        </defs>
                        <g>
                            <g>
                                <g id="line-1">
                                    <path class="cls-1" d="M35.29,.25V4.25c0,.13-.1,.25-.21,.25H.21c-.11,0-.21-.12-.21-.25V.25c0-.14,.1-.25,.21-.25H35.08c.11,0,.21,.11,.21,.25Z" />
                                </g>
                                <g id="line-2">
                                    <path class="cls-1" d="M35.29,15.75v4c0,.13-.08,.25-.16,.25H8.16c-.08,0-.16-.12-.16-.25v-4c0-.14,.08-.25,.16-.25h26.97c.08,0,.16,.11,.16,.25Z" />
                                </g>
                                <g id="line-3">
                                    <path class="cls-1" d="M35.29,31.25v4c0,.13-.1,.25-.21,.25H.21c-.11,0-.21-.12-.21-.25v-4c0-.14,.1-.25,.21-.25H35.08c.11,0,.21,.11,.21,.25Z" />
                                </g>
                            </g>
                        </g>
                    </svg>