<?xml version="1.0" encoding="UTF-8"?><svg id="Layer_2" xmlns="http://www.w3.org/2000/svg" width="488.09" height="138.53" viewBox="0 0 488.09 138.53"><defs><style>.cls-1{fill:#265e5d;stroke:#265e5d;stroke-miterlimit:10;stroke-width:2px;}</style></defs><g id="Layer_1-2"><path id="B" class="cls-1" d="M1,19.84H41.79c12.83,0,20.24,7.04,20.24,17.81,0,6.41-2.68,13.95-11.08,16.56,9.34,4.73,14.45,13.45,14.45,25.22,0,20.11-13.76,31.7-35.18,31.7H1V19.84Zm16.75,27.34h22.73c6.29,0,9.96-3.55,9.96-8.72s-3.67-8.78-9.96-8.78H17.75c-3.18,0-5.17,1.81-5.17,4.55v8.35c0,2.74,1.99,4.61,5.17,4.61Zm0,54.12h10.77c15.38,0,25.22-8.34,25.22-22.23s-9.84-22.04-25.22-22.04h-10.4c-3.3,0-5.54,2.24-5.54,5.6v34.13c0,2.62,2.05,4.55,5.17,4.55Z"/><path id="N" class="cls-1" d="M138.77,19.84l33.81,19.62c3.8,2.24,6.54,.44,6.54-3.92v-15.69h11.64V105.31c0,3.22-2.61,5.82-5.82,5.82h0c-3.22,0-5.82-2.61-5.82-5.82V60.07c0-2.99-1.18-4.98-3.8-6.54l-29.89-17.38c-3.8-2.18-6.54-.44-6.54,3.92V118.23c0,12.14-7.35,19.3-20.18,19.3h-1.24l-.13-9.84h1.31c5.36,0,8.66-3.74,8.66-9.71V19.84h11.46Z"/><path id="J" class="cls-1" d="M154.06,102.71l11.52,.06c0,12.83,8.03,21.42,19.8,21.42s19.93-8.59,19.93-21.42V41.93h11.52v60.78c0,19.06-12.58,31.7-31.45,31.7s-31.32-12.64-31.32-31.7Z"/><path id="UR" class="cls-1" d="M288.68,80.18V19.84h11.58v60.47c0,13.08,8.28,21.8,20.42,21.8s20.43-8.72,20.43-21.8V19.84h47.26c11.46,0,19.37,7.66,19.37,18.74s-7.91,18.87-19.37,18.87h-12.45c-2.18,0-3.18,1-3.18,2.3,0,.68,.37,1.43,.93,2.24l32.44,49.13h-13.39l-33.25-50.81c-.68-1-1.81-2.93-3.86-2.93-2.49,0-2.93,1.93-2.93,3.49v19.3c0,19.3-12.89,32.13-32.01,32.13s-32.01-12.83-32.01-32.13Zm69.75-32.57h27.77c6.16,0,9.96-3.49,9.96-9.03s-3.8-8.91-9.96-8.91h-27.77c-3.55,0-5.73,1.37-5.73,4.92v7.85c0,3.74,2.24,5.17,5.73,5.17Z"/><path id="_" class="cls-1" d="M425.96,66.8c2.4-3.34,7.2-4.03,10.63-1.56s4.2,7.17,1.8,10.5c-2.55,3.54-7.35,4.15-10.64,1.78s-4.34-7.19-1.8-10.73ZM486.69,5.85l-39.98,54.62-8.95-6.44L473.57,3.37c1.8-2.54,5.32-3.13,7.84-1.31l5.28,3.8Z"/><g id="_-2"><path class="cls-1" d="M327.65,50.16c.07,2.35-5.2,20.59-5.76,23.26h-6.89c1.09-5.22,5.46-14.27-.17-18.25-8.25-10.63,11.69-18.25,12.81-5.01Z"/><path class="cls-1" d="M327.58,27.24c0,4.02-3.26,7.34-7.21,7.34-4.21,0-7.47-3.33-7.47-7.34s3.26-7.4,7.47-7.4c3.95,0,7.21,3.24,7.21,7.4Z"/></g><path id="o" class="cls-1" d="M228.5,55.19c-7.25-10.04-4.69-22.2,6.44-30.23,11.03-7.96,23.32-6.52,30.57,3.53l10.31,14.29c7.25,10.04,4.74,22.16-6.29,30.12-11.13,8.03-23.48,6.63-30.72-3.41l-10.31-14.29Zm35.58,10.14c5.95-4.3,7.01-11.12,2.79-16.97l-9.41-13.04c-4.26-5.9-11.03-7-16.98-2.7-6,4.33-7.24,11.13-2.95,17.08l9.41,13.04c4.3,5.95,11.13,6.92,17.14,2.59Z"/><path id="o-2" class="cls-1" d="M71.71,40.58c0-12.38,9.19-20.75,22.92-20.75s22.72,8.36,22.72,20.75v17.62c0,12.38-9.13,20.75-22.72,20.75s-22.92-8.36-22.92-20.75v-17.62Zm22.92,29.04c7.34,0,12.19-4.92,12.19-12.13v-16.09c0-7.28-4.85-12.13-12.19-12.13s-12.38,4.79-12.38,12.13v16.09c0,7.34,4.98,12.13,12.38,12.13Zm0,21.17c4.21,0,7.79,3.45,7.79,7.66,0,4.47-3.57,7.85-7.79,7.85s-7.92-3.38-7.92-7.85c0-4.21,3.57-7.66,7.92-7.66Z"/></g></svg>