<?xml version="1.0" encoding="UTF-8"?><svg id="Layer_2" xmlns="http://www.w3.org/2000/svg" width="354.19" height="100.27" viewBox="0 0 354.19 100.27"><defs><style>.cls-1{fill:#265e5d;stroke:#265e5d;stroke-miterlimit:10;stroke-width:2px;}</style></defs><g id="Layer_1-2"><path id="B" class="cls-1" d="M1,14.03H30.54c9.29,0,14.66,5.1,14.66,12.9,0,4.65-1.94,10.1-8.03,12,6.77,3.43,10.46,9.74,10.46,18.27,0,14.57-9.97,22.96-25.48,22.96H1V14.03Zm12.13,19.8H29.6c4.56,0,7.22-2.57,7.22-6.31s-2.66-6.36-7.22-6.36H13.13c-2.3,0-3.74,1.31-3.74,3.29v6.04c0,1.98,1.44,3.34,3.74,3.34Zm0,39.2h7.8c11.14,0,18.27-6.04,18.27-16.1s-7.13-15.97-18.27-15.97h-7.53c-2.39,0-4.01,1.62-4.01,4.06v24.72c0,1.89,1.49,3.29,3.74,3.29Z"/><path id="N" class="cls-1" d="M100.79,14.03l24.49,14.21c2.75,1.62,4.74,.32,4.74-2.84V14.03h8.43v61.91c0,2.33-1.89,4.22-4.22,4.22h0c-2.33,0-4.22-1.89-4.22-4.22V43.16c0-2.17-.86-3.61-2.75-4.74l-21.65-12.58c-2.75-1.58-4.74-.32-4.74,2.84v56.61c0,8.8-5.32,13.98-14.61,13.98h-.9l-.09-7.13h.95c3.88,0,6.27-2.71,6.27-7.04V14.03h8.3Z"/><path id="J" class="cls-1" d="M111.86,74.05l8.34,.04c0,9.29,5.82,15.52,14.34,15.52s14.43-6.22,14.43-15.52V30.03h8.34v44.02c0,13.8-9.11,22.96-22.78,22.96s-22.69-9.16-22.69-22.96Z"/><path id="UR" class="cls-1" d="M209.37,57.73V14.03h8.39V57.82c0,9.47,6,15.79,14.79,15.79s14.79-6.31,14.79-15.79V14.03h34.23c8.3,0,14.03,5.55,14.03,13.58s-5.73,13.67-14.03,13.67h-9.02c-1.58,0-2.3,.72-2.3,1.67,0,.5,.27,1.04,.68,1.62l23.5,35.59h-9.7l-24.09-36.81c-.5-.72-1.31-2.12-2.8-2.12-1.8,0-2.12,1.4-2.12,2.53v13.98c0,13.98-9.34,23.27-23.18,23.27s-23.18-9.29-23.18-23.27Zm50.52-23.59h20.12c4.46,0,7.22-2.53,7.22-6.54s-2.75-6.45-7.22-6.45h-20.12c-2.57,0-4.15,.99-4.15,3.56v5.68c0,2.71,1.62,3.74,4.15,3.74Z"/><path id="_" class="cls-1" d="M308.81,48.04c1.74-2.42,5.21-2.92,7.7-1.13s3.04,5.19,1.31,7.61c-1.84,2.56-5.33,3-7.71,1.29s-3.14-5.21-1.3-7.77ZM352.79,3.89l-28.96,39.56-6.48-4.66L342.39,3.37c1.8-2.54,5.32-3.13,7.84-1.31l2.56,1.84Z"/><g id="_-2"><path class="cls-1" d="M237.59,35.99c.05,1.7-3.77,14.91-4.17,16.85h-4.99c.79-3.78,3.95-10.33-.12-13.22-5.98-7.7,8.47-13.22,9.28-3.63Z"/><path class="cls-1" d="M237.55,19.39c0,2.91-2.36,5.32-5.22,5.32-3.05,0-5.41-2.41-5.41-5.32s2.36-5.36,5.41-5.36c2.86,0,5.22,2.35,5.22,5.36Z"/></g><path id="o" class="cls-1" d="M165.78,39.63c-5.25-7.27-3.39-16.08,4.67-21.9s16.89-4.72,22.14,2.55l7.47,10.35c5.25,7.27,3.43,16.05-4.55,21.82-8.06,5.82-17,4.8-22.25-2.47l-7.47-10.35Zm25.77,7.35c4.31-3.11,5.08-8.05,2.02-12.29l-6.82-9.45c-3.08-4.27-7.99-5.07-12.3-1.96s-5.24,8.06-2.13,12.37l6.82,9.45c3.11,4.31,8.06,5.01,12.41,1.88Z"/><path id="o-2" class="cls-1" d="M52.22,29.05c0-8.97,6.66-15.03,16.6-15.03s16.46,6.06,16.46,15.03v12.76c0,8.97-6.61,15.03-16.46,15.03s-16.6-6.06-16.6-15.03v-12.76Zm16.6,21.04c5.32,0,8.83-3.56,8.83-8.78v-11.65c0-5.27-3.51-8.78-8.83-8.78s-8.97,3.47-8.97,8.78v11.65c0,5.32,3.61,8.78,8.97,8.78Zm0,15.33c3.05,0,5.64,2.5,5.64,5.55,0,3.24-2.59,5.69-5.64,5.69s-5.73-2.45-5.73-5.69c0-3.05,2.59-5.55,5.73-5.55Z"/></g></svg>