<?xml version="1.0" encoding="UTF-8"?><svg id="Layer_2" xmlns="http://www.w3.org/2000/svg" width="241.14" height="102.85" viewBox="0 0 241.14 102.85"><defs><style>.cls-1{fill:#f9f3dc;}</style></defs><g id="handwriting"><g id="Click_me"><path class="cls-1" d="M120.52,35.33c-.48-.19-.97-.4-1.46-.62-.5-.22-.96-.55-1.39-.98s-.81-1.03-1.13-1.8c-.32-.93-.54-1.84-.65-2.74-.11-.9-.15-1.94-.12-3.12,0-1.66,.12-3.11,.36-4.34,.24-1.23,.62-2.49,1.13-3.77,.06-.1,.18-.38,.36-.84,.18-.46,.38-.97,.62-1.51,.24-.54,.42-.96,.55-1.25,.26-.54,.65-1.27,1.18-2.18,.53-.91,1.1-1.8,1.7-2.66,.93-1.38,1.7-2.46,2.3-3.26,.61-.8,1.18-1.47,1.73-2.02,.54-.54,1.16-1.06,1.85-1.56,.69-.5,1.58-1.11,2.66-1.85,.7-.51,1.48-.78,2.33-.82,.85-.03,1.64,.15,2.38,.55,.74,.4,1.28,.98,1.63,1.75,.35,.67,.53,1.48,.53,2.42s-.14,1.94-.43,2.98c-.29,1.04-.69,2.02-1.2,2.95-.51,.93-1.11,1.7-1.78,2.3-.42,.38-.79,.53-1.13,.43s-.73-.35-1.18-.77c-.29-.54-.44-.86-.46-.96-.02-.1,.04-.16,.17-.19,.19-.22,.45-.61,.77-1.15,.32-.54,.64-1.13,.96-1.75,.32-.62,.54-1.13,.67-1.51,.26-1.34,.43-2.3,.53-2.86,.1-.56,0-.98-.29-1.27-.13-.13-.31-.18-.55-.14-.24,.03-.63,.19-1.18,.48-.74,.32-1.7,1.03-2.88,2.14-1.19,1.1-2.27,2.33-3.27,3.67-1.28,1.7-2.35,3.2-3.22,4.51-.86,1.31-1.52,2.66-1.97,4.03-.06,.13-.24,.54-.53,1.25,.03,.13-.02,.44-.14,.94-.13,.5-.27,.92-.43,1.27-.35,1.47-.56,3-.62,4.58-.06,1.58,.02,2.98,.26,4.2,.24,1.22,.6,2.06,1.08,2.54,.42,.29,.98,.38,1.7,.29,.72-.1,1.54-.32,2.47-.67,.93-.35,1.87-.74,2.83-1.15,.77-.32,1.47-.67,2.11-1.06s1.12-.72,1.44-1.01c.26-.19,.58-.39,.98-.6,.4-.21,.74-.31,1.03-.31,.45-.16,.7-.22,.77-.19,.06,.03,.1,.18,.1,.43,0,.45-.25,.94-.74,1.49-.5,.54-1.13,1.04-1.9,1.49-.26,.26-.59,.53-1.01,.82-.42,.29-.85,.51-1.29,.67-.67,.51-1.51,1.01-2.5,1.49-.99,.48-1.99,.85-3,1.1-1.01,.26-1.93,.3-2.76,.14Z"/><path class="cls-1" d="M139.38,32.64c-.61,.16-1.1,.03-1.46-.38-.37-.42-.58-1.06-.65-1.92-.06-.86,.03-1.89,.29-3.07,.16-.38,.29-.76,.38-1.13,.1-.37,.14-.66,.14-.89,.06-.32,.19-.79,.38-1.42,.19-.62,.4-1.27,.62-1.94,.22-.67,.44-1.27,.65-1.8,.21-.53,.34-.86,.41-.98,.13,0,.24-.11,.34-.34,.1-.22,.14-.45,.14-.67,0-.26,.06-.54,.17-.86,.11-.32,.23-.54,.36-.67,0-.16,.04-.34,.12-.55,.08-.21,.12-.38,.12-.5s.04-.26,.12-.38c.08-.13,.12-.26,.12-.38,.22-.42,.52-1.08,.89-1.99s.77-1.93,1.2-3.05,.84-2.22,1.22-3.31c.38-1.09,.7-2.01,.94-2.76,.24-.75,.36-1.21,.36-1.37,0-.26,.06-.45,.19-.58,.13-.13,.32-.19,.58-.19,.1-.1,.22-.16,.36-.19,.14-.03,.28-.05,.41-.05,.26,.26,.51,.51,.77,.77,.26,.22,.41,.48,.46,.77s.07,.62,.07,1.01c0,.42-.05,.78-.14,1.1-.1,.32-.29,.78-.58,1.39-.29,.61-.74,1.55-1.34,2.83-.26,.64-.53,1.24-.82,1.8-.29,.56-.43,.9-.43,1.03s-.06,.32-.17,.58c-.11,.26-.23,.58-.36,.96-.13,.26-.3,.63-.53,1.13-.22,.5-.46,1.02-.7,1.58-.24,.56-.44,1.04-.6,1.44-.16,.4-.24,.63-.24,.7,0,.13,0,.26-.02,.38-.02,.13-.09,.26-.22,.38-.13,0-.21,.18-.24,.53,0,.32-.26,1.17-.77,2.54-.51,1.76-.98,3.38-1.42,4.85-.43,1.47-.65,2.66-.65,3.55,0,.77-.02,1.27-.05,1.51-.03,.24-.18,.42-.43,.55Z"/><path class="cls-1" d="M146.58,31.11c-.26-.26-.44-.58-.55-.96-.11-.38-.15-.77-.12-1.15,.03-.38,.11-.7,.24-.96,0-.26,.04-.46,.12-.6s.1-.28,.07-.41c-.03-.13,0-.35,.1-.67,.1-.32,.19-.62,.29-.91,.22-.51,.46-1.13,.72-1.85,.25-.72,.5-1.43,.72-2.14,.22-.7,.42-1.31,.58-1.82,.16-.51,.26-.83,.29-.96,0-.38,.26-.59,.77-.62,.38-.13,.67-.14,.86-.02,.19,.11,.45,.42,.77,.94,.26,.26,.35,.64,.29,1.15-.06,.51-.27,1.15-.62,1.92-.13,.26-.28,.62-.46,1.1s-.3,.91-.36,1.3c-.13,.26-.28,.62-.46,1.08-.18,.46-.33,.9-.46,1.32-.06,.16-.13,.39-.19,.7-.06,.3-.14,.62-.24,.96-.1,.34-.22,.63-.38,.89-.29,1.31-.55,2.08-.79,2.3-.24,.22-.63,.03-1.18-.58Zm4.66-19.49c-.16-.16-.3-.39-.43-.7-.13-.3-.21-.59-.24-.86-.03-.27,0-.41,.1-.41,.26-.03,.56-.3,.91-.82,.35-.51,.5-.96,.43-1.34,0-.13,.05-.25,.14-.36,.1-.11,.21-.18,.34-.22,.38-.26,.76-.3,1.13-.12,.37,.18,.71,.52,1.03,1.03,.29,.61,.37,1.11,.24,1.51-.13,.4-.48,.95-1.06,1.66-.48,.64-.92,.99-1.32,1.06-.4,.06-.82-.08-1.27-.43Z"/><path class="cls-1" d="M160.07,31.54c-.7,0-1.23-.03-1.58-.1-.35-.06-.62-.16-.82-.29-.19-.13-.42-.3-.67-.53-.13-.26-.29-.53-.48-.82s-.35-.5-.48-.62c-.13-.48-.18-1.1-.17-1.87,.02-.77,.11-1.6,.29-2.5,.18-.9,.42-1.73,.74-2.5,.13-.26,.29-.64,.48-1.15,0-.16,.2-.54,.6-1.15,.4-.61,.85-1.25,1.34-1.92s.9-1.15,1.22-1.44c.22-.26,.57-.53,1.03-.82,.46-.29,.87-.5,1.22-.62,.35-.13,.71-.24,1.08-.34,.37-.1,.79-.14,1.27-.14,.45,0,.86,.1,1.25,.29,.38,.19,.75,.53,1.1,1.01,.58,.58,.9,1.14,.98,1.7,.08,.56,.06,1.13-.07,1.7-.16,.64-.37,1.13-.62,1.46-.26,.34-.54,.49-.86,.46-.32-.03-.69-.27-1.1-.72-.13-.26-.19-.47-.19-.65s.06-.44,.19-.79c.13-.45,.13-.91,0-1.39s-.34-.72-.62-.72c-.42,0-.87,.18-1.37,.55-.5,.37-1,.82-1.51,1.37-.22,.26-.54,.65-.94,1.18-.4,.53-.79,1.1-1.18,1.73-.38,.62-.71,1.22-.96,1.8-.35,1.06-.74,2.22-1.15,3.5,0,.13,.04,.25,.12,.36,.08,.11,.12,.23,.12,.36,0,.38,.22,.69,.67,.91,.35,.22,.77,.34,1.25,.36,.48,.02,1.07-.14,1.78-.46,.51-.26,1-.59,1.46-1.01,.46-.42,.95-.78,1.46-1.1,.35-.22,.63-.42,.84-.58,.21-.16,.31-.18,.31-.05s.05,.19,.14,.19,.21-.06,.34-.19c.19-.26,.4-.42,.62-.5,.22-.08,.42-.11,.6-.1,.18,.02,.26,.07,.26,.17-.07,.29,0,.53,.19,.72,0,.13-.04,.3-.12,.5-.08,.21-.18,.38-.31,.5-.16,.22-.39,.48-.7,.77-.3,.29-.71,.64-1.22,1.06-.13-.03-.25,0-.36,.1-.11,.1-.23,.21-.36,.34-.26,.22-.5,.39-.72,.5-.22,.11-.4,.17-.53,.17-.22,.13-.39,.21-.5,.24-.11,.03-.17,.11-.17,.24-.32,.32-.71,.54-1.18,.65-.46,.11-1.14,.17-2.04,.17Z"/><path class="cls-1" d="M184.26,32.74c-.13,.13-.47,.18-1.03,.14-.56-.03-1.08-.16-1.56-.38-.06-.1-.18-.2-.34-.31-.16-.11-.31-.25-.46-.41-.14-.16-.26-.3-.36-.43-.06-.1-.22-.28-.48-.55-.26-.27-.51-.54-.77-.79-.26-.26-.43-.43-.53-.53-.13-.26-.38-.58-.77-.98-.38-.4-.75-.78-1.1-1.13-.22-.32-.45-.59-.67-.82-.22-.22-.42-.39-.58-.5-.16-.11-.29-.17-.38-.17-.22,.8-.42,1.5-.6,2.09-.18,.59-.35,1.18-.53,1.78-.18,.59-.31,1.06-.41,1.42-.22,.45-.42,.75-.58,.91-.16,.16-.37,.24-.62,.24-.35,0-.66-.16-.94-.48-.27-.32-.41-.78-.41-1.39-.13-.45,.03-1.42,.48-2.93,.45-1.5,1.14-3.42,2.06-5.76,.13-.48,.29-.98,.48-1.51,.19-.53,.35-.97,.48-1.32,.32-1.06,.66-2.04,1.03-2.95,.37-.91,.76-1.84,1.18-2.78,.42-.94,.85-1.96,1.3-3.05,.29-.58,.5-1,.62-1.27,.13-.27,.27-.56,.43-.86,.16-.3,.4-.76,.72-1.37,.7-1.31,1.26-2.34,1.68-3.07,.42-.74,.74-1.28,.96-1.63,.22-.35,.42-.61,.58-.77s.35-.27,.58-.34c.22-.06,.45-.07,.67-.02,.22,.05,.42,.17,.58,.36,.26,.26,.41,.52,.46,.79,.05,.27-.02,.63-.19,1.08-.18,.45-.5,1.07-.98,1.87-.26,.58-.46,.99-.62,1.25-.16,.26-.32,.51-.48,.77-.16,.26-.42,.7-.77,1.34-.06,.19-.16,.4-.29,.62-.13,.22-.27,.34-.43,.34,0,.1-.05,.29-.14,.58-.1,.29-.21,.56-.34,.82-.1,.35-.25,.73-.46,1.13-.21,.4-.36,.73-.46,.98-.16,.38-.41,.91-.74,1.58s-.66,1.32-.96,1.94c-.3,.62-.49,1.11-.55,1.46,0,.13,.1,.11,.29-.05,.19-.16,.4-.3,.62-.43,.48-.38,1.03-.78,1.66-1.18,.62-.4,1.23-.75,1.82-1.06,.59-.3,1.08-.49,1.46-.55,.48-.13,.87-.19,1.18-.19s.62,.06,.94,.19c.26,.13,.47,.3,.65,.53,.18,.22,.34,.48,.48,.77s.25,.64,.31,1.06c0,.29-.11,.77-.34,1.44s-.5,1.32-.82,1.94c-.32,.62-.64,1.06-.96,1.32-.22,.1-.46,.24-.72,.43,0,.13-.06,.29-.17,.48s-.3,.35-.55,.48c-.13,.13-.27,.29-.43,.48-.16,.19-.24,.34-.24,.43v.24c-.13,0-.31,.1-.55,.29-.24,.19-.54,.42-.89,.67-.35,.35-.6,.54-.74,.58-.14,.03-.34,.1-.6,.19-.06,.06-.14,.11-.22,.14-.08,.03-.16,.06-.24,.1-.08,.03-.14,.06-.19,.1-.05,.03-.07,.08-.07,.14,0,.13,.15,.39,.46,.79,.3,.4,.67,.84,1.1,1.32,.43,.48,.85,.92,1.25,1.32,.4,.4,.7,.66,.89,.79,.32,.13,.55,.34,.7,.65,.14,.3,.23,.61,.26,.91,.03,.3,0,.54-.1,.7Zm-5.76-8.5c.16-.13,.5-.39,1.01-.79,.51-.4,1.07-.85,1.68-1.34,.61-.5,1.16-.98,1.66-1.44,.5-.46,.84-.81,1.03-1.03,.22-.22,.45-.61,.67-1.15,.22-.54,.26-.98,.1-1.3-.03-.13-.32-.06-.86,.19-.54,.26-1.17,.56-1.87,.91-.54,.32-1.18,.74-1.9,1.25-.72,.51-1.39,1.06-2.02,1.63-.62,.58-1.1,1.14-1.42,1.68-.06,.22,0,.48,.19,.77,.19,.29,.45,.5,.77,.65,.32,.14,.64,.14,.96-.02Z"/><path class="cls-1" d="M222.66,30.63c-.16-.06-.4-.22-.72-.48-.32-.26-.59-.7-.82-1.32-.22-.62-.34-1.5-.34-2.62,.03-.96,.06-1.71,.07-2.26,.02-.54-.1-.82-.36-.82s-.74,.25-1.46,.74c-.72,.5-1.54,1.16-2.47,1.99-.93,.83-1.87,1.76-2.83,2.78-.32,.35-.63,.68-.94,.98s-.6,.5-.89,.58c-.29,.08-.62-.02-1.01-.31l-.53-.43c-.16-.16-.26-.33-.29-.5-.03-.18-.02-.38,.05-.6l1.1-3.17c.51-1.15,.86-1.99,1.06-2.52s.29-.86,.29-1.01-.05-.2-.14-.17c-.26,.03-.64,.18-1.15,.46-.51,.27-.85,.54-1.01,.79-.13,0-.32,.14-.58,.43-.26,.29-.58,.56-.96,.82-.22,.38-.67,.88-1.32,1.49-.66,.61-1.3,1.23-1.94,1.87-.42,.35-.82,.78-1.22,1.3-.4,.51-.74,.96-1.01,1.34-.27,.38-.46,.58-.55,.58-.42,0-.79-.11-1.13-.34-.34-.22-.58-.59-.74-1.1-.26-.54-.26-1.3,0-2.28,.25-.98,.54-2.25,.86-3.82,.13-.48,.21-.83,.24-1.06,.03-.22,.09-.46,.17-.7,.08-.24,.22-.62,.43-1.13,.21-.51,.54-1.28,.98-2.3,.22-.61,.36-1.06,.41-1.37,.05-.3,.07-.52,.07-.65,0-.32,.09-.59,.26-.82,.18-.22,.39-.38,.65-.48,.25-.1,.5-.11,.72-.05,.35,.06,.66,.24,.94,.53,.27,.29,.42,.69,.46,1.2,.03,.38,0,.73-.1,1.03s-.19,.58-.29,.84l-.53,1.3c-.16,.35-.37,.86-.62,1.54s-.48,1.29-.67,1.85c-.19,.56-.29,.89-.29,.98,.03,.1,.14,.07,.34-.07,.19-.14,.44-.35,.74-.62,.3-.27,.62-.54,.94-.79,.67-.64,1.43-1.26,2.28-1.85,.85-.59,1.66-1.1,2.42-1.51,.77-.42,1.36-.69,1.78-.82,.54,0,.92,.1,1.13,.29,.21,.19,.57,.54,1.08,1.06,.22,.22,.35,.51,.38,.86,.03,.35,.02,.69-.05,1.01-.03,.13-.13,.44-.29,.94-.16,.5-.38,1.19-.67,2.09,.74-.64,1.33-1.14,1.78-1.51,.45-.37,.78-.65,1.01-.84,1.25-.96,2.34-1.57,3.26-1.82,.93-.26,1.68,.08,2.26,1.01,.38,.35,.58,.74,.6,1.15,.02,.42,.02,1.14,.02,2.16,.03,.42,.06,.91,.1,1.49,.03,.58,.07,1.1,.12,1.56s.1,.74,.17,.84c.1,.13,.28,.23,.55,.31,.27,.08,.63,.15,1.08,.22,.48,.06,.77,.27,.86,.62,.1,.35-.11,.69-.62,1.01-.48,.29-1.01,.42-1.58,.38-.58-.03-1.09-.13-1.54-.29Z"/><path class="cls-1" d="M232.5,32.79c-1.41,0-2.56-.54-3.46-1.61-.9-1.07-1.33-2.41-1.3-4.01,.06-1.15,.29-2.39,.7-3.72,.4-1.33,.94-2.61,1.61-3.84,.67-1.23,1.41-2.31,2.21-3.24,.8-.93,1.63-1.58,2.5-1.97,.32-.16,.66-.29,1.03-.38,.37-.1,.74-.14,1.13-.14,.35,0,.72,.06,1.1,.17,.38,.11,.7,.23,.96,.36,.54,.22,.96,.5,1.25,.82,.29,.32,.54,.82,.77,1.49,.1,.61,.14,1.04,.14,1.3s-.08,.64-.24,1.15c-.38,1.15-.88,2.14-1.49,2.98-.61,.83-1.42,1.54-2.45,2.11-.26,.16-.55,.28-.89,.36-.34,.08-.68,.12-1.03,.12-.64,0-1.26-.12-1.85-.36-.59-.24-1.06-.6-1.42-1.08l-.34-.38-.14,.38c-.32,.86-.57,1.66-.74,2.4-.18,.74-.26,1.41-.26,2.02,0,.38,.04,.75,.12,1.1,.08,.35,.2,.66,.36,.91,.13,.19,.34,.33,.65,.41,.3,.08,.63,.12,.98,.12,.22,0,.46,0,.7-.02s.47-.07,.7-.17c.54-.19,.98-.4,1.32-.62,.34-.22,.68-.46,1.03-.72l.19-.1h-.05c.38-.19,.88-.48,1.49-.86,.13,0,.25-.08,.38-.24,.26-.13,.58-.08,.98,.14,.4,.22,.6,.51,.6,.86-.03,.16-.18,.41-.43,.74-.26,.34-.54,.65-.84,.94-.3,.29-.55,.45-.74,.48-.03,.03-.14,.09-.34,.17-.19,.08-.32,.15-.38,.22h.05c-.29,.38-.58,.58-.86,.58h-.38c-.13,.22-.54,.47-1.25,.74s-1.39,.41-2.06,.41Zm2.16-10.56c.58,0,1.08-.17,1.51-.5s.81-.71,1.13-1.13c.64-.86,1.02-1.7,1.13-2.52,.11-.82,0-1.38-.31-1.7-.19-.1-.36-.15-.5-.17-.14-.02-.42,.04-.84,.17-.29,.06-.69,.3-1.2,.72-.51,.42-1.02,.88-1.51,1.39-.5,.51-.87,.94-1.13,1.3l-.62,1.01c.26-.1,.5-.15,.74-.17,.24-.02,.38,0,.41,.07,0,.29,.06,.55,.17,.79,.11,.24,.26,.42,.43,.55,.18,.13,.38,.19,.6,.19Z"/></g><g id="Arrow"><path class="cls-1" d="M16.14,91.84c-.51,0-.91,.03-1.19,.12-.5,.34-.98,.69-1.45,1.06-.46,.38-1.09,.84-1.87,1.4-.78,.56-1.86,1.28-3.25,2.16-.87,.51-1.6,.99-2.19,1.41-.58,.41-1.1,.69-1.55,.85-.45,.16-.85,.11-1.19-.12-.41-.55-.63-1.68-.66-3.37-.03-1.69,.2-3.81,.68-6.36,.16-.83,.26-1.62,.29-2.34,.03-.73-.05-1.26-.25-1.6-.19-.34-.5-.35-.94-.06-.13,.15-.3,.34-.5,.6-.2,.25-.44,.6-.7,1.07-.26,.46-.47,1.04-.64,1.76-.25,1.23-.44,2.15-.59,2.76-.14,.6-.14,1.3-.02,2.08-.17,1.2-.17,2.27-.01,3.19,.16,.92,.45,1.89,.87,2.92l1.06,2.54,1.11,.95c.16-.2,.49-.45,.98-.75,.5-.3,.78-.47,.84-.5,.4-.17,.83-.4,1.29-.67,.47-.28,1.07-.66,1.8-1.14,.73-.47,1.71-1.11,2.94-1.9,1.16-.95,2.02-1.55,2.59-1.8,.57-.26,1.06-.52,1.48-.79,.26-.12,.52-.26,.83-.43,.29-.18,.46-.34,.52-.5,.13-.15,.18-.28,.16-.41-.02-.12-.05-.26-.11-.4-.13-.41-.16-.79-.07-1.14,.08-.34,0-.53-.25-.57Z"/><path class="cls-1" d="M105.25,20.57l-1.28,4.52c-.38-.09-.75-.15-1.11-.21-1.39-.21-2.52-.25-3.3-.27-1.84,.15-2.84,.22-2.88,.01-.27-.1-.52-.06-.79,.17-.34,.18-.57,.25-.7,.23-.13,0-.24-.03-.32-.04-.02-.06-.33,0-.93,.14-.62,.16-1.35,.37-2.18,.6-.84,.26-1.67,.53-2.49,.81-.82,.28-1.47,.53-1.95,.76-.55,.15-1.04,.32-1.51,.52-.46,.17-.76,.28-.87,.27-.03-.04-.18,0-.42,.09-.28,.11-.63,.27-1.1,.5-.48,.24-.98,.5-1.56,.78-.54,.27-1.1,.53-1.66,.8-1.44,.73-2.68,1.42-3.67,1.98l-.38,.38c-.57,.53-1.04,.86-1.37,.96-.2,.08-.45,.11-.76,.13-.78,.46-1.38,.8-1.77,.98-.52,.25-.96,.35-1.34,.35-.4,.07-.71,.08-.89-.02-.03-.01-.04-.03-.04-.07-1.75,.84-3.92,1.94-6.53,3.44-2.68,1.55-5.48,3.29-8.42,5.31-2.91,1.98-5.67,4.03-8.17,5.97-2.51,1.98-4.42,3.59-5.7,4.68-2.88,2.67-4.41,4.08-4.62,4.05-.5,.33-.88,.71-1.13,1.16-.42,.55-.72,.9-.94,1.06-.21,.17-.39,.31-.52,.42-.06,0-.52,.45-1.35,1.33-.86,.92-1.84,2-2.93,3.19-1.1,1.24-2.17,2.47-3.2,3.67-1.03,1.21-1.81,2.18-2.37,2.9-.7,.78-1.31,1.49-1.86,2.19-.53,.67-.9,1.11-1.08,1.25-.06,0-.25,.21-.55,.57-.32,.4-.7,.92-1.22,1.64-.52,.72-1.07,1.49-1.69,2.35-.6,.82-1.2,1.65-1.81,2.49-2.5,3.57-4.27,6.34-5.39,8.16-1.11,1.78-1.92,3.08-2.44,3.82-.53,.74-1.04,1.31-1.55,1.73-.47,.48-.88,.84-1.18,.97-.32,.18-.49-.12-.48-.98-.03-.8-.07-1.5-.13-2.06,.46-1.49,.87-2.55,1.24-3.25,.76-2.27,1.5-3.66,2.11-4.15,.18-.16,.76-.9,1.75-2.21,1.01-1.31,2.26-2.96,3.79-4.9,1.49-1.91,3.17-3.99,4.98-6.18,1.81-2.19,3.63-4.31,5.44-6.35,1.82-2.06,3.46-3.84,4.91-5.4,1.46-1.55,2.58-2.75,3.42-3.68,.18-.1,.41-.32,.72-.67,.33-.35,.56-.57,.74-.67,.18-.09,.49-.37,.9-.75,.41-.38,.76-.69,1.03-.89,.34-.45,.84-.96,1.49-1.57,.62-.58,1.12-.97,1.49-1.17,.26-.09,.63-.37,1.13-.83,.51-.49,.89-.92,1.17-1.37,.2-.19,1.08-.97,2.64-2.26,1.56-1.28,3.47-2.79,5.74-4.49,2.25-1.67,4.65-3.38,7.16-5.06,2.52-1.68,4.87-3.13,7.1-4.45,2.2-1.28,4.05-2.28,5.53-3.04,1.5-.75,2.41-1.19,2.72-1.33,.21,0,.62-.13,1.26-.44,.62-.31,1.24-.6,1.9-.91,.64-.26,1.2-.43,1.69-.54,.11-.03,.27-.1,.43-.17,.93-.41,2.08-.91,3.45-1.49,1.34-.56,2.8-1.16,4.33-1.73,1.52-.58,3.02-1.1,4.45-1.56,1.44-.47,2.7-.83,3.79-1.13,1.08-.29,1.92-.51,2.55-.73,.09,.05,.25,.04,.49-.05,.24-.08,.39-.09,.48-.04,.09,.04,.29,.04,.56,.01s.49-.04,.65,0c.29-.16,.64-.26,1.08-.31,.41-.04,.7,0,.88,.1,.1,.14,.31,.18,.64,.14,.34-.05,.62-.16,.89-.38,.13-.02,.69-.05,1.61-.01,.68,.04,1.44,.11,2.29,.24Z"/></g></g></svg>