<?xml version="1.0" encoding="UTF-8"?><svg id="Layer_2" xmlns="http://www.w3.org/2000/svg" width="349.3" height="109.09" viewBox="0 0 349.3 109.09"><defs><style>.cls-1{fill:#f9f3dc;}</style></defs><g id="handwriting"><g id="Arrow"><path class="cls-1" d="M16.14,98.07c-.51,0-.91,.03-1.19,.12-.5,.34-.98,.69-1.45,1.06-.46,.38-1.09,.84-1.87,1.4-.78,.56-1.86,1.28-3.25,2.16-.87,.51-1.6,.99-2.19,1.41-.58,.41-1.1,.69-1.55,.85-.45,.16-.85,.11-1.19-.12-.41-.55-.63-1.68-.66-3.37-.03-1.69,.2-3.81,.68-6.36,.16-.83,.26-1.62,.29-2.34,.03-.73-.05-1.26-.25-1.6-.19-.34-.5-.35-.94-.06-.13,.15-.3,.34-.5,.6-.2,.25-.44,.6-.7,1.07-.26,.46-.47,1.04-.64,1.76-.25,1.23-.44,2.15-.59,2.76-.14,.6-.14,1.3-.02,2.08-.17,1.2-.17,2.27-.01,3.19,.16,.92,.45,1.89,.87,2.92l1.06,2.54,1.11,.95c.16-.2,.49-.45,.98-.75,.5-.3,.78-.47,.84-.5,.4-.17,.83-.4,1.29-.67,.47-.28,1.07-.66,1.8-1.14,.73-.47,1.71-1.11,2.94-1.9,1.16-.95,2.02-1.55,2.59-1.8,.57-.26,1.06-.52,1.48-.79,.26-.12,.52-.26,.83-.43,.29-.18,.46-.34,.52-.5,.13-.15,.18-.28,.16-.41-.02-.12-.05-.26-.11-.4-.13-.41-.16-.79-.07-1.14,.08-.34,0-.53-.25-.57Z"/><path class="cls-1" d="M105.25,26.8l-1.28,4.52c-.38-.09-.75-.15-1.11-.21-1.39-.21-2.52-.25-3.3-.27-1.84,.15-2.84,.22-2.88,.01-.27-.1-.52-.06-.79,.17-.34,.18-.57,.25-.7,.23-.13,0-.24-.03-.32-.04-.02-.06-.33,0-.93,.14-.62,.16-1.35,.37-2.18,.6-.84,.26-1.67,.53-2.49,.81-.82,.28-1.47,.53-1.95,.76-.55,.15-1.04,.32-1.51,.52-.46,.17-.76,.28-.87,.27-.03-.04-.18,0-.42,.09-.28,.11-.63,.27-1.1,.5-.48,.24-.98,.5-1.56,.78-.54,.27-1.1,.53-1.66,.8-1.44,.73-2.68,1.42-3.67,1.98l-.38,.38c-.57,.53-1.04,.86-1.37,.96-.2,.08-.45,.11-.76,.13-.78,.46-1.38,.8-1.77,.98-.52,.25-.96,.35-1.34,.35-.4,.07-.71,.08-.89-.02-.03-.01-.04-.03-.04-.07-1.75,.84-3.92,1.94-6.53,3.44-2.68,1.55-5.48,3.29-8.42,5.31-2.91,1.98-5.67,4.03-8.17,5.97-2.51,1.98-4.42,3.59-5.7,4.68-2.88,2.67-4.41,4.08-4.62,4.05-.5,.33-.88,.71-1.13,1.16-.42,.55-.72,.9-.94,1.06-.21,.17-.39,.31-.52,.42-.06,0-.52,.45-1.35,1.33-.86,.92-1.84,2-2.93,3.19-1.1,1.24-2.17,2.47-3.2,3.67-1.03,1.21-1.81,2.18-2.37,2.9-.7,.78-1.31,1.49-1.86,2.19-.53,.67-.9,1.11-1.08,1.25-.06,0-.25,.21-.55,.57-.32,.4-.7,.92-1.22,1.64-.52,.72-1.07,1.49-1.69,2.35-.6,.82-1.2,1.65-1.81,2.49-2.5,3.57-4.27,6.34-5.39,8.16-1.11,1.78-1.92,3.08-2.44,3.82-.53,.74-1.04,1.31-1.55,1.73-.47,.48-.88,.84-1.18,.97-.32,.18-.49-.12-.48-.98-.03-.8-.07-1.5-.13-2.06,.46-1.49,.87-2.55,1.24-3.25,.76-2.27,1.5-3.66,2.11-4.15,.18-.16,.76-.9,1.75-2.21,1.01-1.31,2.26-2.96,3.79-4.9,1.49-1.91,3.17-3.99,4.98-6.18,1.81-2.19,3.63-4.31,5.44-6.35,1.82-2.06,3.46-3.84,4.91-5.4,1.46-1.55,2.58-2.75,3.42-3.68,.18-.1,.41-.32,.72-.67,.33-.35,.56-.57,.74-.67,.18-.09,.49-.37,.9-.75,.41-.38,.76-.69,1.03-.89,.34-.45,.84-.96,1.49-1.57,.62-.58,1.12-.97,1.49-1.17,.26-.09,.63-.37,1.13-.83,.51-.49,.89-.92,1.17-1.37,.2-.19,1.08-.97,2.64-2.26,1.56-1.28,3.47-2.79,5.74-4.49,2.25-1.67,4.65-3.38,7.16-5.06,2.52-1.68,4.87-3.13,7.1-4.45,2.2-1.28,4.05-2.28,5.53-3.04,1.5-.75,2.41-1.19,2.72-1.33,.21,0,.62-.13,1.26-.44,.62-.31,1.24-.6,1.9-.91,.64-.26,1.2-.43,1.69-.54,.11-.03,.27-.1,.43-.17,.93-.41,2.08-.91,3.45-1.49,1.34-.56,2.8-1.16,4.33-1.73,1.52-.58,3.02-1.1,4.45-1.56,1.44-.47,2.7-.83,3.79-1.13,1.08-.29,1.92-.51,2.55-.73,.09,.05,.25,.04,.49-.05,.24-.08,.39-.09,.48-.04,.09,.04,.29,.04,.56,.01s.49-.04,.65,0c.29-.16,.64-.26,1.08-.31,.41-.04,.7,0,.88,.1,.1,.14,.31,.18,.64,.14,.34-.05,.62-.16,.89-.38,.13-.02,.69-.05,1.61-.01,.68,.04,1.44,.11,2.29,.24Z"/></g><g><path class="cls-1" d="M120.15,35.33c-.48-.19-.97-.4-1.46-.62-.5-.22-.96-.55-1.39-.98s-.81-1.03-1.13-1.8c-.32-.93-.54-1.84-.65-2.74-.11-.9-.15-1.94-.12-3.12,0-1.66,.12-3.11,.36-4.34,.24-1.23,.62-2.49,1.13-3.77,.06-.1,.18-.38,.36-.84,.18-.46,.38-.97,.62-1.51,.24-.54,.42-.96,.55-1.25,.26-.54,.65-1.27,1.18-2.18,.53-.91,1.1-1.8,1.7-2.66,.93-1.38,1.7-2.46,2.3-3.26,.61-.8,1.18-1.47,1.73-2.02,.54-.54,1.16-1.06,1.85-1.56,.69-.5,1.58-1.11,2.66-1.85,.7-.51,1.48-.78,2.33-.82,.85-.03,1.64,.15,2.38,.55,.74,.4,1.28,.98,1.63,1.75,.35,.67,.53,1.48,.53,2.42s-.14,1.94-.43,2.98c-.29,1.04-.69,2.02-1.2,2.95-.51,.93-1.1,1.7-1.78,2.3-.42,.38-.79,.53-1.13,.43s-.73-.35-1.18-.77c-.29-.54-.44-.86-.46-.96-.02-.1,.04-.16,.17-.19,.19-.22,.45-.61,.77-1.15,.32-.54,.64-1.13,.96-1.75,.32-.62,.54-1.13,.67-1.51,.26-1.34,.43-2.3,.53-2.86,.1-.56,0-.98-.29-1.27-.13-.13-.31-.18-.55-.14-.24,.03-.63,.19-1.18,.48-.74,.32-1.7,1.03-2.88,2.14-1.18,1.1-2.27,2.33-3.26,3.67-1.28,1.7-2.35,3.2-3.22,4.51-.86,1.31-1.52,2.66-1.97,4.03-.06,.13-.24,.54-.53,1.25,.03,.13-.02,.44-.14,.94-.13,.5-.27,.92-.43,1.27-.35,1.47-.56,3-.62,4.58-.06,1.58,.02,2.98,.26,4.2,.24,1.22,.6,2.06,1.08,2.54,.42,.29,.98,.38,1.7,.29,.72-.1,1.54-.32,2.47-.67,.93-.35,1.87-.74,2.83-1.15,.77-.32,1.47-.67,2.11-1.06s1.12-.72,1.44-1.01c.26-.19,.58-.39,.98-.6,.4-.21,.74-.31,1.03-.31,.45-.16,.7-.22,.77-.19,.06,.03,.1,.18,.1,.43,0,.45-.25,.94-.74,1.49-.5,.54-1.13,1.04-1.9,1.49-.26,.26-.59,.53-1.01,.82-.42,.29-.85,.51-1.3,.67-.67,.51-1.5,1.01-2.5,1.49-.99,.48-1.99,.85-3,1.1-1.01,.26-1.93,.3-2.76,.14Z"/><path class="cls-1" d="M139.02,32.64c-.61,.16-1.1,.03-1.46-.38-.37-.42-.58-1.06-.65-1.92-.06-.86,.03-1.89,.29-3.07,.16-.38,.29-.76,.38-1.13,.1-.37,.14-.66,.14-.89,.06-.32,.19-.79,.38-1.42s.4-1.27,.62-1.94c.22-.67,.44-1.27,.65-1.8,.21-.53,.34-.86,.41-.98,.13,0,.24-.11,.34-.34,.1-.22,.14-.45,.14-.67,0-.26,.06-.54,.17-.86,.11-.32,.23-.54,.36-.67,0-.16,.04-.34,.12-.55,.08-.21,.12-.38,.12-.5s.04-.26,.12-.38c.08-.13,.12-.26,.12-.38,.22-.42,.52-1.08,.89-1.99,.37-.91,.77-1.93,1.2-3.05s.84-2.22,1.22-3.31c.38-1.09,.7-2.01,.94-2.76,.24-.75,.36-1.21,.36-1.37,0-.26,.06-.45,.19-.58,.13-.13,.32-.19,.58-.19,.1-.1,.22-.16,.36-.19,.14-.03,.28-.05,.41-.05,.26,.26,.51,.51,.77,.77,.26,.22,.41,.48,.46,.77,.05,.29,.07,.62,.07,1.01,0,.42-.05,.78-.14,1.1-.1,.32-.29,.78-.58,1.39-.29,.61-.74,1.55-1.34,2.83-.26,.64-.53,1.24-.82,1.8-.29,.56-.43,.9-.43,1.03s-.06,.32-.17,.58c-.11,.26-.23,.58-.36,.96-.13,.26-.3,.63-.53,1.13-.22,.5-.46,1.02-.7,1.58-.24,.56-.44,1.04-.6,1.44-.16,.4-.24,.63-.24,.7,0,.13,0,.26-.02,.38-.02,.13-.09,.26-.22,.38-.13,0-.21,.18-.24,.53,0,.32-.26,1.17-.77,2.54-.51,1.76-.98,3.38-1.42,4.85-.43,1.47-.65,2.66-.65,3.55,0,.77-.02,1.27-.05,1.51-.03,.24-.18,.42-.43,.55Z"/><path class="cls-1" d="M146.22,31.11c-.26-.26-.44-.58-.55-.96-.11-.38-.15-.77-.12-1.15,.03-.38,.11-.7,.24-.96,0-.26,.04-.46,.12-.6,.08-.14,.1-.28,.07-.41-.03-.13,0-.35,.1-.67,.1-.32,.19-.62,.29-.91,.22-.51,.46-1.13,.72-1.85,.26-.72,.5-1.43,.72-2.14,.22-.7,.42-1.31,.58-1.82,.16-.51,.26-.83,.29-.96,0-.38,.26-.59,.77-.62,.38-.13,.67-.14,.86-.02,.19,.11,.45,.42,.77,.94,.26,.26,.35,.64,.29,1.15-.06,.51-.27,1.15-.62,1.92-.13,.26-.28,.62-.46,1.1-.18,.48-.3,.91-.36,1.3-.13,.26-.28,.62-.46,1.08-.18,.46-.33,.9-.46,1.32-.06,.16-.13,.39-.19,.7-.06,.3-.14,.62-.24,.96-.1,.34-.22,.63-.38,.89-.29,1.31-.55,2.08-.79,2.3-.24,.22-.63,.03-1.18-.58Zm4.66-19.49c-.16-.16-.3-.39-.43-.7-.13-.3-.21-.59-.24-.86-.03-.27,0-.41,.1-.41,.26-.03,.56-.3,.91-.82,.35-.51,.5-.96,.43-1.34,0-.13,.05-.25,.14-.36,.1-.11,.21-.18,.34-.22,.38-.26,.76-.3,1.13-.12,.37,.18,.71,.52,1.03,1.03,.29,.61,.37,1.11,.24,1.51-.13,.4-.48,.95-1.06,1.66-.48,.64-.92,.99-1.32,1.06-.4,.06-.82-.08-1.27-.43Z"/><path class="cls-1" d="M158.99,29c-.38,0-.83-.11-1.34-.34-.51-.22-.98-.51-1.39-.86-.42-.35-.72-.7-.91-1.06-.22-.54-.31-1.13-.26-1.75,.05-.62,.22-1.27,.53-1.94,.3-.67,.73-1.34,1.27-2.02,.35-.64,.77-1.22,1.25-1.73,.48-.51,.88-.88,1.2-1.1,.26-.26,.54-.53,.84-.82,.3-.29,.55-.5,.74-.62,.35-.26,.66-.46,.91-.6,.26-.14,.58-.28,.96-.41,.64-.45,1.52-.78,2.64-1.01,1.12-.22,2.21-.4,3.26-.53,.42-.1,.79-.1,1.13,0,.34,.1,.64,.24,.91,.43,.27,.19,.52,.4,.74,.62,.16,.26,.21,.49,.14,.7-.06,.21-.21,.31-.43,.31-.13,0-.22,.12-.26,.36-.05,.24-.1,.71-.17,1.42-.13,.9-.63,1.84-1.51,2.83-.88,.99-2.12,2.24-3.72,3.74-.8,.86-1.6,1.62-2.4,2.28-.8,.66-1.55,1.16-2.26,1.51-.7,.35-1.33,.54-1.87,.58Zm-.86-3.17c.06,.7,.6,.86,1.61,.46,1.01-.4,2.22-1.29,3.62-2.66,.67-.61,1.3-1.25,1.87-1.92,.58-.67,1.14-1.31,1.68-1.92,.16-.35,.31-.65,.46-.89,.14-.24,.23-.47,.26-.7,.13-.54,.18-.96,.17-1.25-.02-.29-.1-.43-.26-.43-.22,0-.62,.05-1.18,.14-.56,.1-1.06,.32-1.51,.67-1.41,.74-2.62,1.64-3.65,2.71-1.02,1.07-1.81,2.14-2.35,3.19-.54,1.06-.78,1.92-.72,2.59Zm2.06,17.66c-.42-.13-.72-.34-.91-.65-.19-.3-.3-.74-.34-1.32,0-.35,.06-.82,.19-1.39,.13-.58,.27-1.25,.43-2.02,0-.13,.07-.49,.22-1.08,.14-.59,.3-1.08,.46-1.46,.22-.83,.47-1.66,.74-2.5,.27-.83,.57-1.68,.89-2.54,.48-1.34,.94-2.49,1.37-3.43,.43-.94,.81-1.62,1.13-2.04l5.38-8.5c.45,0,.7,.06,.77,.19,.06,.13,.1,.42,.1,.86,0,.48,0,.82-.02,1.03-.02,.21-.15,.44-.41,.7h.05c.06-.06,.05,0-.05,.22-.1,.21-.18,.36-.24,.46-.06,.16-.14,.34-.22,.53-.08,.19-.17,.34-.26,.43-.1,.1-.32,.48-.67,1.15-.35,.67-.75,1.45-1.2,2.33-.45,.88-.87,1.73-1.27,2.54-.4,.82-.7,1.45-.89,1.9-.1,.22-.2,.49-.31,.79-.11,.3-.26,.74-.46,1.32-.19,.58-.5,1.41-.91,2.5l-.24,.91-.43,.96c-.22,.61-.38,1.01-.46,1.2-.08,.19-.12,.35-.12,.48-.13,.67-.28,1.46-.46,2.35-.18,.9-.3,1.74-.36,2.54,0,.35-.11,.74-.34,1.15-.22,.42-.61,.54-1.15,.38Z"/><path class="cls-1" d="M184.04,32.55c-.22,.13-.52,.08-.89-.14-.37-.22-.73-.56-1.08-1.01-.22-.38-.38-.8-.46-1.25-.08-.45-.12-1.07-.12-1.87,.03-.64,0-1.06-.07-1.25-.08-.19-.26-.17-.55,.07-.29,.24-.78,.71-1.49,1.42-.8,.8-1.56,1.42-2.28,1.87-.72,.45-1.3,.66-1.75,.62-.22,0-.47-.12-.74-.36-.27-.24-.52-.54-.74-.91-.22-.37-.42-.74-.58-1.13-.19-.7-.22-1.61-.07-2.71s.39-2.26,.74-3.48c.35-1.22,.76-2.37,1.22-3.46,.46-1.09,.94-1.97,1.44-2.64,.5-.67,.94-1.01,1.32-1.01,.26,0,.49,.13,.7,.38,.21,.26,.42,.66,.65,1.2,.13,.22,.18,.42,.17,.58-.02,.16-.15,.35-.41,.58-.29,.38-.62,.96-.98,1.73-.37,.77-.72,1.6-1.06,2.5-.34,.9-.63,1.76-.89,2.59-.26,.83-.43,1.51-.53,2.04-.1,.53-.08,.79,.05,.79,.45,0,.98-.18,1.61-.55,.62-.37,1.22-.82,1.8-1.37,.67-.67,1.27-1.41,1.8-2.21,.53-.8,1.06-1.65,1.61-2.54,.42-.64,.86-1.34,1.32-2.11,.46-.77,.76-1.31,.89-1.63,.45-.83,.78-1.4,1.01-1.7,.22-.3,.5-.5,.82-.6h.67c.19,.03,.42,.18,.67,.43,.26,.13,.4,.25,.43,.36,.03,.11,.05,.25,.05,.41-.13,.32-.33,.79-.6,1.42-.27,.62-.47,1.08-.6,1.37-.61,1.38-1.21,2.73-1.8,4.06-.59,1.33-1.02,2.68-1.27,4.06-.06,.45-.07,.97-.02,1.56,.05,.59,.14,1.02,.26,1.27,.1,.19,.22,.41,.36,.65,.14,.24,.31,.44,.5,.6,.29,.19,.34,.4,.17,.62-.18,.22-.41,.41-.7,.55-.29,.14-.48,.22-.58,.22Z"/><path class="cls-1" d="M193.88,31.49c-1.25-.51-2.06-1.22-2.42-2.14-.37-.91-.44-2.33-.22-4.25,.06-.99,.1-1.65,.1-1.97s-.18-.64-.53-.96c-.1-.13-.26-.3-.5-.53-.24-.22-.34-.42-.31-.58-.03-.22-.02-.47,.05-.74,.06-.27,.16-.41,.29-.41s.26-.03,.41-.1c.14-.06,.28-.06,.41,0,.13,0,.27,.02,.43,.05,.16,.03,.24,.11,.24,.24,.13,.22,.34,.25,.62,.07,.29-.18,.59-.58,.91-1.22,.32-.51,.74-1.02,1.27-1.54,.53-.51,1.06-.98,1.58-1.42,.53-.43,.97-.74,1.32-.94,.16-.06,.4-.14,.72-.24,.32-.1,.66-.18,1.03-.24,.37-.06,.68-.08,.94-.05,.58,.03,1.06,.19,1.46,.48,.4,.29,.78,.62,1.13,1.01,.42,.29,.68,.67,.79,1.15,.11,.48,.14,.99,.07,1.54-.06,.54-.21,1.04-.43,1.49-.1,.32-.37,.7-.82,1.15-.45,.45-.96,.88-1.54,1.3-.58,.42-1.1,.72-1.58,.91-.42,.1-.95,.18-1.61,.24-.66,.06-1.26,.09-1.82,.07-.56-.02-.94-.07-1.13-.17-.22-.13-.4,.05-.53,.53-.13,.48-.22,1.17-.29,2.06-.06,.7-.06,1.22,0,1.54,.06,.32,.13,.54,.19,.67,.22,.22,.54,.5,.94,.84,.4,.34,.97,.39,1.7,.17,.61-.16,1.21-.58,1.8-1.25,.59-.67,1.14-1.22,1.66-1.63,.13-.22,.34-.36,.65-.41,.3-.05,.63-.02,.98,.07,.35,.22,.5,.49,.46,.79-.05,.3-.22,.76-.5,1.37-.1,.22-.31,.5-.65,.84s-.7,.67-1.1,1.01c-.4,.34-.76,.6-1.08,.79-.96,.51-1.86,.78-2.69,.79-.83,.02-1.63-.12-2.4-.41Zm2.83-9.74c.7-.16,1.26-.27,1.68-.34,.42-.06,.82-.25,1.2-.55,.38-.3,.86-.89,1.44-1.75,.13-.35,.17-.7,.12-1.06-.05-.35-.14-.59-.26-.72-.29-.32-.63-.42-1.03-.31-.4,.11-.78,.3-1.13,.55-.22,.1-.55,.33-.98,.7-.43,.37-.86,.78-1.27,1.25-.42,.46-.75,.89-1.01,1.27-.26,.38-.32,.61-.19,.67-.06,.13,.12,.21,.55,.24,.43,.03,.73,.05,.89,.05Z"/><path class="cls-1" d="M206.94,31.54c-.67-.29-1.12-.65-1.34-1.08-.22-.43-.17-1.02,.17-1.78,.34-.75,1.02-1.73,2.06-2.93,1.04-1.2,2.49-2.73,4.34-4.58,.99-.99,1.78-1.93,2.35-2.81,.58-.88,.86-1.42,.86-1.61-1.5-.03-3.09,.02-4.75,.14-1.18,.1-2.02,.06-2.5-.1-.48-.16-.77-.46-.86-.91-.26-.38-.28-.72-.07-1.01,.21-.29,.51-.51,.91-.67,.4-.16,.74-.24,1.03-.24,.13-.1,.5-.14,1.13-.14s1.35,.02,2.18,.07c.83,.05,1.6,.11,2.3,.19,.7,.08,1.18,.17,1.44,.26,.38,.1,.78,.26,1.2,.5,.42,.24,.76,.54,1.03,.89,.27,.35,.41,.75,.41,1.2,0,.35-.22,.84-.67,1.46s-.85,1.11-1.2,1.46c-.83,.9-1.7,1.82-2.62,2.78-.91,.96-1.8,1.9-2.66,2.83-.51,.54-1.06,1.11-1.63,1.7-.58,.59-.9,1.11-.96,1.56,.1,.16,.31,.26,.65,.29,.34,.03,.87,0,1.61-.12,.74-.11,1.76-.26,3.07-.46,1.22-.42,2.19-.59,2.93-.53,.74,.06,1.14,.3,1.2,.72-.03,.16-.16,.39-.38,.7-.22,.3-.45,.57-.67,.79-.22,.22-.38,.34-.48,.34-.77,.19-1.42,.35-1.94,.48-.53,.13-1.05,.26-1.56,.38-1.38,.35-2.45,.59-3.22,.72-.77,.13-1.38,.14-1.85,.05-.46-.1-.97-.29-1.51-.58Z"/><path class="cls-1" d="M235.78,32.84c-.61-.26-1.18-.6-1.73-1.03-.54-.43-.9-.79-1.06-1.08,0-.29,.05-.49,.14-.6,.1-.11,.38-.16,.84-.14,.46,.02,1.22,.09,2.28,.22,.38,0,.86-.03,1.44-.1,.58-.06,1.11-.16,1.61-.29,.5-.13,.78-.29,.84-.48,.16,0,.19-.06,.1-.17-.1-.11-.21-.23-.34-.36-.13,0-.27-.06-.43-.17-.16-.11-.3-.17-.43-.17,0-.16-.15-.34-.46-.55-.3-.21-.62-.38-.94-.5-.7-.58-1.31-1.1-1.82-1.56-.51-.46-.71-.78-.58-.94v-.24c-.22,0-.47-.32-.74-.96-.27-.64-.41-1.22-.41-1.73,0-.38,.11-.87,.34-1.46,.22-.59,.53-1.21,.91-1.85s.78-1.17,1.2-1.58c.58-.54,1.3-1.13,2.16-1.75,.86-.62,1.72-1.18,2.57-1.68,.85-.5,1.56-.82,2.14-.98,.58-.22,1.11-.34,1.61-.34s.94,.11,1.32,.34c.32,.16,.62,.39,.89,.7,.27,.3,.51,.61,.72,.91,.21,.3,.34,.57,.41,.79,0,.38-.03,.81-.1,1.27-.06,.46-.15,.87-.26,1.22-.11,.35-.28,.53-.5,.53-.16,.03-.24,.13-.24,.29,0,.32-.24,.69-.72,1.1-.61,.42-1.14,.66-1.58,.74-.45,.08-.72-.09-.82-.5-.1-.13-.16-.24-.19-.34s-.11-.14-.24-.14c-.19-.19-.29-.4-.29-.62,0-.13,.1-.3,.29-.53,.16,0,.37-.18,.62-.55,.25-.37,.49-.77,.7-1.2s.31-.73,.31-.89c0-.19-.02-.3-.07-.34-.05-.03-.2-.05-.46-.05-.45,.19-.99,.45-1.63,.77-.64,.32-1.24,.63-1.8,.94-.56,.3-.97,.58-1.22,.84-.13,.22-.21,.36-.24,.41-.03,.05-.11,.07-.24,.07,0-.13-.1-.07-.31,.17-.21,.24-.46,.57-.77,.98-.3,.42-.59,.82-.86,1.22-.27,.4-.47,.7-.6,.89-.06,.06-.14,.25-.22,.55-.08,.3-.12,.58-.12,.84-.13,.38-.11,.65,.05,.79,.16,.14,.51,.44,1.06,.89,1.12,.83,2,1.52,2.64,2.06,.64,.54,1.12,.99,1.44,1.34,.32,.35,.51,.67,.58,.96,.58,.96,.75,1.7,.53,2.21-.22,.51-.77,.96-1.63,1.34-.32,.16-.85,.29-1.58,.38-.74,.1-1.49,.15-2.26,.17-.77,.02-1.38,0-1.82-.07Z"/><path class="cls-1" d="M260.7,32.55c-.32-.32-.64-.76-.96-1.32-.32-.56-.58-1.21-.77-1.94-.06-.26-.09-.61-.07-1.06,.02-.45,0-.77-.02-.96-.1,.22-.25,.46-.46,.7-.21,.24-.41,.44-.6,.6-.13,.13-.42,.38-.86,.74-.45,.37-.9,.66-1.34,.89-1.06,.67-1.93,1.04-2.62,1.1-.69,.06-1.34-.29-1.94-1.06-.51-.42-.87-.88-1.08-1.39-.21-.51-.22-1.22-.02-2.11,.06-1.12,.22-2.22,.48-3.29,.26-1.07,.78-2.5,1.58-4.3,.67-1.31,1.18-2.28,1.54-2.9,.35-.62,.58-1,.67-1.13,.48-.16,.88-.15,1.2,.02,.32,.18,.51,.49,.58,.94,.19,.32,.17,.86-.07,1.63-.24,.77-.65,1.71-1.22,2.83-.45,1.09-.86,2.18-1.22,3.26-.37,1.09-.58,2.02-.65,2.78-.06,.77,.13,1.23,.58,1.39,.29,.16,.79,.11,1.51-.14,.72-.26,1.54-.9,2.45-1.92,.91-1.02,1.8-2.58,2.66-4.66,.26-.64,.45-1.21,.58-1.7,.13-.5,.21-1.05,.24-1.66-.06-.38-.04-.73,.07-1.03,.11-.3,.36-.57,.74-.79,.13-.16,.3-.31,.53-.46s.37-.14,.43,.02l.77-.05c.13-.03,.22,.04,.26,.22,.05,.18,.15,.33,.31,.46,.35,.29,.45,.91,.29,1.87-.16,.96-.61,2.3-1.34,4.03-.61,1.31-1.02,2.3-1.22,2.98-.21,.67-.33,1.33-.36,1.97,0,.58,.11,1.12,.34,1.63,.22,.51,.58,.98,1.06,1.39,.35,.22,.55,.48,.6,.77s.06,.62,.02,1.01c-.06,.29-.25,.52-.55,.7-.3,.18-.65,.26-1.03,.26s-.74-.11-1.06-.34Z"/><path class="cls-1" d="M269.91,31.16c-.1,.03-.26,.02-.48-.05-.22-.06-.45-.14-.67-.24-.22-.1-.37-.18-.43-.24-.13-.13-.25-.32-.36-.58-.11-.26-.12-.63-.02-1.13,.1-.5,.42-1.14,.96-1.94,.16-.32,.35-.8,.58-1.44,.22-.64,.46-1.32,.7-2.04,.24-.72,.46-1.37,.67-1.94,.21-.58,.36-.98,.46-1.2,.06-.54,.04-.94-.07-1.18-.11-.24-.39-.38-.84-.41-.32,0-.57-.03-.74-.1-.18-.06-.26-.38-.26-.96,.06-.45,.18-.76,.36-.94s.42-.38,.74-.6c.32-.16,.65-.27,.98-.34,.34-.06,.66-.08,.98-.05,.32,.03,.58,.14,.77,.34,.22,.13,.37,.41,.43,.84,.06,.43,.1,.87,.12,1.32,.02,.45,.04,.78,.07,1.01,.32-.26,.76-.62,1.32-1.08,.56-.46,1.05-.9,1.46-1.32,.51-.35,1.12-.71,1.82-1.08,.7-.37,1.21-.55,1.54-.55,.35,0,.7,.09,1.06,.26,.35,.18,.59,.39,.72,.65,.32,.54,.47,1.02,.46,1.44-.02,.42-.2,.85-.55,1.3-.32,.42-.71,.7-1.18,.86s-.76,.24-.89,.24c-.19,0-.43-.14-.72-.43s-.45-.53-.48-.72c0-.1-.2,0-.6,.26-.4,.27-.84,.61-1.32,1.01-.48,.4-.88,.76-1.2,1.08-.54,.67-1.12,1.58-1.73,2.74-.61,1.15-1.33,2.54-2.16,4.18-.38,.8-.66,1.48-.82,2.04-.16,.56-.38,.89-.67,.98Z"/><path class="cls-1" d="M298.13,30.29c-.35-.22-.67-.52-.96-.89-.29-.37-.43-.84-.43-1.42,0-.32,.06-.86,.19-1.63,.13-.77,.3-1.63,.53-2.59s.45-1.86,.67-2.69c.32-.58,.59-1.15,.82-1.73,.22-.58,.34-.93,.34-1.06,.06-.38,.15-.83,.26-1.34,.11-.51,.23-.98,.36-1.39,.13-.42,.22-.66,.29-.72,.16-.16,.35-.26,.58-.31,.22-.05,.46-.02,.7,.1,.24,.11,.42,.33,.55,.65,.35,.38,.53,.84,.53,1.37s-.18,1.3-.53,2.33c-.29,.64-.58,1.39-.86,2.26-.29,.86-.54,1.66-.74,2.38-.21,.72-.33,1.21-.36,1.46l-.96,.29c.54-.51,1.06-1.05,1.54-1.61,.48-.56,.83-1,1.06-1.32,.54-.74,1.01-1.35,1.42-1.85,.4-.5,.92-1.1,1.56-1.8,.64-.74,1.27-1.19,1.9-1.37,.62-.18,1.11-.26,1.46-.26,.7,.13,1.27,.49,1.7,1.08,.43,.59,.71,1.46,.84,2.62,0,.45-.08,1.28-.24,2.5,1.06-1.34,2.03-2.42,2.93-3.22,.61-.45,1.2-.71,1.78-.79,.58-.08,1.09,.12,1.54,.6,.83,.45,1.38,1.13,1.63,2.04,.26,.91,.32,2.07,.19,3.48-.1,.83-.11,1.45-.05,1.85,.06,.4,.16,.79,.29,1.18,.26,.13,.3,.39,.14,.79-.16,.4-.35,.6-.58,.6-.32,0-.68-.06-1.08-.19-.4-.13-.75-.34-1.06-.65-.3-.3-.46-.73-.46-1.27v-2.98c0-.7-.02-1.28-.07-1.73-.05-.45-.14-.72-.26-.82-.35-.19-.86,.02-1.54,.62-.67,.61-1.39,1.42-2.16,2.45-.77,1.02-1.49,2.08-2.16,3.17-.61,.99-.98,1.56-1.13,1.7s-.39,.1-.74-.12c-.7-.22-1.14-.54-1.32-.94-.18-.4-.2-.86-.07-1.37,.16-.54,.36-1.28,.6-2.21,.24-.93,.47-1.83,.7-2.71,.22-.88,.37-1.51,.43-1.9-.13-.26-.34-.34-.65-.26-.3,.08-.62,.23-.94,.46-.38,.26-.85,.74-1.39,1.44-.54,.7-1.1,1.52-1.68,2.45-.38,.61-.78,1.21-1.2,1.8-.42,.59-.8,1.11-1.15,1.56-.35,.45-.66,.78-.91,1.01-.45,.7-.75,1.09-.91,1.15-.16,.06-.46-.02-.91-.24Z"/><path class="cls-1" d="M327.8,30.82c-.67,.13-1.1,.17-1.27,.12-.18-.05-.44-.23-.79-.55-.51-.26-.94-.58-1.27-.96-.34-.38-.58-.79-.72-1.22-.14-.43-.2-.79-.17-1.08,.1-1.12,.37-2.32,.82-3.6,.45-1.28,.99-2.51,1.63-3.7,.64-1.18,1.33-2.2,2.09-3.05,.75-.85,1.48-1.4,2.18-1.66,.64-.26,1.25-.35,1.82-.29,.58,.06,.99,.37,1.25,.91,.48,.93,.37,1.52-.34,1.78-.1,0-.21,.04-.34,.12-.13,.08-.19,.18-.19,.31,.13,.06,.48,.07,1.06,.02,.58-.05,1.16-.14,1.75-.29s.98-.3,1.18-.46c.19-.1,.34-.14,.43-.14s.34,.03,.72,.1c.54,.16,.82,.35,.82,.58,0,.13,.05,.25,.14,.36,.1,.11,.21,.17,.34,.17,.22,.03,.2,.18-.07,.43-.27,.26-.73,.61-1.37,1.06-.61,.38-.98,.63-1.13,.74-.14,.11-.17,.34-.07,.7,.26,.61,.27,1.31,.05,2.11-.22,.8-.62,1.62-1.2,2.45-.58,.83-1.27,1.61-2.09,2.33-.82,.72-1.68,1.33-2.59,1.82-.91,.5-1.8,.79-2.66,.89Zm-.82-2.11c.13,0,.35-.07,.67-.22,.32-.14,.58-.26,.77-.36,.13-.13,.3-.28,.5-.46s.38-.28,.5-.31c.13,0,.29-.06,.48-.17,.19-.11,.46-.35,.82-.72,.35-.37,.82-.92,1.39-1.66,.64-.7,1.14-1.35,1.49-1.94,.35-.59,.45-1.14,.29-1.66-.03-.13-.12-.21-.26-.24-.14-.03-.33-.11-.55-.24-.32,0-.62-.09-.89-.26-.27-.18-.58-.41-.94-.7l-.77-.96-.82,.82c-.51,.51-1.05,1.27-1.61,2.28s-1.03,2.03-1.42,3.07c-.38,1.04-.61,1.86-.67,2.47-.03,.48,.05,.8,.24,.96,.19,.16,.45,.26,.77,.29Z"/><path class="cls-1" d="M340.61,30.29c-.13,0-.37-.08-.72-.24,0-.13-.04-.29-.12-.48-.08-.19-.12-.35-.12-.48-.22-.13-.35-.26-.38-.41-.03-.14,.02-.39,.14-.74,.19-.32,.45-.84,.77-1.56,.32-.72,.66-1.5,1.01-2.35,.35-.85,.69-1.69,1.01-2.52,.32-.83,.59-1.54,.82-2.14,.22-.59,.35-.95,.38-1.08,0-.13,.05-.29,.14-.48,.1-.19,.21-.35,.34-.48,.26-.22,.53-.25,.82-.07,.29,.18,.54,.46,.74,.86,.21,.4,.31,.84,.31,1.32,0,.22-.16,.79-.48,1.7-.32,.91-.74,1.99-1.27,3.24-.53,1.25-1.11,2.51-1.75,3.79-.48,.93-.78,1.51-.91,1.75-.13,.24-.37,.36-.72,.36Zm7.06-18.19c-.38,0-.79-.15-1.22-.46-.43-.3-.8-.69-1.1-1.15-.3-.46-.46-.94-.46-1.42,0-.16,.1-.38,.29-.67,.19-.29,.38-.58,.58-.86,.19-.29,.29-.46,.29-.53,.26,0,.46,0,.6,.02,.14,.02,.33,.09,.55,.22,.35,.8,.79,1.46,1.32,1.97,.53,.51,.79,.94,.79,1.3,0,.7-.06,1.14-.19,1.32-.13,.18-.61,.26-1.44,.26Z"/></g></g></svg>