<?xml version="1.0" encoding="UTF-8"?><svg id="Layer_2" xmlns="http://www.w3.org/2000/svg" width="243.06" height="104.77" viewBox="0 0 243.06 104.77"><defs><style>.cls-1{letter-spacing:-.02em;}.cls-2{fill:#faf5e0;}.cls-3{letter-spacing:-.03em;}.cls-4{fill:#f9f3dc;font-family:Caveat-Regular, Caveat;font-size:48px;}</style></defs><g id="Layer_1-2"><g><text class="cls-4" transform="translate(0 38.64)"><tspan class="cls-1" x="0" y="0">C</tspan><tspan class="cls-3" x="21.55" y="0">liquez sur moi !</tspan></text><g><g><path class="cls-2" d="M35.1,49.43c-.06-.06-.25-.14-.25-.04l.27,.2-.02-.16Z"/><path class="cls-2" d="M34.31,49.67c.1,.16,.31,.38,.61,.46-.25-.23-.12-.19-.41-.45,0-.09,.16-.09,.26-.02-.06-.06,.12-.09-.05-.22-.28-.01-.34,.11-.21,.33-.08,0-.14-.07-.2-.1Z"/><path class="cls-2" d="M30.54,56.96l.06-.03s-.04,.02-.06,.03Z"/><path class="cls-2" d="M28.48,61.6s-.02-.07-.05-.08c0,.04,.02,.08,.05,.08Z"/><path class="cls-2" d="M27.83,62.28l.04-.04s-.06,.02-.04,.04Z"/><path class="cls-2" d="M30.54,56.96l-.15,.09c.1,.05,.1-.03,.15-.09Z"/><path class="cls-2" d="M34.56,51.03s-.02-.07-.05-.1c0,.03,0,.05,0,.08l.05,.03Z"/><path class="cls-2" d="M31.15,54.78l.02-.04-.11-.08,.09,.12Z"/><path class="cls-2" d="M31.79,53.18s.23,.16,.33,.22c-.1-.07-.14-.12-.14-.15-.05-.02-.11-.04-.19-.06Z"/><path class="cls-2" d="M33.36,50.9v0Z"/><path class="cls-2" d="M30.62,55.9s-.08-.02-.1-.02c.03,.01,.07,.02,.1,.02Z"/><path class="cls-2" d="M17.06,101.84h-.05s.04,.01,.05,0Z"/><polygon class="cls-2" points="15.25 103.43 15.24 103.4 15.09 103.36 15.25 103.43"/><path class="cls-2" d="M26.92,63.63h0c-.02-.06-.02-.03,0,0Z"/><path class="cls-2" d="M22.16,77.4c.29-.07,.22,.36,.56,.22-.11-.01-.34-.36-.56-.22Z"/><path class="cls-2" d="M34.5,51.06s-.01,.04-.03,.06c.02-.02,.03-.04,.03-.06Z"/><path class="cls-2" d="M22.72,77.62h0Z"/><path class="cls-2" d="M25.79,67.11s.09,0,.13,0c-.03,0-.06-.01-.13,0Z"/><path class="cls-2" d="M27.13,64.7l-.06,.05s.05-.03,.06-.05Z"/><path class="cls-2" d="M25.68,68.58s-.07,.03-.06,.09c.01,0,.03,0,.04,0-.03-.03-.04-.06,.02-.08Z"/><path class="cls-2" d="M25.17,69.96h.06v-.06l-.06,.06Z"/><path class="cls-2" d="M18.11,97.55c-.09,0-.17,0-.26,0,.2,.03,.2,.26,.26,0Z"/><path class="cls-2" d="M34.41,50.97c.06,.04,.09,.06,.09,.09,0-.02,0-.03,0-.05-.04-.02-.07-.04-.1-.04Z"/><path class="cls-2" d="M27.74,69.4l-.12,.2c.05-.05,.09-.13,.12-.2Z"/><path class="cls-2" d="M21.2,87.51l.02,.06s.01-.04-.02-.06Z"/><path class="cls-2" d="M27.42,70.27c-.11,0-.18,.03-.23,.06,.02,.02,.03,.03,.06,.05l.17-.11Z"/><path class="cls-2" d="M17.85,97.54h0Z"/><path class="cls-2" d="M18.07,99.19c.07-.21-.32-.2-.51-.3-.03-.28,.29-.04,.5-.08-.05-.18-.34-.4-.29-.51,.06,0,.09,0,.15,.04-.23-.25,.13-.5-.17-.8,.04,0,.07,0,.1,0-.19-.02-.37-.07-.5-.11,.02-.1-.17-.24,.07-.21-.02,.06,.07,.09,.13,.14l-.07-.13c.36,0,.07,.17,.32,.24-.05-.23-.26-.53-.12-.66,.33,.07,0,.38,.35,.27l-.19,.19c.57-.02-.08,.13,.52,.13,.19-.27-.06-.39,.12-.66-.16-.12-.27-.06-.43-.18-.2-.53,.92-.09,.58-.54-.19-.15-.59-.3-.31-.46l.34,.19c.12-.28-.48-.33-.14-.56,.13,.1,.05,.27,.11,.24,.35-.11-.17-.2-.12-.36l.33,.07c.04-.33-.09-.74-.04-1.11,.09,.05,.17,.14,.3,.09-.03-.49,.33-.92,.65-1.28l-.23-.25s.15-.03,.19,.03c.16-.13-.18-.06-.26-.18,0-.1,.2-.07,.27,.01-.15-.36-.26-.98,.14-1.19l.06,.09c.19-.2-.49-.45-.16-.59l.04,.06c.29-.47,.21-1.12,.76-1.38-.38-.2,.34-.45-.21-.66,.37-.2,.45-.09,.76-.44,.06-.1-.3-.28-.31-.43l.29,.09-.25-.28,.38,.02-.03-.15s-.17,.07-.25,.03c-.07-.24,.36-.42,.52-.38l-.09-.55c.11,.05,.13,.14,.18,.23-.22-.35,.32,.06,.13-.26-.08,0-.17-.07-.23-.1,.21-.06,.3-.32,.29-.54l.19,.1c.17-.33,.15-.77,.28-1.16-.14,.11-.48-.04-.48-.16l.32,.06c-.17-.14-.16,.08-.34-.15,.08-.13,.38,.02,.46,.14l-.05-.21c.1,.02,.13,.08,.24,.13-.17-.14,.41-.2,.11-.42l.1,.02c.13-.39,.09-.6,.18-.93-.26-.1-.16-.2-.35-.37,.16-.21,.46-.4,.53-.69-.07-.24-.21-.13-.33-.28,.25,.07,.32-.22,.45-.02,.07-.35,.1-.45,.05-.94-.11,.01-.18,.05-.25,0-.01-.09,.16-.14,.27-.09l.02,.03c-.2-.6,1.08-.87,.71-1.42l.02,.03-.13-.49c.1-.17,.14,.17,.34,.09-.26-.57,.29-.65,.14-1.1,.81-.03,.28-.98,.87-1.19l-.18-.04c-.13-.15,.14-.08,.2-.14-.13-.04-.19,.05-.26-.04,.07-.88,.83-1.57,1.27-2.34,.15-.28-.81-.48-.27-.72l.27,.22c-.16-.74,.45-1.24,.35-1.94,.06,.06,.15,.1,.13,.15,.27-.04,.18-.46,0-.53,.05-.08,.17,.04,.29,.02,.18-.08-.17-.42,.08-.4,.04,0,.06,.06,.07,.09-.08-.12,.17-.37-.12-.39,.21-.18,.04-.47,.26-.59-.25-.22,.28-.33-.12-.52,.42,.17,.49-.26,.34-.48,.11,.09,.18-.07,.34,.05,.05-.16,.03-.34-.2-.39,.62-.11-.19-.74,.52-.67-.05-.56-.05-1.06,.02-1.52,.42,.17-.14,.49,.31,.63-.02-.47-.3-.84-.04-1.2,.1-.08,.16,.13,.22,.19-.02-.47,.33-.77,.24-1.21,.04,.02,.07,.07,.09,.12,.01-.08,.12-.14-.07-.21l.03,.09c-.32,0-.47-.5-.62-.57,.5,.33,.27-.3,.89,.15-.02-.06-.09-.15-.22-.19,.06-.06,.15-.05,.27,.08,0-.29-.25-.28-.15-.51,.09,.04,.11,.1,.21,.16-.14-.19-.27-.37-.12-.54,.05,.03,.13,.04,.11,.1,.1-.34-.27-.76,.05-1.05,.36,.26,.18-.07,.54,.04l-.03-.24h-.2c.07-.16-.12-.41,.05-.51l.09,.18,.06-.35-.2,.13c-.11-.24-.45-.15-.26-.34,.02,.06,.07-.17,.31-.18h0c-.08-.13-.16-.26-.02-.35,.12,.01,.37,.18,.46,.19-.26-.2,.08-.43-.19-.66,.06,.06,.24,.14,.28,.14l-.21-.16c.11-.05,.15-.05,.29,.02,.14-.22-.47-.1-.17-.31,.01,.03,.05,.03,.07,.09,.21-.25,.07-.61,.29-.83,.38,.06,0,.26,.32,.29,.08-.4-.11-.95,.12-1.28l-.07,.05c-.47-.25,.35-.17,.2-.45,.02,.06,.25,.17,.2,.14,.18-.22,.09-.56,.09-1l.11,.1c.17-.1,.22-.36,.35-.49-.11-.1-.05-.18-.25-.2,.92-.19,0-1.09,.78-1.28-.02,.05,.06,.17,.08,.13l.04-.41c-.23-.06-.15,0-.35,0-.11-.1-.16-.25-.12-.34,.07,.23,.34,.14,.49,.12-.07-.02-.13-.07-.2-.09,.46-.03-.41-.21-.05-.37l.11,.06c-.01-.12-.12-.28-.04-.37,.26,.06,.07,.15,.27,.25,.05-.15-.34-.49-.03-.52,.04,.09,0,.18,.04,.28,.35-.02,.29-.07,.38-.16h-.01l.24-.19-.11,.03c-.56-.46,.05-.43-.26-.86,.29,.42,.21,.14,.48,.28,.1-.03,.23-.09,.3-.03-.17-.22,.26-.12,0-.43,.09,.03,.06-.12,.28,0,0-.18-.17-.03-.28-.1-.2-.37,.61-.39,.35-.91-.04-.37-.31-.56-.33-.9,.18-.03,.29,.22,.29,.22,.2-.09,.23-.21,.19-.39,.06,.06,.14,.07,.26,.07,.03-.12-.29-.22-.09-.31,.09,.07,.23,.18,.3,.28-.02-.17-.13-.37-.14-.55,.17,.04,.19,.19,.27,.29,0-.18,.04-.46-.18-.62l-.13,.06c.01-.06,.22,.07,.25,.13,.13,.22-.17,.15-.26,.11v-.12c-.57-.15-.11,.43-.23,.6l-.34-.26,.22,.35c-.12,0-.34-.07-.35-.19-.25,.05,.08,.19-.19,.21-.04,0-.05-.02-.06-.04l.05,.19c-.07-.06-.28-.1-.18-.16-.33,.14,.1,.52-.23,.49v-.03c-.04,.4,.25,.16,.46,.56l-.77-.14,.26,.16s-.08,.09-.18,.03c.13,.22,.13,.03,.28,.19-.33,.06-.09,.52-.55,.36,.19,.16,.23-.09,.3,.16-.5-.16,0,.25-.3,.3-.23-.16-.03-.25-.32-.19,.38,.28-.22,.26-.2,.43,.33,.15,.01,.35,.03,.62-.11-.06-.36,.34-.57,.49l-.05-.03c.32,.18,.16,.37,.17,.55-.2-.09-.27-.15-.32-.28l-.06,.15c.09,.08,.13,.15,.13,.26l-.24-.14c-.07,.2,.13,.52-.14,.69,.23,.11,.74,.08,.79,.41-.13-.04-.35-.13-.38-.22,0,.03,.07,.13,0,.15l-.17-.2c-.14,.07,.15,.13,.1,.22-.18-.08-.16,.01-.3-.06,0-.03,.11-.05,.05-.11-.07,.09-.23,.17-.39,.15,.11,.03,.25,.1,.24,.19-.07,.2-.25-.02-.39,.05,.11,.1-.08,.17,.2,.29-.02,.06-.16,.01-.24,0,.08,.15-.16,.48,.18,.49l.03-.02v.02h0c.14,.44-.44,.62-.45,1l-.09-.04c.02,.24-.12,.46,.02,.68-.02,.06-.22,.07-.32,0,0,.18,.1,.23-.14,.39-.1-.22-.16,0-.05-.2-.16,.16-.32,.15-.15,.46-.21-.17-.35,.03-.32,.15l.22-.07c0,.12-.06,.2-.12,.29l-.29-.17c-.53,.25,.36,.97-.39,1.03,.17,.19,.24-.16,.45,.04-.11,.17-.63,.18-.66,.24-.27,.18,.36,.41,.14,.63,.12,0,.43,.09,.46,.33-.11,.17-.55,.05-.6-.11,0-.05,.05-.06,.09-.04-.02-.08-.03-.17-.18-.15l.1,.07c-.15,.05-.24,.31-.39,.18,.05,.18,.16,.13,.26,.05-.25,.17-.15,.37-.35,.57,.08-.02,.22,0,.2,.04-.28,.3,.15,.24,.1,.5-.22,.07-.38-.2-.34,.09-.17,.11-.31-.08-.37-.18,.13,.3-.3,.36-.39,.47l-.04-.15c.03,.09,0,.15-.02,.21l.25,.02c-.06,.05-.09,.11-.18,.08,.12,.13,.39,.09,.53,.3-.15,.05,.02,.33-.29,.24,.21-.25-.31-.08-.26-.34,.02,.06,0,.12-.07,.17-.04,0-.06-.03-.07-.06-.37,.18,.28,.25,.17,.54-.15-.1-.34-.05-.32,0,.05-.11,.3,.05,.38,.2-.2,.13,.02,.24-.03,.33l.1-.09c.15,.1,.1,.18,.1,.33-.13-.04-.05-.15-.12-.13,.24,.25-.42,.21-.3,.48-.15,.05-.32-.11-.42-.06,.13,.3-.32,.15-.23,.46,.25,.02,.2-.02,.35,.23v-.44l.22,.37c.05-.11-.05-.3,.02-.35,.14,.19,.09,.15,.29,.17-.39,.03,.08,.39-.22,.48l-.55-.21c-.35,.18,.1,.59-.17,.9l.14-.08c.2,.13-.05,.23,0,.38-.18-.08-.28-.03-.41-.03,.14,.04-.11,.26,.25,.43l-.3,.07c-.21,.25,.41,.53,.24,.78-.17-.16-.35-.08-.42-.32-.04,.09-.1,.16,.03,.21-.14,.01,.16,.35-.05,.37,.07,.07,.26,.15,.2,.25-.04,0-.09-.03-.09-.03,.09,.03,.06,.21,.3,.19-.68,.07-.25,.81-.84,.88-.01,.23-.04,.49-.1,.68-.05-.03-.09-.03-.06-.06-.27,.19,.48,.35,.18,.57-.35,.04-.11-.21-.25-.16-.63-.18-.04,.38-.47,.45l-.02-.06c-.26,.07,.1,.45-.03,.67,0,0-.05-.03-.09-.03,.25,.28,.24,.63,.25,.9-.21-.16-.09-.15-.35-.19,0,.12,.4,.11,.4,.34-.16,.02-.32,.13-.59,.06l.06-.2c-.37-.02-.08,.26-.18,.34l-.14-.07c-.06,.32,.31,.46,.17,.77h.12c.3,.31-.26,.08-.05,.36l-.39-.08c.05,.15,.21,.54,.21,.77-.23-.22-.29-.51-.4-.72-.04,.12-.11,.41,.05,.53-.02-.06-.09-.15-.02-.18,.24,.25,.32,.48,.23,.71-.71-.29-.39,.54-1.01,.52,.12,.5-.4,.78-.52,1.27,.62,.02-.03,.15,.56,.32,0,.12-.03,.16-.07,.16l-.46,.22c-.2,.02-.09-.15-.22-.18-.13,.23-.28,.02-.49,.13,.22,.04,.27,.19,.14,.3l.33-.1c.19,.45-.59,.13-.4,.58l-.14-.17c.05,.21-.23,.65,.18,.98-.08,0-.25,0-.27-.1-.21,.4,.18,1.11-.22,1.34l-.13-.08c.01,.09,.22,.23,.04,.28-.06-.02-.13-.08-.15-.05,.03,.06,.18,.29,.06,.37l-.13-.14c-.33,.35,.17,.77,.15,1.14-.42-.14-.66,.14-.78,.28l-.06-.03c-.21,.46,.07,.93,.09,1.44-.54,.13-.5,.88-.9,1.24,.1-.04,.32,.12,.34,.21-.12,.08,.2,.38-.18,.24l.02-.03c-.4-.04-.37,.2-.44,.37l.49,.19c-.87,.2-.11,1.24-.84,1.27,.09,.15,.05,.28,.14,.42l-.27-.09c-.16,.27-.24,.41-.3,.79l-.17-.14c-.08,.2,.69,.51,.65,.7l-.42-.07c-.11,.36-.58,.61-.33,1.08-.06-.02-.17-.07-.17-.14-.06,.17-.48,.57,.09,.68-.36-.11-.15,.36-.05,.6l-.26-.11c.29,.27,.38,.31,.4,.56-.05,.04-.23-.02-.14-.07-.2,.14,.21,.22,0,.39l-.14-.13c-.08,.18,.02,.19,.18,.36,.07,.15-.18,.33-.43,.28,.14,.07,.3,.23,.2,.32-.1-.01-.14-.07-.16-.1-.28,.25,.17,.56-.16,.69-.09-.02-.14-.02-.17-.01,.08-.24,.16-.44,.17-.41-.25-.08-.35,.11-.64-.15,.14,.22,.45,.62,.28,.77-.03,0-.05,0-.09,0l-.02-.03s-.03,.08,0,.14c-.06,.05-.1,.08-.12,.14-.21-.04-.18,.2-.22,.29,.27,.07,.19,.19,.45,.14-.02,0-.03-.03-.02-.1,0-.02,0-.04-.01-.05h.02l.06-.24c.11,.12,.2,.24,.02,.3l.39,.27c-.42,.02-.7,.22-.94,.19,.06,.35-.12,.75,.33,1.09,.04,.11-.17,.06-.26,.06-.04-.07-.01-.12-.07-.17,.08,.21-.1,.53,.24,.67-.22,.17-.29-.22-.32,.1l-.1-.07c-.74,.42,.62,1.22-.3,1.67,.06-.03,.08-.05,.15-.04-.53,.66-.15,1.62-.85,2.23-.16,.18,.06,.27,.2,.44l-.3-.03,.28,.31c.16,.38-.86,.36-.5,.88h.21c-.08,.13,0,.48-.21,.4,.03,.02,.2,.1,.08,.13l-.15-.03,.18,.42c-.17,.25-.6-.18-.73,.23,.02,.17,.35,.52,.47,.48,.02-.06,.13-.14,.29-.11l.05,.15c.45,.11,.9,.3,1.29,.05l-.23-.28,.24-.02-.03,.19c.23-.06,.06-.17-.05-.27,.12,0,.21,0,.26-.04l-.38-.32c.18,.01,.33,.18,.46,.05-.18-.15-.42,0-.51-.19,.23-.06,.39,.01,.24-.15,.12,.01,.19,.05,.23,.12-.11-.14,0-.31-.22-.43,.28-.05,.04-.4,.46-.28-.09-.06-.28-.28-.27-.39,.46,.32,.13-.38,.67-.19-.42-.26-.07-.56-.26-.88,.03,.02,.1,.07,.07,.09,.08-.13,.22-.13,.33-.2-.37-.12-.4-.36-.6-.55,.41-.07,.41,.23,.78,.27-.31-.08-.22-.38-.49-.4,.26-.07,.14-.08,.47-.06-.47-.16-.05-.14-.3-.34,.29-.12,.46,.08,.37-.17,.17-.06,.29,.17,.29,.17Zm.66-5.19h0l-.02,.11v-.11Zm.14-.42s-.05,.11-.07,.18c-.1-.01-.19-.06-.17-.1,.06,.04,.14-.04,.24-.08Zm-2.14,.31c-.02-.08,.04-.08,.1-.08,0,.03,0,.07,0,.13l.03,.02s-.1-.04-.13-.07Z"/><path class="cls-2" d="M17.03,94.12s.01,.02,.01,.03c.03,0,.05-.01,.07-.02l-.08-.05v.04Z"/><path class="cls-2" d="M30.61,56.92h0s.03,0,.04,0h-.03Z"/><polygon class="cls-2" points="21.18 88.01 21.11 87.99 21.16 88.05 21.18 88.01"/><path class="cls-2" d="M32.42,55.07s.05,0,.08,0c-.02,0-.05,0-.08,0Z"/><path class="cls-2" d="M32.89,54.15l.15-.09c-.08,.04-.12,.07-.15,.09Z"/><path class="cls-2" d="M33.34,53.48s-.07-.05-.1-.06h0l.11,.06Z"/><path class="cls-2" d="M28.9,65.32s0,.02,0,.03c.03,.09,.02,.03,0-.03Z"/><path class="cls-2" d="M29.64,61.57c.03,.06,.07,.11,.08,.16,.04-.05,.07-.1-.08-.16Z"/><polygon class="cls-2" points="27.75 69.38 27.75 69.37 27.74 69.4 27.75 69.38"/><path class="cls-2" d="M29.66,61.89c.08-.04,.09-.1,.07-.16-.04,.04-.09,.09-.07,.16Z"/><path class="cls-2" d="M34.88,50.4l.03-.03s-.03-.02-.04-.02v.05Z"/><path class="cls-2" d="M34.87,50.35v-.05s-.03,.03,0,.05Z"/><path class="cls-2" d="M34.83,50.19l.03,.11s.04-.06-.03-.11Z"/><path class="cls-2" d="M34.32,51.3l.09,.05s-.04-.03-.09-.05Z"/><path class="cls-2" d="M34.21,51.6c.05-.06,.28-.08,.26-.2l-.07-.04c.12,.11-.32,.11-.2,.25Z"/><path class="cls-2" d="M32.5,52.3l.18-.21c-.12,0-.28,0-.25-.13-.43,.18,.25,.03,.07,.34Z"/><path class="cls-2" d="M32.03,53c.01-.15-.15-.06-.2-.09,.05,.12,.07,.15,.2,.09Z"/><path class="cls-2" d="M29.68,58.58l-.23-.11c0,.12,.09,.04,.23,.11Z"/><polygon class="cls-2" points="30.48 60.14 30.67 60.1 30.47 59.96 30.48 60.14"/><polygon class="cls-2" points="28.54 60.1 28.52 60.04 28.54 60.25 28.54 60.1"/><path class="cls-2" d="M25.03,69.63l.31,.08c-.03-.09-.35-.23-.31-.08Z"/><path class="cls-2" d="M23.85,73.86c-.16,0-.3,.07-.18,.2,.05-.09,.2-.14,.18-.2Z"/><polygon class="cls-2" points="19.14 86.13 19.06 86.01 19.1 86.2 19.14 86.13"/></g><g><path class="cls-2" d="M13.65,104.13c.09,0,.28-.05,.23-.07l-.33,.05,.09,.02Z"/><path class="cls-2" d="M14.22,103.84c-.16,0-.45,.02-.74,.1,.32-.03,.19,0,.57-.04,.04,.02-.1,.06-.22,.08,.08,0-.06,.05,.14,.03,.24-.08,.25-.13,.03-.13,.07-.02,.16-.03,.22-.04Z"/><path class="cls-2" d="M14.23,101.31l-.04,.02s.03-.02,.04-.02Z"/><path class="cls-2" d="M14.11,99.76s.04,0,.07,0c-.02,0-.05-.01-.07,0Z"/><path class="cls-2" d="M14.41,99.43s-.01,.01-.02,.02c.03-.01,.04-.02,.02-.02Z"/><path class="cls-2" d="M14.23,101.31l.09-.06c-.11,.02-.07,.04-.09,.06Z"/><path class="cls-2" d="M13.36,103.66s.05,0,.09,0c-.02,0-.03,0-.04-.01h-.05Z"/><path class="cls-2" d="M14.63,101.92h0s.08,0,.13,0h-.14Z"/><path class="cls-2" d="M14.78,102.42s-.27,.04-.39,.06c.11-.02,.17-.02,.19-.01,.05-.01,.11-.02,.19-.04Z"/><path class="cls-2" d="M14.46,103.32h.04s-.02,0-.04,0Z"/><path class="cls-2" d="M14.61,101.54s.08-.02,.1-.02c-.03,0-.07,.02-.1,.02Z"/><path class="cls-2" d="M9.67,87.7s.03,0,.05,0c-.03,0-.05,0-.05,0Z"/><path class="cls-2" d="M10.92,86.83h.02c.05,0,.1-.01,.15-.02l-.17,.02Z"/><path class="cls-2" d="M14.67,98.89h0s.03,0,0,0Z"/><path class="cls-2" d="M13.6,94.61c-.24,.1-.33-.02-.59,.11,.11-.03,.44-.02,.59-.11Z"/><path class="cls-2" d="M13.4,103.64s0-.01,0-.02c0,.01,0,.02,0,.02Z"/><path class="cls-2" d="M13.01,94.72h0Z"/><path class="cls-2" d="M14.29,97.84s-.08,.02-.12,.04c.03,0,.06-.02,.12-.04Z"/><path class="cls-2" d="M14.06,98.73l.03-.03s-.03,.02-.03,.03Z"/><path class="cls-2" d="M13.81,97.5s.06-.03,.02-.03h-.03s.06,.01,.02,.03Z"/><path class="cls-2" d="M13.72,97.06s-.04,.01-.05,.02h.02l.04-.02Z"/><path class="cls-2" d="M10.07,89c.08-.03,.16-.05,.24-.07-.19,.05-.28,0-.24,.07Z"/><path class="cls-2" d="M13.52,103.63c-.07,.01-.11,.01-.12,.01,0,0,.01,0,.02,.01,.04,0,.08-.01,.1-.02Z"/><path class="cls-2" d="M11.64,97.92l.03-.08s-.03,.05-.03,.08Z"/><path class="cls-2" d="M10.74,92.13h-.04s0,0,.04,0Z"/><path class="cls-2" d="M11.58,97.64c.09-.03,.15-.06,.18-.08-.02,0-.04,0-.07,0l-.11,.07Z"/><path class="cls-2" d="M10.32,88.93h0Z"/><path class="cls-2" d="M9.57,88.6c0,.07,.36-.04,.57-.07,.12,.06-.26,.09-.44,.15,.11,.03,.45,0,.44,.04-.06,.01-.08,.03-.16,.03,.3,0,.05,.15,.42,.14-.03,.01-.06,.02-.09,.03,.18-.05,.36-.09,.5-.11,.01,.03,.24,0,0,.07,0-.02-.09,0-.17,0h.11c-.33,.11-.13,0-.38,.04,.12,.04,.42,.05,.33,.12-.33,.08-.13-.09-.42,.04l.11-.1c-.51,.16,.03-.05-.52,.11-.08,.11,.19,.07,.11,.19,.19-.02,.27-.06,.46-.08,.36,.07-.82,.27-.35,.28,.23-.02,.65-.09,.44,.02l-.38,.05c-.02,.1,.55-.06,.32,.09-.15,.01-.14-.05-.18-.02-.28,.12,.22,0,.23,.05l-.33,.08c.07,.09,.33,.15,.42,.24-.1,.01-.21,.02-.31,.06,.19,.1,.02,.3-.15,.47h.3s-.13,.04-.18,.04c-.1,.07,.18-.03,.3-.03,.03,.03-.16,.07-.25,.07,.26,.04,.58,.15,.29,.31h-.09c-.1,.1,.61-.04,.35,.09h-.05c-.09,.18,.21,.31-.2,.52,.42-.06-.15,.2,.43,.09-.27,.15-.38,.14-.54,.31-.02,.04,.37-.02,.44,0l-.3,.06h.33l-.36,.1,.09,.02s.13-.06,.22-.08c.15,.03-.18,.19-.33,.23l.29,.1c-.12,.02-.17,0-.25,0,.32,.02-.32,.08-.02,.09,.07-.02,.18-.03,.24-.04-.18,.07-.16,.16-.07,.2l-.21,.03c-.03,.12,.15,.21,.17,.34,.09-.06,.45-.13,.49-.1l-.32,.08c.2-.02,.11-.06,.36-.06-.03,.05-.36,.1-.47,.1l.12,.03c-.09,.02-.15,.02-.27,.04,.2-.02-.3,.16,.05,.12l-.09,.02c.02,.12,.14,.16,.18,.25,.28-.05,.22,0,.45-.02-.07,.09-.27,.22-.23,.3,.15,.03,.24-.03,.41-.03-.25,.06-.21,.14-.4,.13,.06,.1,.08,.13,.31,.22,.1-.04,.14-.06,.23-.07,.05,.02-.09,.08-.22,.1h-.03c.41,.07-.66,.5-.11,.51h-.03l.3,.07c-.03,.07-.2,0-.34,.08,.45,.05-.02,.23,.28,.28-.72,.23,.11,.29-.34,.51l.17-.04c.18,0-.09,.06-.13,.09,.13-.03,.15-.06,.25-.06,.26,.21-.15,.58-.25,.87-.03,.1,.91-.13,.52,.08l-.33,.03c.43,.11,.07,.4,.43,.52-.08,0-.17,.02-.18,0-.23,.09,.02,.15,.21,.11-.02,.03-.17,.04-.27,.08-.13,.07,.32,.04,.09,.11-.04,.01-.08,0-.1,0,.12,0,0,.13,.26,.05-.12,.1,.15,.11,0,.2,.31-.02-.12,.15,.31,.08-.44,.08-.33,.2-.12,.2-.14,.01-.13,.07-.32,.09,.02,.05,.11,.08,.33,.03-.51,.2,.47,.1-.2,.29,.27,.1,.46,.21,.59,.33-.44,.08-.07-.14-.54-.04,.21,.09,.6,.09,.52,.24-.05,.05-.2,.02-.27,.02,.21,.09,.01,.26,.27,.32-.04,0-.09,0-.12,0,.02,.02-.05,.07,.15,.02h-.06c.28-.11,.63-.04,.78-.07-.58,.08-.12,.14-.86,.23,.04,0,.14,0,.27-.02-.03,.03-.11,.05-.27,.06,.13,.06,.33-.01,.34,.06-.1,.02-.14,.01-.25,.03,.2,0,.39,0,.32,.08-.06,0-.13,.03-.14,.01,.05,.1,.54,.08,.38,.23-.43,.05-.13,.07-.5,.15l.12,.04,.17-.06c0,.06,.28,.05,.17,.12h-.16l.09,.08,.13-.09c.2,.02,.46-.1,.37,0-.04,0,0,.06-.2,.13h0c.12,0,.25,0,.17,.07-.11,.03-.41,.07-.48,.1,.31-.03,.11,.11,.44,.08-.08,0-.27,.04-.31,.05l.25-.03c-.07,.04-.11,.05-.27,.08-.03,.09,.46-.12,.28,.01-.02,0-.06,0-.1,0-.09,.11,.19,.14,.09,.25-.36,.1-.1-.06-.41,.04,.09,.11,.49,.16,.43,.3l.04-.03c.52-.09-.24,.14,.02,.15-.04,0-.29,.04-.23,.03-.07,.1,.16,.14,.35,.23h-.14c-.11,.08-.04,.15-.09,.21,.14-.01,.12,.02,.31-.03-.73,.31,.47,.22-.14,.49,0-.02-.12-.02-.12,0l.15,.09c.22-.06,.13-.04,.31-.1,.14-.01,.25,0,.25,.03-.16-.02-.36,.07-.49,.12,.07-.02,.15-.03,.22-.04-.39,.14,.46-.08,.2,.06l-.12,.02c.07,.02,.23,.02,.2,.06-.26,.07-.13,0-.35,.03,.02,.05,.52,0,.26,.09-.08,0-.08-.03-.16-.04-.3,.11-.22,.1-.26,.14h0l-.12,.1,.08-.04c.7-.08,.15,.1,.61,.09-.44,0-.25,.04-.55,.09-.08,.04-.16,.09-.25,.1,.25,0-.18,.1,.19,.09-.1,.02,0,.04-.24,.08,.09,.03,.16-.05,.28-.07,.34,.01-.36,.26,.11,.28,.2,.06,.53,.01,.71,.07-.15,.06-.35,.05-.35,.05-.13,.08-.1,.11,.02,.13-.09,0-.15,.03-.26,.07,.03,.03,.35-.05,.22,.03-.11,.01-.28,.04-.39,.04,.1,.03,.28,.03,.38,.06-.16,.05-.26,.02-.37,.03,.09,.03,.18,.1,.44,.06l.09-.05s-.22,.05-.28,.05c-.22,0,.08-.08,.17-.1l.07,.02c.55-.15-.12-.11-.1-.18l.41-.06h-.35c.1-.03,.33-.09,.4-.07,.19-.09-.15-.01,.06-.1,.03-.01,.05-.01,.07-.01l-.13-.02c.09,0,.29-.07,.23-.03,.22-.13-.33-.07-.03-.16h.03c-.16-.08-.3,.05-.67,.04l.73-.2-.3,.05s.03-.04,.15-.06c-.21,0-.13,.03-.33,.05,.26-.11-.16-.13,.32-.23-.23,.03-.16,.09-.33,.06,.51-.12-.1-.05,.12-.15,.27-.04,.14,.04,.36-.06-.45,.06,.08-.12-.02-.14-.36,.07-.17-.06-.3-.11,.12-.02,.17-.17,.28-.27h.06c-.36,.05-.31-.03-.39-.07,.22-.04,.3-.05,.4-.04v-.05c-.13,.01-.19,0-.24-.01l.27-.04c-.03-.06-.34-.06-.18-.18-.25,.05-.69,.2-.87,.15,.14-.03,.37-.08,.43-.07-.02,0-.12,0-.06-.03h.24c.09-.07-.19,0-.18-.03,.19-.04,.13-.05,.29-.08,.02,0-.07,.04,0,.04,.03-.04,.13-.1,.28-.15-.11,.03-.26,.05-.29,.03-.03-.06,.23-.07,.32-.12-.14,.01,0-.06-.3,0,0-.02,.13-.05,.21-.07-.13,0-.07-.14-.37-.05h-.03c-.31-.04,.12-.24-.03-.32l.1-.02c-.12-.04-.09-.13-.31-.13,0-.02,.17-.08,.28-.09-.08-.03-.19-.02-.05-.12,.18,.01,.15-.05,.13,.02,.07-.08,.22-.12-.05-.14,.25-.03,.3-.11,.22-.12l-.17,.08s-.03-.06-.01-.09l.33-.05c.37-.21-.72-.09-.08-.32-.23,.01-.15,.1-.42,.13,.03-.07,.49-.22,.49-.24,.16-.12-.49,.02-.39-.09-.11,.03-.42,.11-.54,.07,.03-.07,.47-.17,.57-.15,.01,.01-.02,.03-.06,.03,.05,.01,.1,.03,.22-.02l-.12,.02c.11-.05,.08-.13,.28-.15-.12-.02-.19,.02-.25,.06,.15-.11-.02-.12,.08-.22-.06,.03-.2,.06-.2,.05,.12-.14-.23,0-.3-.07,.17-.08,.43-.07,.26-.12,.11-.07,.31-.07,.41-.07-.24-.03,.12-.16,.15-.21l.1,.02c-.06-.01-.06-.03-.07-.05l-.23,.07s.03-.05,.13-.07c-.16,0-.38,.1-.6,.09,.11-.05-.14-.06,.16-.14-.09,.11,.31-.07,.37,0-.04,0-.04-.03,0-.06,.03-.01,.06,0,.08,0,.26-.14-.36,.03-.37-.06,.18-.02,.33-.09,.29-.09,0,.04-.29,.08-.43,.07,.12-.09-.11-.04-.1-.08l-.06,.05c-.18,.02-.16-.01-.22-.04,.13-.03,.1,.02,.16,0-.31,.02,.3-.17,.08-.19,.11-.05,.33-.07,.4-.11-.24-.02,.22-.12,.02-.16-.23,.07-.17,.06-.41,.05l.19,.09h-.36s.16,.04,.13,.07c-.2,0-.14,0-.33,.05,.34-.12-.22-.06,0-.16l.58-.11c.24-.14-.33-.1-.21-.24l-.09,.06c-.23,.03-.05-.06-.15-.08,.19-.04,.26-.07,.38-.11-.14,.03,0-.09-.39-.02l.24-.1c.09-.11-.57,0-.52-.09,.22-.02,.34-.08,.51-.05,0-.03,.03-.06-.11-.04,.12-.04-.28-.03-.1-.09-.09,0-.29,.04-.28,0,.04-.01,.1-.02,.1-.02-.1,.02-.14-.03-.35,.05,.59-.21-.09-.24,.41-.43-.08-.05-.16-.12-.18-.17,.06,0,.1-.02,.08,0,.16-.12-.57,.06-.38-.07,.3-.11,.18,.01,.29-.04,.63-.14-.11-.09,.25-.23h.04c.21-.08-.26-.06-.23-.14,0,0,.06,0,.1-.02-.34,.01-.46-.06-.57-.12,.25-.03,.14,0,.39-.06-.04-.03-.4,.09-.49,.04,.13-.05,.24-.12,.51-.18l.03,.06c.34-.1-.03-.08,.03-.12l.15-.03c-.07-.09-.45,0-.45-.12l-.11,.03c-.39,.02,.21-.09-.09-.09l.38-.09c-.1-.02-.4-.05-.49-.11,.29-.02,.46,.03,.64,.04,0-.04-.05-.12-.25-.1,.04,0,.14,0,.08,.03-.31,.02-.47-.01-.48-.09,.75-.14,.15-.23,.72-.4-.3-.07,.07-.28,0-.42-.57,.17-.03-.04-.62,.09-.05-.03-.04-.04,0-.05l.34-.18c.17-.06,.14,0,.27-.02,.03-.09,.25-.08,.4-.17-.21,.05-.31,.04-.24-.03l-.26,.12c-.34-.04,.48-.19,.15-.24h.2c-.12-.04-.04-.21-.53-.17,.07-.02,.23-.07,.28-.05,.05-.15-.57-.19-.3-.36l.15-.02s-.28,.01-.14-.05c.06-.01,.15-.02,.15-.03-.05,0-.27-.01-.19-.06h.17c.17-.17-.44-.12-.56-.21,.43-.09,.55-.22,.61-.28h.06c.02-.17-.41-.19-.61-.3,.45-.18,.14-.33,.37-.53-.07,.04-.34,.06-.39,.05,.08-.05-.32-.03,.08-.1h0c.38-.09,.27-.14,.27-.19l-.52,.1c.73-.29-.35-.3,.31-.51-.14,0-.14-.05-.28-.06l.28-.05c.05-.11,.08-.16-.01-.26l.2-.02c0-.07-.82,.08-.84,.02l.41-.1c-.03-.11,.31-.3-.09-.33,.06-.01,.18-.03,.2-.02,0-.05,.24-.26-.33-.13,.37-.08,.01-.12-.16-.15l.28-.05c-.36,.02-.46,.04-.57-.01,.03-.02,.22-.06,.15-.02,.13-.08-.27,0-.14-.09h.18c0-.07-.08-.05-.29-.04-.12-.01,.05-.12,.29-.18-.15,.02-.36,.03-.3-.02,.09-.02,.15-.02,.18-.02,.17-.13-.35-.08-.09-.2,.09-.02,.13-.03,.16-.04,0,.08,0,.14-.01,.14,.25-.05,.28-.12,.64-.14-.2-.01-.63-.01-.52-.1,.02,0,.05-.02,.09-.03h.03s0-.03-.05-.03c.04-.03,.07-.05,.07-.07,.21-.05,.1-.09,.1-.13-.28,.06-.24,0-.46,.09,.02,0,.03,0,.05,.02,0,0,.01,0,.03,0h-.02s.02,.05,.03,.08c-.14,0-.27,0-.12-.06-.18,.02-.37,.04-.45,.05,.38-.12,.57-.24,.8-.3-.17-.06-.15-.2-.68-.16-.07-.01,.14-.06,.22-.09,.06,0,.05,.03,.13,.02-.14-.03-.08-.15-.45-.09,.15-.1,.34-.03,.26-.11h.11c.54-.31-.98-.12-.28-.47-.04,.02-.06,.03-.12,.05,.28-.3-.4-.41,.07-.75,.09-.09-.14-.05-.32-.05l.29-.07h-.36c-.27-.04,.69-.31,.2-.34l-.2,.06c.03-.05-.15-.11,.09-.15-.04,0-.21,.03-.11-.01l.15-.03-.29-.05c.1-.11,.62-.11,.62-.24-.07-.03-.48-.04-.58,0,0,.02-.09,.07-.24,.1l-.09-.02c-.46,.08-.93,.15-1.23,.31h.29l-.22,.08-.03-.06c-.2,.08-.01,.06,.12,.06-.12,.03-.2,.06-.24,.08l.45-.02c-.18,.04-.36,.04-.45,.11,.21,0,.39-.11,.54-.08-.2,.08-.37,.1-.19,.1-.12,.03-.19,.04-.25,.03,.15,0,.08,.08,.32,.05-.25,.09,.09,.11-.34,.19,.11,0,.35,0,.38,.02-.53,.05,0,.13-.56,.22,.47-.05,.24,.12,.51,.14-.04,0-.11,0-.09,0-.03,.05-.17,.09-.25,.14,.39-.07,.49-.02,.73-.03-.36,.13-.46,.06-.81,.15,.31-.07,.33,.03,.59-.04-.22,.09-.1,.06-.42,.14,.48-.09,.09,.02,.39,0-.22,.11-.45,.11-.29,.14-.14,.06-.32,.04-.32,.04Zm1.14,1.38h0l-.02-.03s.01,.01,.03,.03Zm.03,.13s0-.04,0-.06c.09-.02,.19-.04,.19-.02-.07,0-.11,.05-.19,.08Zm1.85-.66s0,.03-.07,.04c0,0-.02-.02-.04-.03h-.03c.05,0,.1-.01,.14-.02Z"/><path class="cls-2" d="M12.23,89.49h-.02s-.04,.01-.06,.02h.09v-.02Z"/><path class="cls-2" d="M14.19,101.33h0s-.02,0-.04,0c.01,0,.02,0,.03,0Z"/><polygon class="cls-2" points="10.58 92.01 10.65 91.99 10.59 91.99 10.58 92.01"/><path class="cls-2" d="M13.39,102.24s-.05,.01-.07,.02c.02,0,.04-.01,.07-.02Z"/><path class="cls-2" d="M13.39,102.56l-.09,.06c.05-.03,.08-.05,.09-.06Z"/><path class="cls-2" d="M13.3,102.82s.09-.01,.12-.02h0l-.12,.02Z"/><path class="cls-2" d="M12.22,99.12s0,0-.01,0c-.06-.01-.03,0,.01,0Z"/><path class="cls-2" d="M13.09,100.11c-.05,0-.1,0-.14,0-.02,.02-.02,.04,.14,0Z"/><polygon class="cls-2" points="11.63 97.93 11.64 97.93 11.64 97.92 11.63 97.93"/><path class="cls-2" d="M12.94,100.05c-.05,.03-.04,.05,0,.05,.02-.02,.04-.05,0-.05Z"/><path class="cls-2" d="M13.38,103.88h0s.03,0,.04,0h-.04Z"/><path class="cls-2" d="M13.42,103.88h.04s0,0-.04,0Z"/><path class="cls-2" d="M13.53,103.9h-.07s0,0,.07,0Z"/><path class="cls-2" d="M13.45,103.54l-.1,.02s.05,0,.1-.02Z"/><path class="cls-2" d="M13.4,103.45s-.2,.1-.13,.12h.08c-.15,0,.23-.13,.05-.12Z"/><path class="cls-2" d="M14.55,102.8l-.06,.1c.1-.04,.24-.08,.28-.05,.3-.16-.23,.07-.21-.04Z"/><path class="cls-2" d="M14.66,102.52c.06,.03,.15-.03,.22-.04-.1,0-.13,0-.22,.04Z"/><path class="cls-2" d="M14.3,100.73l.25-.05s-.1,.02-.25,.05Z"/><polygon class="cls-2" points="12.93 100.65 12.78 100.71 13.02 100.68 12.93 100.65"/><polygon class="cls-2" points="14.68 100.09 14.72 100.09 14.61 100.06 14.68 100.09"/><path class="cls-2" d="M13.98,97.09l-.31,.07c.06,.01,.41-.05,.31-.07Z"/><path class="cls-2" d="M13.41,95.85c.15-.05,.24-.1,.09-.09-.02,.03-.13,.09-.09,.09Z"/><polygon class="cls-2" points="13.12 91.85 13.23 91.86 13.14 91.83 13.12 91.85"/></g><g><path class="cls-2" d="M14.91,103.75c.03,.08,.14,.25,.14,.2l-.15-.3v.1Z"/><path class="cls-2" d="M15.37,104.2c-.05-.15-.16-.42-.33-.67,.13,.29,.06,.18,.22,.53,0,.05-.09-.07-.15-.18,.03,.08-.07-.04,.02,.14,.16,.21,.2,.19,.14-.01,.04,.06,.08,.14,.11,.19Z"/><path class="cls-2" d="M17.9,103.34l-.03-.03s.03,.02,.03,.03Z"/><path class="cls-2" d="M19.39,102.7s0,.04,.02,.07c0-.02,0-.05-.02-.07Z"/><path class="cls-2" d="M19.82,102.88s-.02,0-.03-.01c.02,.02,.03,.03,.03,.01Z"/><path class="cls-2" d="M17.9,103.34l.09,.07c-.05-.1-.06-.06-.09-.07Z"/><path class="cls-2" d="M15.29,103.32s0,.05,.02,.09c0-.02,0-.03,0-.04l-.02-.05Z"/><path class="cls-2" d="M17.41,103.93h-.01s.03,.08,.06,.13l-.05-.13Z"/><path class="cls-2" d="M16.96,104.25s-.12-.24-.18-.35c.05,.1,.07,.16,.07,.18,.03,.05,.06,.1,.1,.17Z"/><path class="cls-2" d="M15.96,104.25v.04s0-.03,0-.04Z"/><path class="cls-2" d="M17.78,103.79s.04,.07,.05,.08c-.02-.03-.04-.06-.05-.08Z"/><path class="cls-2" d="M30.03,94.33s.02,.03,.02,.04c-.01-.03-.02-.04-.02-.04Z"/><path class="cls-2" d="M31.28,95.23v.02s.05,.09,.08,.14l-.08-.16Z"/><path class="cls-2" d="M20.43,102.94h0s0,.02,0,0Z"/><path class="cls-2" d="M24.36,100.45c-.17-.19-.09-.32-.29-.53,.06,.09,.16,.42,.29,.53Z"/><path class="cls-2" d="M15.32,103.35s.01-.01,.02-.01c-.01,0-.02,0-.02,.01Z"/><path class="cls-2" d="M24.07,99.92h0l-.02-.02,.02,.02Z"/><path class="cls-2" d="M21.36,102.21s-.05-.07-.07-.1c.01,.02,.03,.05,.07,.1Z"/><path class="cls-2" d="M20.41,102.29l.04,.02s-.03-.02-.04-.02Z"/><path class="cls-2" d="M21.56,101.64s.04,.04,.04,0l-.02-.03s.02,.06-.02,.02Z"/><path class="cls-2" d="M21.96,101.41s-.02-.03-.04-.04v.02l.04,.02Z"/><path class="cls-2" d="M28.86,95.16c.05,.06,.1,.14,.14,.21-.11-.17-.08-.27-.14-.21Z"/><path class="cls-2" d="M15.37,103.46c-.03-.06-.05-.1-.05-.11,0,0,0,.01,0,.02,.02,.04,.04,.07,.05,.09Z"/><path class="cls-2" d="M20.47,99.71h.09s-.06-.01-.09,0Z"/><path class="cls-2" d="M25.96,96.87v-.04s-.01,0,0,.04Z"/><path class="cls-2" d="M20.73,99.56c.06,.08,.1,.12,.13,.15,0-.02-.01-.04-.03-.07l-.1-.08Z"/><path class="cls-2" d="M29.01,95.37h0Z"/><path class="cls-2" d="M29.1,94.55c-.07,.03,.15,.33,.24,.52-.02,.13-.17-.22-.29-.37,0,.11,.14,.43,.09,.43-.03-.05-.05-.07-.08-.14,.1,.28-.14,.1-.01,.45-.02-.03-.04-.05-.05-.08,.1,.16,.2,.32,.26,.43-.02,.02,.06,.23-.07,.03,.02,0-.03-.09-.06-.16l.02,.11c-.2-.29-.02-.13-.15-.35,0,.13,.08,.42-.02,.36-.18-.29,.04-.16-.16-.39l.13,.07c-.32-.44,.06,0-.27-.46-.14-.03-.01,.21-.15,.17,.07,.18,.15,.24,.22,.41,.04,.37-.52-.68-.39-.24,.09,.21,.29,.59,.11,.43l-.17-.35c-.1,.02,.23,.51,0,.33-.06-.14,0-.15-.03-.18-.21-.23,.07,.21,.02,.24l-.18-.29c-.06,.1-.04,.37-.11,.48-.04-.09-.08-.19-.16-.27-.04,.22-.29,.12-.51,.01l.1,.28s-.09-.1-.1-.16c-.1-.07,.09,.16,.12,.28-.02,.03-.12-.13-.15-.21,.04,.26,.03,.6-.22,.38l-.03-.09c-.13-.06,.22,.57,.02,.37v-.05c-.23-.02-.26,.3-.59-.02,.19,.38-.24-.08,.04,.44-.23-.2-.26-.31-.48-.41-.05,0,.14,.35,.13,.42l-.15-.27,.11,.31-.21-.3v.09s.1,.1,.14,.18c.01,.15-.25-.1-.33-.24v.31c-.07-.11-.07-.16-.09-.24,.08,.32-.17-.27-.1,.01,.04,.06,.09,.16,.12,.22-.13-.14-.2-.1-.22,0l-.09-.19c-.13,.01-.17,.21-.28,.27,.09,.06,.26,.39,.25,.44l-.18-.28c.08,.19,.1,.09,.17,.33-.06,0-.21-.3-.24-.41v.13c-.05-.08-.06-.13-.12-.24,.08,.19-.25-.23-.11,.09l-.05-.08c-.12,.06-.11,.19-.2,.26,.14,.25,.07,.21,.16,.43-.11-.04-.3-.19-.37-.12,.01,.15,.1,.22,.16,.38-.13-.22-.2-.15-.25-.34-.08,.09-.1,.12-.12,.37,.07,.08,.1,.11,.14,.19,0,.05-.11-.06-.16-.17v-.03c.04,.41-.7-.46-.55,.07v.28c-.06,0-.05-.19-.17-.3,.09,.44-.23,.06-.19,.37-.46-.61-.26,.21-.61-.15l.09,.15c.06,.17-.08-.07-.13-.09,.07,.12,.11,.12,.14,.22-.13,.32-.62,.05-.94,.05-.11,0,.41,.83,.08,.52l-.13-.3c.02,.45-.37,.2-.38,.59-.03-.07-.08-.16-.06-.17-.16-.19-.14,.07-.05,.24-.04,0-.09-.15-.16-.23-.11-.1,.06,.32-.08,.12-.02-.03-.03-.07-.03-.09,.03,.11-.13,.04,.03,.27-.13-.08-.06,.18-.2,.07,.12,.29-.19-.06,.02,.32-.22-.4-.3-.25-.23-.04-.05-.13-.11-.1-.18-.28-.04,.03-.05,.13,.08,.33-.36-.42,.04,.48-.35-.09-.02,.29-.07,.51-.14,.67-.22-.39,.12-.12-.12-.53-.03,.23,.1,.61-.08,.58-.06-.04-.08-.18-.11-.25-.03,.23-.25,.1-.24,.37-.02-.04-.03-.08-.04-.12-.01,.02-.08-.03,.02,.15v-.06c.17,.24,.22,.59,.29,.73-.26-.53-.18-.07-.49-.74,0,.04,.04,.14,.11,.25-.04-.02-.09-.09-.14-.24-.02,.14,.12,.31,.04,.35-.05-.09-.05-.13-.11-.23,.06,.19,.12,.38,.02,.34-.03-.05-.07-.12-.05-.13-.08,.08,.09,.54-.12,.44-.18-.39-.11-.1-.3-.42v.13l.11,.14c-.05,.02,.04,.29-.07,.21l-.04-.16-.06,.12,.12,.09c.04,.2,.24,.41,.12,.36,0-.04-.05,.03-.19-.15h0c.03,.12,.07,.24-.01,.18-.07-.1-.2-.36-.24-.43,.13,.29-.08,.14,.06,.45-.03-.07-.13-.24-.15-.28l.11,.23c-.06-.06-.09-.09-.16-.23-.09,0,.26,.4,.07,.27,0-.02-.03-.05-.03-.09-.14-.04-.08,.23-.23,.17-.21-.31,.02-.12-.16-.38-.08,.12-.01,.52-.16,.51l.04,.02c.25,.47-.21-.18-.14,.07,0-.04-.13-.27-.1-.21-.12-.03-.09,.2-.12,.41l-.05-.13c-.1-.08-.15,0-.23-.02,.05,.13,.02,.12,.13,.28-.53-.59-.07,.52-.53,.04,.01-.01-.02-.12-.03-.12l-.05,.17c.12,.2,.08,.11,.2,.26,.05,.13,.08,.24,.05,.25-.03-.16-.18-.32-.27-.42,.04,.06,.07,.13,.11,.19-.26-.32,.22,.41,0,.21l-.06-.11c0,.07,.05,.23,0,.21-.15-.22-.03-.13-.14-.32-.04,.04,.16,.49,0,.28-.02-.08,0-.09,0-.17-.2-.25-.17-.17-.22-.2h0l-.15-.08,.06,.06c.29,.64-.05,.18,.1,.62-.14-.42-.11-.22-.26-.49-.06-.06-.14-.13-.17-.21,.09,.23-.16-.13-.03,.21-.05-.08-.04,.01-.16-.2,0,.09,.1,.14,.15,.25,.09,.33-.37-.25-.25,.2,0,.21,.15,.51,.15,.7-.11-.12-.15-.32-.15-.32-.12-.1-.14-.06-.12,.06-.03-.08-.08-.14-.15-.22-.02,.04,.15,.32,.04,.22-.05-.1-.12-.26-.16-.36,0,.1,.06,.28,.06,.38-.1-.14-.1-.24-.14-.34,0,.09-.04,.2,.08,.44l.08,.07s-.12-.2-.14-.25c-.06-.21,.1,.05,.15,.13v.07c.32,.48,.07-.15,.15-.15l.18,.38-.11-.33c.07,.09,.19,.28,.19,.35,.14,.15-.04-.15,.11,.03,.02,.03,.03,.05,.03,.06l-.02-.13c.04,.08,.15,.25,.1,.21,.19,.17-.03-.34,.15-.08v.03c.04-.18-.14-.27-.24-.63l.43,.62-.14-.27s.05,.01,.11,.12c-.06-.2-.07-.11-.15-.3,.19,.21,.08-.19,.33,.22-.1-.21-.14-.13-.16-.3,.28,.44,.02-.11,.19,.07,.12,.24,0,.14,.17,.33-.2-.41,.14,.03,.14-.06-.18-.32,.01-.18,.02-.32,.06,.11,.22,.1,.35,.18l.03,.05c-.17-.33-.07-.3-.06-.39,.11,.19,.14,.27,.17,.37l.04-.03c-.05-.11-.07-.17-.06-.22l.13,.24c.05-.05-.04-.35,.12-.23-.12-.22-.41-.58-.42-.78,.07,.12,.19,.32,.2,.38,0-.02-.03-.11,.01-.07l.08,.22c.08,.07-.08-.18-.04-.18,.1,.17,.09,.11,.16,.25,0,.02-.06-.06-.04,.02,.05,.01,.14,.09,.23,.22-.06-.1-.13-.23-.12-.27,.05-.05,.14,.19,.22,.26-.05-.13,.05-.03-.09-.28,.02,0,.09,.11,.14,.17-.03-.13,.12-.11-.07-.37h-.02s0-.02,0-.03h0c-.05-.31,.29,.03,.32-.14l.05,.09c0-.13,.1-.13,.03-.34,.02,0,.13,.13,.18,.24,0-.09-.04-.19,.1-.08,.04,.18,.09,.12,.02,.14,.1,.04,.19,.17,.12-.1,.1,.23,.2,.25,.19,.17l-.13-.13s.05-.05,.09-.04l.15,.3c.32,.28-.13-.72,.3-.18-.08-.22-.15-.11-.25-.36,.08,0,.37,.39,.39,.38,.17,.12-.17-.46-.03-.4-.07-.1-.24-.37-.23-.5,.08,0,.31,.39,.33,.5,0,.02-.03-.01-.05-.05,0,.05,0,.1,.09,.2l-.05-.11c.09,.09,.16,.04,.24,.21-.01-.12-.08-.18-.14-.21,.16,.11,.11-.06,.24,0-.04-.05-.12-.17-.11-.17,.18,.07-.07-.22-.02-.31,.13,.13,.2,.38,.2,.21,.11,.08,.17,.27,.2,.36-.05-.24,.2,.06,.26,.07v.1c0-.06,.02-.07,.04-.08l-.14-.19s.06,.02,.11,.1c-.06-.15-.21-.33-.28-.54,.09,.09,.02-.16,.18,.11-.14-.04,.17,.27,.12,.35,0-.04,.01-.05,.05-.02,.02,.03,.03,.06,.03,.08,.22,.2-.14-.33-.05-.37,.08,.16,.19,.28,.18,.24-.04,.02-.16-.25-.2-.38,.12,.09,0-.12,.04-.13l-.06-.04c-.08-.16-.04-.16-.03-.23,.07,.12,.01,.1,.06,.15-.11-.29,.26,.23,.21,0,.09,.09,.17,.29,.23,.34-.05-.24,.19,.17,.17-.03-.14-.2-.11-.14-.18-.37l-.03,.21-.1-.34s0,.17-.04,.15c-.06-.19-.04-.14-.15-.3,.22,.28-.01-.23,.16-.06l.29,.51c.21,.18,0-.35,.17-.28l-.09-.07c-.1-.21,.05-.07,.04-.17,.1,.17,.15,.22,.23,.32-.07-.13,.08-.03-.1-.38l.18,.2c.14,.04-.18-.54-.07-.53,.08,.2,.19,.3,.21,.47,.03-.01,.07,0,0-.12,.08,.1-.06-.27,.06-.13-.03-.08-.13-.26-.09-.27,.02,.03,.05,.08,.05,.08-.05-.08-.02-.14-.15-.32,.39,.49,.21-.17,.55,.24,.03-.09,.07-.19,.11-.23,.03,.05,.05,.09,.03,.07,.17,.12-.24-.52-.05-.39,.2,.25,.04,.18,.13,.26,.33,.56,.06-.14,.3,.16v.04c.16,.17-.01-.27,.08-.28,0,0,.03,.05,.05,.09-.12-.32-.08-.46-.05-.58,.1,.23,.04,.13,.18,.35,.01-.05-.22-.35-.19-.45,.09,.11,.19,.19,.34,.43l-.05,.05c.21,.29,.07-.05,.13-.02l.07,.14c.06-.09-.13-.44-.02-.47l-.07-.1c-.14-.37,.15,.16,.06-.12l.21,.33c-.01-.1-.07-.4-.04-.5,.11,.27,.11,.45,.15,.62,.04-.02,.1-.09,.02-.27,0,.04,.04,.13,0,.09-.11-.29-.13-.46-.06-.49,.37,.67,.27,.07,.62,.55-.02-.31,.3-.03,.42-.15-.35-.49,.03-.04-.28-.56,.01-.05,.03-.05,.05-.02l.28,.26c.11,.14,.04,.13,.11,.25,.09,0,.16,.21,.29,.32-.12-.18-.13-.29-.05-.24l-.2-.21c-.06-.34,.34,.4,.28,.06l.06,.19c0-.13,.19-.11,0-.56,.04,.06,.14,.19,.14,.25,.16,0,.02-.61,.26-.4l.06,.14c0-.05-.1-.27,0-.15,.03,.05,.06,.13,.08,.14-.01-.05-.07-.26,0-.2l.06,.16c.22,.1-.02-.46,.03-.61,.22,.38,.38,.45,.47,.49l.03,.05c.17-.03,.06-.45,.1-.68,.32,.37,.37,.02,.64,.17-.06-.06-.17-.3-.17-.35,.07,.06-.07-.31,.13,.04h-.01c.22,.33,.23,.2,.28,.18l-.25-.46c.51,.59,.2-.44,.61,.12-.03-.13,0-.15-.03-.28l.14,.25c.12,.01,.18,.02,.25-.1l.08,.19c.07-.02-.33-.75-.28-.8l.23,.36c.1-.07,.39,.2,.3-.2,.03,.05,.09,.16,.08,.19,.05-.02,.33,.14,.03-.35,.19,.33,.13-.03,.1-.21l.13,.25c-.13-.34-.18-.42-.16-.55,.03,.02,.12,.19,.07,.14,.12,.1-.09-.25,.05-.16l.06,.17c.06-.01,.01-.09-.06-.29-.02-.12,.14,0,.27,.22-.07-.14-.14-.33-.07-.29,.05,.08,.07,.14,.08,.17,.18,.11-.03-.36,.17-.16,.05,.08,.07,.12,.09,.14-.07,.04-.14,.05-.14,.03,.13,.22,.21,.23,.34,.56-.05-.19-.18-.61-.06-.53,.02,.02,.03,.04,.05,.07v.03s.03-.01,.02-.06c.04,.03,.07,.05,.09,.04,.11,.18,.12,.06,.16,.05-.14-.24-.08-.22-.23-.41,.01,.01,.01,.03,0,.05,0,0,0,.02,0,.03v-.02s-.05,.04-.07,.06c-.05-.14-.08-.25,.03-.14-.08-.17-.15-.34-.19-.42,.23,.32,.42,.46,.55,.66,0-.19,.16-.21-.05-.7,0-.07,.1,.11,.15,.18,.01,.05,0,.06,.02,.13-.02-.15,.12-.13-.05-.46,.15,.11,.13,.31,.19,.21l.04,.1c.46,.41-.19-.98,.37-.43-.04-.03-.05-.05-.09-.1,.38,.17,.29-.53,.76-.19,.11,.06,0-.15-.05-.33l.16,.25-.11-.34c-.04-.27,.52,.55,.4,.07l-.12-.17c.06,0,.07-.18,.18,.03-.01-.03-.09-.19-.02-.11l.08,.14-.03-.29c.13,.05,.3,.55,.43,.51,.01-.08-.11-.47-.18-.55-.02,0-.09-.06-.17-.2v-.09c-.23-.41-.43-.84-.69-1.07l.08,.28-.13-.18,.05-.04c-.14-.17-.06,0-.02,.13-.07-.1-.12-.17-.15-.2l.16,.42c-.1-.15-.15-.33-.24-.39,.07,.2,.23,.34,.25,.48-.14-.17-.21-.32-.16-.14-.06-.1-.09-.17-.11-.23,.04,.14-.06,.1,.05,.33-.16-.21-.08,.12-.29-.26,.04,.1,.11,.33,.09,.37-.21-.49-.13,.04-.39-.46,.2,.43-.04,.27,.02,.54-.01-.03-.04-.11-.03-.09-.06-.01-.14-.13-.21-.19,.19,.34,.17,.46,.26,.69-.24-.3-.2-.42-.39-.72,.16,.27,.07,.32,.22,.54-.15-.18-.09-.08-.27-.35,.24,.43,0,.09,.12,.37-.18-.18-.24-.39-.23-.23-.1-.11-.14-.3-.14-.3Zm-1.02,1.56h0l.02-.04s-.01,.02-.02,.04Zm-.12,.07s.04,0,.06-.02c.05,.08,.1,.17,.08,.17-.03-.06-.08-.09-.14-.15Zm1.22,1.54s-.03,0-.06-.05c0,0,.01-.02,.02-.05v-.03s.03,.09,.05,.13Z"/><path class="cls-2" d="M29.04,97.39s0-.02,0-.02c-.02-.02-.03-.04-.04-.05l.04,.08h0Z"/><path class="cls-2" d="M17.86,103.31h0s-.02-.01-.03-.03c0,.01,.01,.02,.02,.03Z"/><polygon class="cls-2" points="26.03 96.67 26.06 96.74 26.04 96.68 26.03 96.67"/><path class="cls-2" d="M16.71,102.86s-.03-.04-.04-.06c0,.02,.03,.04,.04,.06Z"/><path class="cls-2" d="M16.39,102.97l-.09-.06s.07,.06,.09,.06Z"/><path class="cls-2" d="M16.1,102.98s.04,.08,.06,.11h0l-.06-.11Z"/><path class="cls-2" d="M19.46,100.67s0,0,0-.02c0-.06-.01-.03,0,.02Z"/><path class="cls-2" d="M18.74,101.84c-.01-.05-.03-.1-.03-.13-.03,0-.05,0,.03,.13Z"/><polygon class="cls-2" points="20.46 99.71 20.46 99.71 20.47 99.71 20.46 99.71"/><path class="cls-2" d="M18.76,101.68s-.06-.02-.05,.02c.02,0,.06,.02,.05-.02Z"/><path class="cls-2" d="M15.08,103.42h-.02s.02,.03,.02,.04v-.04Z"/><path class="cls-2" d="M15.08,103.45v.04s.01,0,0-.04Z"/><path class="cls-2" d="M15.1,103.56v-.08s-.03,0,0,.08Z"/><path class="cls-2" d="M15.44,103.36l-.05-.09s.02,.05,.05,.09Z"/><path class="cls-2" d="M15.51,103.28s-.16-.16-.16-.09l.04,.07c-.06-.14,.19,.17,.12,.01Z"/><path class="cls-2" d="M16.51,104.16l-.12-.03c.07,.09,.16,.2,.14,.25,.26,.23-.14-.2-.02-.22Z"/><path class="cls-2" d="M16.82,104.17c-.02,.07,.08,.14,.11,.19-.02-.1-.03-.13-.11-.19Z"/><path class="cls-2" d="M18.49,103.21l.12,.22s-.05-.09-.12-.22Z"/><polygon class="cls-2" points="18.15 101.88 18.05 101.76 18.15 101.97 18.15 101.88"/><polygon class="cls-2" points="19.25 103.35 19.25 103.39 19.26 103.28 19.25 103.35"/><path class="cls-2" d="M22.01,101.66l-.17-.27c0,.06,.18,.37,.17,.27Z"/><path class="cls-2" d="M23.07,100.69c.09,.13,.18,.2,.12,.05-.04,0-.13-.09-.12-.05Z"/><polygon class="cls-2" points="26.96 99.05 26.99 99.16 26.99 99.05 26.96 99.05"/></g></g></g></g></svg>