<svg id="click_me_en" xmlns="http://www.w3.org/2000/svg" width="166.12" height="105.77" viewBox="0 0 166.12 105.77">
    <defs>
        <style>
            .cls-1 {
                letter-spacing: -.02em;
            }

            .cls-2,
            .cls-3 {
                fill: #f9f3dc;
            }

            .cls-4 {
                fill: #faf5e0;
            }

            .cls-5 {
                letter-spacing: -.03em;
            }

            .cls-3 {
                font-family: Caveat-Regular, Caveat;
                font-size: 48px;
            }
        </style>
    </defs>
    <g id="Layer_1-2">
        <g><text class="cls-3" transform="translate(29.46 38.64)">
                <tspan class="cls-1" x="0" y="0">C</tspan>
                <tspan class="cls-5" x="21.55" y="0">lick me!</tspan>
            </text>
            <g>
                <g>
                    <path class="cls-4" d="M32.84,45.24c-.02-.09-.14-.25-.19-.16l.13,.32,.07-.16Z" />
                    <path class="cls-4" d="M31.99,45.1c0,.2,.06,.5,.29,.71-.1-.32,0-.23-.12-.61,.06-.09,.19,0,.25,.1-.02-.09,.16-.02,.09-.23-.24-.14-.38-.06-.39,.21-.07-.04-.09-.13-.12-.19Z" />
                    <path class="cls-4" d="M25.05,51.56l.07-.03s-.05,.01-.07,.03Z" />
                    <path class="cls-4" d="M21.6,56.36s0-.08-.03-.09c0,.05,0,.09,.03,.09Z" />
                    <path class="cls-4" d="M20.76,57.03l.05-.04s-.06,.01-.05,.04Z" />
                    <path class="cls-4" d="M25.05,51.56l-.18,.07c.08,.07,.11-.02,.18-.07Z" />
                    <path class="cls-4" d="M31.45,46.49s.01-.07,0-.12c-.01,.03-.02,.05-.04,.08l.03,.04Z" />
                    <path class="cls-4" d="M26.45,49.33l.03-.04s-.05-.07-.08-.12l.05,.16Z" />
                    <path class="cls-4" d="M27.74,47.78s.16,.23,.24,.32c-.07-.1-.09-.16-.08-.2-.04-.04-.09-.08-.16-.12Z" />
                    <path class="cls-4" d="M30.39,45.91l.02-.07-.02,.07Z" />
                    <path class="cls-4" d="M25.5,50.42s-.07-.04-.09-.05c.03,.02,.06,.04,.09,.05Z" />
                    <path class="cls-4" d="M7.53,102.45h-.05s.04,.01,.05,0Z" />
                    <polygon class="cls-4" points="5.72 104.43 5.71 104.4 5.55 104.36 5.72 104.43" />
                    <path class="cls-4" d="M19.51,58.45h0c0-.06-.01-.04,0,0Z" />
                    <path class="cls-4" d="M12.73,74.05c.3-.1,.2,.4,.56,.22-.11-.01-.32-.39-.56-.22Z" />
                    <path class="cls-4" d="M31.39,46.5s-.04,.04-.06,.05c.03-.02,.05-.03,.06-.05Z" />
                    <path class="cls-4" d="M13.29,74.27h0l.04-.02-.04,.02Z" />
                    <path class="cls-4" d="M17.62,62.29s.09,.02,.13,.02c-.03-.01-.06-.02-.13-.02Z" />
                    <path class="cls-4" d="M19.47,59.68l-.07,.05s.06-.03,.07-.05Z" />
                    <path class="cls-4" d="M17.23,63.94s-.08,.02-.07,.09c.02,0,.03,0,.04,0-.03-.04-.03-.07,.03-.09Z" />
                    <path class="cls-4" d="M16.5,65.5h.06v-.06l-.06,.06Z" />
                    <path class="cls-4" d="M8.48,97.4c-.09,.02-.18,.02-.26,.02,.2,.02,.22,.28,.26-.02Z" />
                    <path class="cls-4" d="M31.35,46.37c.04,.06,.05,.1,.04,.13l.03-.05s-.05-.07-.07-.08Z" />
                    <path class="cls-4" d="M19.2,64.98l-.15,.22c.06-.05,.11-.13,.15-.22Z" />
                    <path class="cls-4" d="M11.44,85.65l.02,.07s.01-.04-.02-.07Z" />
                    <path class="cls-4" d="M18.74,65.92c-.11,0-.18,.02-.24,.05,.02,.02,.03,.04,.05,.06l.19-.11Z" />
                    <path class="cls-4" d="M8.21,97.42h0Z" />
                    <path class="cls-4" d="M8.48,99.29c.06-.25-.33-.19-.52-.29-.04-.32,.3-.08,.5-.14-.05-.21-.35-.42-.31-.56,.06,0,.09-.02,.16,.03-.24-.26,.12-.59-.19-.9,.04,0,.07-.01,.1,0-.19,0-.37-.04-.5-.08,.02-.11-.18-.26,.06-.25-.02,.07,.07,.09,.14,.14l-.08-.14c.36-.03,.08,.19,.33,.24-.06-.25-.28-.58-.14-.74,.34,.04,.02,.44,.37,.27l-.19,.24c.57-.09-.07,.16,.53,.09,.18-.33-.08-.44,.1-.77-.17-.12-.28-.04-.44-.16-.21-.58,.93-.2,.57-.68-.2-.15-.61-.28-.32-.5l.35,.18c.12-.34-.49-.32-.15-.63,.13,.1,.06,.3,.12,.26,.35-.16-.17-.22-.13-.4l.34,.04c.03-.38-.11-.84-.06-1.26,.09,.05,.18,.14,.3,.07-.04-.55,.31-1.08,.63-1.52l-.24-.26s.15-.05,.19,.01c.16-.16-.18-.06-.27-.18,0-.11,.2-.1,.27-.01-.15-.4-.27-1.1,.13-1.37l.07,.09c.19-.25-.5-.47-.17-.65l.04,.06c.28-.57,.21-1.3,.76-1.64-.38-.2,.34-.54-.21-.74,.38-.26,.45-.14,.77-.57,.06-.12-.3-.29-.31-.47l.3,.08-.25-.3h.39l-.03-.18c-.03,.05-.17,.09-.25,.05-.07-.27,.37-.51,.52-.47l-.09-.62c.12,.05,.13,.15,.18,.25-.22-.38,.33,.04,.13-.31-.08,.02-.17-.07-.23-.09,.22-.08,.31-.39,.3-.63l.19,.1c.17-.39,.16-.88,.3-1.34-.14,.13-.49,0-.48-.15l.33,.04c-.17-.15-.16,.1-.34-.15,.09-.16,.39,0,.46,.12l-.05-.24c.1,.02,.13,.08,.25,.13-.17-.14,.42-.26,.12-.49l.1,.02c.14-.45,.09-.69,.2-1.07-.27-.09-.16-.22-.34-.4,.17-.24,.48-.48,.56-.81-.06-.27-.2-.14-.33-.3,.25,.06,.33-.27,.45-.05,.09-.4,.11-.52,.08-1.08-.12,.02-.18,.07-.25,0-.01-.1,.17-.17,.28-.12l.02,.03c-.17-.68,1.14-1.04,.79-1.65l.02,.03-.11-.55c.11-.2,.14,.19,.34,.09-.24-.63,.33-.76,.21-1.25,.82-.06,.35-1.12,.96-1.38l-.18-.04c-.12-.17,.14-.1,.21-.16-.13-.04-.19,.06-.26-.04,.13-1,.97-1.8,1.47-2.67,.18-.32-.78-.53-.22-.81l.26,.24c-.09-.83,.59-1.39,.56-2.19,.05,.07,.14,.11,.12,.17,.28-.05,.23-.52,.05-.6,.06-.1,.17,.05,.29,.02,.19-.09-.13-.48,.12-.45,.04,0,.05,.07,.06,.1-.07-.13,.21-.4-.08-.43,.23-.19,.1-.52,.34-.64-.22-.26,.33-.35-.05-.58,.4,.21,.53-.27,.42-.52,.1,.11,.19-.07,.33,.07,.08-.18,.08-.37-.14-.45,.64-.08-.06-.84,.65-.71,.04-.63,.15-1.18,.3-1.69,.39,.23-.23,.53,.2,.73,.07-.52-.14-.96,.19-1.34,.11-.08,.14,.16,.19,.23,.07-.53,.5-.82,.5-1.33,.04,.02,.05,.09,.06,.14,.03-.08,.16-.14-.03-.24v.1c-.32-.02-.37-.61-.5-.7,.44,.42,.34-.31,.87,.26,0-.07-.05-.18-.18-.24,.08-.05,.16-.04,.25,.11,.06-.32-.19-.34-.04-.58,.09,.05,.09,.12,.18,.2-.1-.22-.19-.44,0-.61,.04,.04,.13,.06,.09,.12,.18-.37-.1-.87,.3-1.16,.3,.34,.2-.06,.53,.11l.03-.26h-.21c.12-.19-.02-.49,.18-.58l.05,.22,.15-.38-.24,.12c-.05-.28-.41-.23-.18-.42,0,.07,.12-.18,.36-.16h0c-.05-.15-.1-.31,.07-.39,.12,.03,.33,.25,.41,.27-.21-.25,.2-.46-.01-.75,.04,.08,.21,.19,.25,.2l-.17-.21c.12-.04,.16-.03,.29,.07,.2-.22-.45-.18-.09-.36,0,.03,.04,.04,.04,.11,.28-.24,.23-.66,.52-.86,.37,.13-.08,.28,.24,.37,.21-.42,.17-1.05,.5-1.37l-.08,.05c-.4-.36,.41-.13,.33-.46,0,.07,.2,.23,.16,.18,.24-.21,.27-.58,.41-1.06l.08,.13c.21-.07,.34-.34,.51-.46-.07-.13,.01-.21-.19-.27,.97-.02,.39-1.17,1.23-1.19-.04,.05,0,.19,.03,.16l.19-.44c-.2-.12-.15-.04-.34-.08-.07-.13-.07-.3,0-.39-.01,.26,.29,.24,.44,.25-.06-.03-.1-.11-.16-.15,.47,.08-.33-.33,.1-.4l.08,.09c.03-.13-.01-.32,.1-.4,.24,.13,0,.18,.17,.33,.11-.15-.14-.61,.17-.56,0,.11-.07,.19-.07,.3,.36,.07,.31,0,.44-.06h-.01l.31-.13h-.12c-.36-.64,.21-.44,.1-.97,.1,.51,.15,.21,.35,.43,.12,0,.27-.02,.31,.07-.07-.27,.31-.04,.2-.43,.08,.06,.12-.1,.27,.09,.08-.19-.15-.09-.23-.19-.02-.44,.76-.2,.75-.81,.15-.37-.02-.66,.13-1.01,.19,.04,.16,.33,.16,.33,.23-.01,.32-.12,.38-.32,.03,.09,.1,.12,.21,.17,.09-.11-.15-.34,.08-.34,.04,.11,.12,.27,.14,.4,.06-.18,.08-.42,.16-.58,.14,.11,.07,.26,.1,.38,.1-.17,.3-.4,.19-.65h-.16c.05-.06,.17,.16,.15,.23,0,.26-.24,.06-.31-.01l.06-.12c-.45-.38-.35,.35-.54,.49l-.18-.39,.03,.43c-.11-.05-.29-.2-.23-.33-.27-.04-.02,.22-.29,.14-.04-.02-.04-.04-.04-.06l-.05,.21c-.03-.09-.21-.2-.09-.23-.4,.03-.18,.57-.48,.41v-.04c-.23,.39,.17,.25,.18,.73l-.67-.39,.18,.25s-.12,.07-.19-.03c.03,.27,.11,.08,.18,.29-.35-.05-.33,.51-.71,.2,.11,.22,.27-.02,.23,.26-.42-.32-.12,.25-.43,.22-.15-.23,.08-.26-.23-.29,.24,.4-.35,.21-.39,.4,.26,.25-.13,.38-.23,.67-.08-.1-.5,.26-.77,.37l-.04-.05c.25,.28,.01,.43-.05,.64-.16-.15-.21-.23-.22-.38l-.11,.15c.06,.11,.07,.19,.03,.31l-.18-.21c-.14,.2-.06,.59-.4,.72,.19,.17,.71,.25,.64,.61-.12-.08-.31-.21-.3-.32,0,.03,.03,.15-.06,.16l-.1-.25c-.17,.05,.11,.18,.02,.25-.15-.12-.16-.02-.28-.13,0-.03,.13-.03,.09-.11-.11,.08-.3,.13-.45,.08,.1,.06,.21,.16,.17,.25-.14,.2-.24-.08-.41-.03,.07,.13-.13,.17,.1,.35-.04,.06-.16-.02-.24-.04,.03,.18-.32,.5,.01,.57h.03c0,.52-.65,.6-.79,1.01l-.08-.06c-.05,.27-.26,.49-.18,.75-.04,.06-.25,.04-.32-.05-.05,.2,.03,.28-.25,.41-.04-.25-.16-.03,0-.23-.21,.15-.37,.11-.3,.48-.16-.21-.37-.03-.37,.11l.25-.04c-.04,.13-.12,.21-.21,.3l-.24-.24c-.61,.2,.09,1.13-.69,1.09,.12,.24,.29-.14,.45,.11-.16,.17-.7,.11-.74,.17-.33,.17,.26,.51-.02,.72,.12,.03,.41,.16,.38,.43-.16,.17-.57-.02-.58-.19,.02-.05,.07-.06,.1-.03,0-.09,0-.2-.15-.19l.09,.09c-.16,.03-.32,.31-.44,.15,0,.21,.13,.17,.25,.09-.3,.16-.25,.39-.5,.59,.08,0,.22,.03,.2,.07-.36,.31,.09,.28-.02,.57-.24,.06-.34-.27-.36,.07-.2,.1-.29-.13-.34-.24,.06,.36-.39,.37-.51,.49v-.18c0,.1-.04,.17-.08,.23l.25,.05c-.08,.05-.12,.12-.2,.07,.09,.15,.38,.14,.47,.4-.16,.04-.06,.36-.36,.24,.27-.26-.29-.12-.19-.41,0,.07-.03,.13-.11,.18-.04,0-.05-.04-.05-.07-.42,.16,.23,.31,.05,.62-.13-.13-.33-.09-.33-.02,.07-.12,.29,.09,.35,.27-.23,.13-.03,.27-.1,.36l.12-.09c.13,.13,.06,.22,.03,.38-.13-.06-.01-.17-.09-.15,.19,.31-.48,.19-.41,.51-.16,.04-.3-.15-.42-.1,.07,.35-.36,.15-.33,.5,.25,.04,.2,0,.31,.29l.08-.5,.16,.44c.07-.13,.01-.34,.09-.4,.1,.22,.06,.18,.26,.21-.41,0,0,.44-.32,.53l-.52-.28c-.39,.18-.02,.68-.36,1l.16-.08c.18,.16-.1,.26-.08,.43-.17-.1-.27-.06-.41-.06,.13,.06-.16,.28,.17,.5l-.32,.06c-.26,.27,.31,.62,.1,.9-.15-.19-.34-.11-.38-.39-.05,.1-.13,.18,0,.24-.14,0,.1,.4-.12,.42,.06,.08,.24,.19,.16,.3-.04,0-.09-.04-.09-.04,.09,.04,.03,.24,.28,.23-.71,.05-.38,.91-.99,.97-.04,.26-.11,.57-.19,.78-.05-.04-.09-.04-.05-.07-.3,.22,.45,.4,.12,.65-.36,.04-.09-.24-.24-.18-.62-.21-.08,.43-.52,.51v-.07c-.29,.09,.04,.51-.12,.77,0,0-.05-.04-.09-.04,.23,.32,.18,.72,.16,1.02-.2-.18-.07-.17-.33-.22-.02,.13,.4,.12,.37,.39-.16,.03-.35,.15-.61,.07l.08-.23c-.38-.02-.11,.3-.21,.39l-.14-.07c-.09,.37,.28,.52,.1,.88h.12c.28,.35-.27,.1-.08,.4l-.39-.08c.04,.17,.17,.61,.15,.88-.22-.24-.25-.58-.34-.82-.05,.13-.15,.47,0,.61-.01-.07-.08-.17,0-.2,.23,.28,.29,.55,.18,.81-.7-.32-.45,.63-1.07,.61,.09,.57-.46,.9-.62,1.47,.63,0-.04,.17,.54,.34,0,.14-.04,.19-.08,.19l-.49,.27c-.2,.03-.08-.17-.22-.2-.15,.27-.29,.03-.51,.17,.22,.03,.26,.2,.13,.34l.35-.13c.17,.5-.6,.17-.44,.68l-.14-.19c.04,.24-.26,.76,.13,1.12-.08,.01-.25,0-.26-.1-.24,.47,.12,1.26-.29,1.55l-.13-.08c.01,.11,.22,.25,.03,.32-.06-.03-.13-.08-.15-.04,.03,.07,.17,.33,.05,.42l-.13-.16c-.34,.42,.15,.87,.12,1.3-.42-.14-.68,.2-.81,.37l-.06-.03c-.24,.55,.05,1.07,.05,1.64-.56,.18-.53,1.04-.94,1.49,.1-.06,.32,.11,.34,.22-.12,.1,.19,.43-.19,.29l.02-.04c-.41-.02-.38,.26-.45,.46l.5,.18c-.89,.3-.12,1.43-.86,1.52,.09,.16,.04,.31,.14,.47l-.27-.08c-.16,.33-.25,.49-.3,.94l-.17-.14c-.08,.24,.7,.52,.66,.75l-.43-.04c-.11,.42-.59,.75-.33,1.27-.06-.02-.17-.07-.17-.14-.06,.2-.48,.7,.1,.77-.37-.09-.15,.43-.05,.7l-.26-.11c.29,.28,.39,.31,.41,.61-.05,.05-.23,0-.14-.07-.2,.18,.21,.23,0,.45l-.15-.14c-.08,.21,.02,.22,.19,.39,.07,.16-.17,.4-.42,.37,.14,.07,.31,.24,.21,.35-.1,0-.14-.07-.16-.1-.28,.32,.18,.62-.15,.81-.09-.02-.14-.01-.17,0,.08-.29,.15-.52,.17-.49-.25-.06-.35,.16-.65-.11,.14,.24,.47,.66,.3,.86-.03,0-.05,.01-.09,0l-.02-.03s-.03,.1,0,.15c-.06,.06-.1,.1-.12,.17-.21-.02-.18,.24-.22,.36,.28,.06,.2,.2,.45,.11-.02,.01-.03-.03-.02-.11,0-.02,0-.04-.02-.06h.02l.05-.28c.12,.13,.21,.25,.03,.34,.16,.1,.33,.21,.4,.27-.42,.07-.7,.33-.94,.31,.07,.4-.1,.87,.36,1.21,.04,.12-.18,.08-.27,.1-.04-.07-.01-.14-.08-.19,.08,.23-.09,.62,.26,.75-.22,.22-.3-.22-.32,.15l-.1-.07c-.73,.57,.66,1.34-.25,1.94,.06-.04,.08-.07,.15-.06-.52,.81-.09,1.88-.79,2.64-.16,.23,.07,.3,.21,.49h-.31l.29,.32c.17,.42-.85,.49-.48,1.05l.21-.02c-.07,.16,.01,.55-.21,.48,.03,.02,.2,.1,.08,.14l-.16-.03,.19,.46c-.17,.3-.61-.17-.73,.29,.03,.18,.36,.58,.47,.53,.02-.07,.13-.16,.29-.13l.05,.17c.45,.12,.9,.33,1.29,0l-.23-.32,.24-.04-.03,.23c.23-.09,.06-.2-.04-.32,.12,0,.21-.02,.27-.06l-.38-.35c.18,0,.33,.19,.46,.03-.18-.16-.42,.04-.52-.19,.23-.09,.39-.02,.25-.2,.12,0,.19,.05,.23,.12-.11-.16,.01-.37-.22-.48,.28-.08,.02-.46,.45-.36-.09-.06-.29-.3-.28-.43,.47,.33,.12-.45,.67-.28-.43-.26-.08-.64-.28-.99,.03,.02,.1,.07,.07,.09,.07-.16,.22-.18,.33-.26-.38-.1-.41-.38-.62-.57,.41-.12,.42,.22,.79,.23-.31-.06-.23-.42-.51-.4,.26-.11,.14-.11,.48-.12-.47-.13-.05-.16-.32-.35,.28-.17,.46,.04,.37-.24,.17-.08,.29,.17,.29,.17Zm.53-6.01h0v0Zm.11-.49c-.03,.06-.05,.13-.06,.21-.1,0-.19-.05-.17-.1,.06,.04,.14-.06,.24-.11Zm-2.15,.57c-.02-.09,.04-.1,.1-.1,0,.04,0,.08,0,.14l.03,.02c-.05-.02-.1-.04-.13-.06Z" />
                    <path class="cls-4" d="M7.29,93.59s.01,.02,.01,.04c.03-.01,.05-.02,.07-.03l-.08-.05v.04Z" />
                    <path class="cls-4" d="M25.13,51.53h-.01s.03,0,.05,.01c-.02,0-.02,0-.03-.01Z" />
                    <polygon class="cls-4" points="11.42 86.23 11.35 86.21 11.4 86.27 11.42 86.23" />
                    <path class="cls-4" d="M27.6,49.94s.05,.02,.08,.02c-.02-.01-.04-.01-.08-.02Z" />
                    <path class="cls-4" d="M28.43,49.1l.18-.06c-.09,.02-.15,.04-.18,.06Z" />
                    <path class="cls-4" d="M29.14,48.52s-.05-.07-.08-.1h0l.08,.1Z" />
                    <path class="cls-4" d="M21.15,60.54s0,.02,0,.04c0,.1,.02,.04,0-.04Z" />
                    <path class="cls-4" d="M22.78,56.47c.02,.07,.04,.13,.04,.19,.06-.05,.09-.1-.04-.19Z" />
                    <polygon class="cls-4" points="19.21 64.95 19.21 64.95 19.2 64.98 19.21 64.95" />
                    <path class="cls-4" d="M22.71,56.83c.09-.04,.11-.1,.11-.17-.05,.04-.11,.09-.11,.17Z" />
                    <path class="cls-4" d="M32.09,46.04l.04-.02s-.02-.03-.02-.04l-.02,.05Z" />
                    <path class="cls-4" d="M32.11,45.98l.02-.05s-.03,.03-.02,.05Z" />
                    <path class="cls-4" d="M32.16,45.81l-.04,.11s.07-.04,.04-.11Z" />
                    <path class="cls-4" d="M31.09,46.67l.06,.09s-.03-.05-.06-.09Z" />
                    <path class="cls-4" d="M30.84,46.92c.08-.04,.3,.02,.35-.1l-.04-.07c.06,.15-.36-.01-.31,.17Z" />
                    <path class="cls-4" d="M28.86,47.06l.28-.17c-.11-.04-.27-.09-.18-.21-.51,.05,.23,.12-.1,.38Z" />
                    <path class="cls-4" d="M28.05,47.64c.08-.16-.12-.11-.15-.16,0,.15,0,.18,.15,.16Z" />
                    <path class="cls-4" d="M23.67,53.18l-.2-.16c-.04,.13,.08,.06,.2,.16Z" />
                    <polygon class="cls-4" points="24.02 55.03 24.21 55.01 24.05 54.83 24.02 55.03" />
                    <polygon class="cls-4" points="22.06 54.69 22.06 54.63 22.02 54.86 22.06 54.69" />
                    <path class="cls-4" d="M16.4,65.11l.3,.1c-.01-.1-.33-.27-.3-.1Z" />
                    <path class="cls-4" d="M14.73,69.95c-.17,0-.31,.09-.2,.23,.06-.1,.22-.16,.2-.23Z" />
                    <polygon class="cls-4" points="9.36 84.24 9.29 84.11 9.32 84.32 9.36 84.24" />
                </g>
                <g>
                    <line class="cls-2" x1="1.31" y1="87.85" x2="4.76" y2="105" />
                    <g>
                        <path class="cls-4" d="M4.11,105.13c.09,0,.28-.05,.23-.07l-.33,.05,.09,.02Z" />
                        <path class="cls-4" d="M4.68,104.84c-.16,0-.45,.02-.74,.1,.32-.03,.19,0,.57-.04,.04,.02-.1,.06-.22,.08,.08,0-.06,.05,.14,.03,.24-.08,.25-.13,.03-.13,.07-.02,.16-.03,.22-.04Z" />
                        <path class="cls-4" d="M4.7,102.31l-.04,.02s.03-.02,.04-.02Z" />
                        <path class="cls-4" d="M4.57,100.76s.04,0,.07,0c-.02,0-.05-.01-.07,0Z" />
                        <path class="cls-4" d="M4.88,100.43s-.01,.01-.02,.02c.03-.01,.04-.02,.02-.02Z" />
                        <path class="cls-4" d="M4.7,102.31l.09-.06c-.11,.02-.07,.04-.09,.06Z" />
                        <path class="cls-4" d="M3.83,104.66s.05,0,.09,0c-.02,0-.03,0-.04-.01h-.05Z" />
                        <path class="cls-4" d="M5.09,102.92h0s.08,0,.13,0h-.14Z" />
                        <path class="cls-4" d="M5.25,103.42s-.27,.04-.39,.06c.11-.02,.17-.02,.19-.01,.05-.01,.11-.02,.19-.04Z" />
                        <path class="cls-4" d="M4.92,104.32h.04s-.02,0-.04,0Z" />
                        <path class="cls-4" d="M5.08,102.54s.08-.02,.1-.02c-.03,0-.07,.02-.1,.02Z" />
                        <path class="cls-4" d="M.14,88.7s.03,0,.05,0c-.03,0-.05,0-.05,0Z" />
                        <path class="cls-4" d="M1.38,87.83h.02c.05,0,.1-.01,.15-.02l-.17,.02Z" />
                        <path class="cls-4" d="M5.14,99.89h0s.03,0,0,0Z" />
                        <path class="cls-4" d="M4.06,95.61c-.24,.1-.33-.02-.59,.11,.11-.03,.44-.02,.59-.11Z" />
                        <path class="cls-4" d="M3.86,104.64s0-.01,0-.02c0,.01,0,.02,0,.02Z" />
                        <path class="cls-4" d="M3.47,95.72h0Z" />
                        <path class="cls-4" d="M4.75,98.84s-.08,.02-.12,.04c.03,0,.06-.02,.12-.04Z" />
                        <path class="cls-4" d="M4.52,99.73l.03-.03s-.03,.02-.03,.03Z" />
                        <path class="cls-4" d="M4.28,98.5s.06-.03,.02-.03h-.03s.06,.01,.02,.03Z" />
                        <path class="cls-4" d="M4.19,98.06s-.04,.01-.05,.02h.02l.04-.02Z" />
                        <path class="cls-4" d="M.54,90c.08-.03,.16-.05,.24-.07-.19,.05-.28,0-.24,.07Z" />
                        <path class="cls-4" d="M3.98,104.63c-.07,.01-.11,.01-.12,.01,0,0,.01,0,.02,.01,.04,0,.08-.01,.1-.02Z" />
                        <path class="cls-4" d="M2.1,98.92l.03-.08s-.03,.05-.03,.08Z" />
                        <path class="cls-4" d="M1.21,93.13h-.04s0,0,.04,0Z" />
                        <path class="cls-4" d="M2.04,98.64c.09-.03,.15-.06,.18-.08-.02,0-.04,0-.07,0l-.11,.07Z" />
                        <path class="cls-4" d="M.78,89.93H.78Z" />
                        <path class="cls-4" d="M.04,89.6c0,.07,.36-.04,.57-.07,.12,.06-.26,.09-.44,.15,.11,.03,.45,0,.44,.04-.06,.01-.08,.03-.16,.03,.3,0,.05,.15,.42,.14-.03,.01-.06,.02-.09,.03,.18-.05,.36-.08,.5-.11,.01,.03,.24,0,0,.07,0-.02-.09,0-.17,0h.11c-.33,.11-.13,0-.38,.04,.12,.04,.42,.05,.33,.12-.33,.08-.13-.09-.42,.04l.11-.1c-.51,.16,.03-.05-.52,.11-.08,.11,.19,.07,.11,.19,.19-.02,.27-.06,.46-.08,.36,.07-.82,.27-.35,.28,.23-.02,.65-.09,.44,.02l-.38,.05c-.02,.1,.55-.06,.32,.09-.15,.01-.14-.05-.18-.02-.28,.12,.22,0,.23,.05l-.33,.08c.07,.09,.33,.15,.42,.24-.1,.01-.21,.02-.31,.06,.19,.1,.02,.3-.15,.47h.3s-.13,.04-.18,.04c-.1,.07,.18-.03,.3-.03,.03,.03-.16,.07-.25,.07,.26,.04,.58,.15,.29,.31h-.09c-.1,.1,.61-.04,.35,.09h-.05c-.09,.18,.21,.31-.2,.52,.42-.06-.15,.2,.43,.09-.27,.15-.38,.14-.54,.31-.02,.04,.37-.02,.44,0l-.3,.06h.33l-.36,.1,.09,.02s.13-.06,.22-.08c.15,.03-.18,.19-.33,.23l.29,.1c-.12,.02-.17,0-.25,0,.32,.02-.32,.08-.02,.09,.07-.02,.18-.03,.24-.04-.18,.07-.16,.16-.07,.2l-.21,.03c-.03,.12,.15,.21,.17,.34,.09-.06,.45-.13,.49-.1l-.32,.08c.2-.02,.11-.06,.36-.06-.03,.05-.36,.1-.47,.1l.12,.03c-.09,.02-.15,.02-.27,.04,.2-.02-.3,.16,.05,.12l-.09,.02c.02,.12,.14,.16,.18,.25,.28-.05,.22,0,.45-.02-.07,.09-.27,.22-.23,.3,.15,.03,.24-.03,.41-.03-.25,.06-.21,.14-.4,.13,.06,.1,.08,.13,.31,.22,.1-.04,.14-.06,.23-.07,.05,.02-.09,.08-.22,.1h-.03c.41,.07-.66,.5-.11,.51h-.03l.3,.07c-.03,.07-.2,0-.34,.08,.45,.05-.02,.23,.28,.28-.72,.24,.11,.29-.34,.51l.17-.04c.18,0-.09,.06-.13,.09,.13-.03,.15-.06,.25-.06,.26,.21-.15,.58-.25,.87-.03,.1,.91-.13,.52,.08l-.33,.03c.43,.11,.07,.4,.43,.52-.08,0-.17,.02-.18,0-.23,.09,.02,.15,.21,.11-.02,.03-.17,.04-.27,.08-.13,.07,.32,.04,.09,.11-.04,.01-.08,0-.1,0,.12,0,0,.13,.26,.05-.12,.1,.15,.11,0,.2,.31-.02-.12,.15,.31,.08-.44,.08-.33,.2-.12,.2-.14,.01-.13,.07-.32,.09,.02,.05,.11,.08,.33,.03-.51,.2,.47,.1-.2,.29,.27,.1,.46,.21,.59,.33-.44,.08-.07-.14-.54-.04,.21,.09,.6,.09,.52,.24-.05,.05-.2,.02-.27,.02,.21,.09,.01,.26,.27,.32-.04,0-.09,0-.12,0,.02,.02-.05,.07,.15,.02h-.06c.28-.11,.63-.04,.78-.07-.58,.08-.12,.14-.86,.23,.04,0,.14,0,.27-.02-.03,.03-.11,.05-.27,.06,.13,.06,.33-.01,.34,.06-.1,.02-.14,.01-.25,.03,.2,0,.39,0,.32,.08-.06,0-.13,.03-.14,.01,.05,.1,.54,.08,.38,.23-.43,.05-.13,.07-.5,.15l.12,.04,.17-.06c0,.06,.28,.05,.17,.12h-.16l.09,.08,.13-.09c.2,.02,.46-.1,.37,0-.04,0,0,.06-.2,.13h0c.12,0,.25,0,.17,.07-.11,.03-.41,.07-.48,.1,.31-.03,.11,.11,.44,.08-.08,0-.27,.04-.31,.05l.25-.03c-.07,.04-.11,.05-.27,.08-.03,.09,.46-.12,.28,.01-.02,0-.06,0-.1,0-.09,.11,.19,.14,.09,.25-.36,.1-.1-.06-.41,.04,.09,.11,.49,.16,.43,.3l.04-.03c.52-.09-.24,.14,.02,.15-.04,0-.29,.04-.23,.03-.07,.1,.16,.14,.35,.23h-.14c-.11,.08-.04,.15-.09,.21,.14-.01,.12,.02,.31-.03-.73,.31,.47,.22-.14,.49,0-.02-.12-.02-.12,0l.15,.09c.22-.06,.13-.04,.31-.1,.14-.01,.25,0,.25,.03-.16-.02-.36,.07-.49,.12,.07-.02,.15-.03,.22-.04-.39,.14,.46-.08,.2,.06l-.12,.02c.07,.02,.23,.02,.2,.06-.26,.07-.13,0-.35,.03,.02,.05,.52,0,.26,.09-.08,0-.08-.03-.16-.04-.3,.11-.22,.1-.26,.14h0l-.12,.1,.08-.04c.7-.08,.15,.1,.61,.09-.44,0-.25,.04-.55,.09-.08,.04-.16,.09-.25,.1,.25,0-.18,.1,.19,.09-.1,.02,0,.04-.24,.08,.09,.03,.16-.05,.28-.07,.34,.01-.36,.26,.11,.28,.2,.06,.53,.01,.71,.07-.15,.06-.35,.05-.35,.05-.13,.08-.1,.11,.02,.13-.09,0-.15,.03-.26,.07,.03,.03,.35-.05,.22,.03-.11,.01-.28,.04-.39,.04,.1,.03,.28,.03,.38,.06-.16,.05-.26,.02-.37,.03,.09,.03,.18,.1,.44,.06l.09-.05s-.22,.05-.28,.05c-.22,0,.08-.08,.17-.1l.07,.02c.55-.15-.12-.11-.1-.18l.41-.06h-.35c.1-.03,.33-.09,.4-.07,.19-.09-.15-.01,.06-.1,.03-.01,.05-.01,.07-.01l-.13-.02c.09,0,.29-.07,.23-.03,.22-.13-.33-.07-.03-.16h.03c-.16-.08-.3,.05-.67,.04l.73-.2-.3,.05s.03-.04,.15-.06c-.21,0-.13,.03-.33,.05,.26-.11-.16-.13,.32-.23-.23,.03-.16,.09-.33,.06,.51-.12-.1-.05,.12-.15,.27-.04,.14,.04,.36-.06-.45,.06,.08-.12-.02-.14-.36,.07-.17-.06-.3-.11,.12-.02,.17-.17,.28-.27h.06c-.36,.05-.31-.03-.39-.07,.22-.04,.3-.05,.4-.04v-.05c-.13,.01-.19,0-.24-.01l.27-.04c-.03-.06-.34-.06-.18-.18-.25,.05-.69,.2-.87,.15,.14-.03,.37-.08,.43-.07-.02,0-.12,0-.06-.03h.24c.09-.07-.19,0-.18-.03,.19-.04,.13-.05,.29-.08,.02,0-.07,.04,0,.04,.03-.04,.13-.1,.28-.15-.11,.03-.26,.05-.29,.03-.03-.06,.23-.07,.32-.12-.14,.01,0-.06-.3,0,0-.02,.13-.05,.21-.07-.13,0-.07-.14-.37-.05h-.03c-.31-.04,.12-.24-.03-.32l.1-.02c-.12-.04-.09-.13-.31-.13,0-.02,.17-.08,.28-.09-.08-.03-.19-.02-.05-.12,.18,.01,.15-.05,.13,.02,.07-.08,.22-.12-.05-.14,.25-.03,.3-.11,.22-.12l-.17,.08s-.03-.06-.01-.09l.33-.05c.37-.21-.72-.09-.08-.32-.23,.01-.15,.1-.42,.13,.03-.07,.49-.22,.49-.24,.16-.12-.49,.02-.39-.09-.11,.03-.42,.11-.54,.07,.03-.07,.47-.17,.57-.15,.01,.01-.02,.03-.06,.03,.05,.01,.1,.03,.22-.02l-.12,.02c.11-.05,.08-.13,.28-.15-.12-.02-.19,.02-.25,.06,.15-.11-.02-.12,.08-.22-.06,.03-.2,.06-.2,.05,.12-.14-.23,0-.3-.07,.17-.08,.43-.07,.26-.12,.11-.07,.31-.07,.41-.07-.24-.03,.12-.16,.15-.21l.1,.02c-.06-.01-.06-.03-.07-.05l-.23,.07s.03-.05,.13-.07c-.16,0-.38,.1-.6,.09,.11-.05-.14-.06,.16-.14-.09,.11,.31-.07,.37,0-.04,0-.04-.03,0-.06,.03-.01,.06,0,.08,0,.26-.14-.36,.03-.37-.06,.18-.02,.33-.09,.29-.09,0,.04-.29,.08-.43,.07,.12-.09-.11-.04-.1-.08l-.06,.05c-.18,.02-.16-.01-.22-.04,.13-.03,.1,.02,.16,0-.31,.02,.3-.17,.08-.19,.11-.05,.33-.07,.4-.11-.24-.02,.22-.12,.02-.16-.23,.07-.17,.06-.41,.05l.19,.09h-.36s.16,.04,.13,.07c-.2,0-.14,0-.33,.05,.34-.12-.22-.06,0-.16l.58-.11c.24-.14-.33-.1-.21-.24l-.09,.06c-.23,.03-.05-.06-.15-.08,.19-.04,.26-.07,.38-.11-.14,.03,0-.09-.39-.02l.24-.1c.09-.11-.57,0-.52-.09,.22-.02,.34-.08,.51-.05,0-.03,.03-.06-.11-.04,.12-.04-.28-.03-.1-.09-.09,0-.29,.04-.28,0,.04-.01,.1-.02,.1-.02-.1,.02-.14-.03-.35,.05,.59-.21-.09-.24,.41-.43-.08-.05-.16-.12-.18-.17,.06,0,.1-.02,.08,0,.16-.12-.57,.06-.38-.07,.3-.11,.18,.01,.29-.04,.63-.14-.11-.09,.25-.23h.04c.21-.08-.26-.06-.23-.14,0,0,.06,0,.1-.02-.34,.01-.46-.06-.57-.12,.25-.03,.14,0,.39-.06-.04-.03-.4,.09-.49,.04,.13-.05,.24-.12,.51-.18l.03,.06c.34-.1-.03-.08,.03-.12l.15-.03c-.07-.09-.45,0-.45-.12l-.11,.03c-.39,.02,.21-.09-.09-.09l.38-.09c-.1-.02-.4-.05-.49-.11,.29-.02,.46,.03,.64,.04,0-.04-.05-.12-.25-.1,.04,0,.14,0,.08,.03-.31,.02-.47-.01-.48-.09,.75-.14,.15-.23,.72-.4-.3-.07,.07-.28,0-.42-.57,.17-.03-.04-.62,.09-.05-.03-.04-.04,0-.05l.34-.18c.17-.06,.14,0,.27-.02,.03-.09,.25-.08,.4-.17-.21,.05-.31,.04-.24-.03l-.26,.12c-.34-.04,.48-.19,.15-.24h.2c-.12-.04-.04-.21-.53-.17,.07-.02,.23-.07,.28-.05,.05-.15-.57-.19-.3-.36l.15-.02s-.28,.01-.14-.05c.06-.01,.15-.02,.15-.03-.05,0-.27-.01-.19-.06h.17c.17-.17-.44-.12-.56-.21,.43-.09,.55-.22,.61-.28h.06c.02-.17-.41-.19-.61-.3,.45-.18,.14-.33,.37-.53-.07,.04-.34,.06-.39,.05,.08-.05-.32-.03,.08-.1h0c.38-.09,.27-.14,.27-.19l-.52,.1c.73-.29-.35-.3,.31-.51-.14,0-.14-.05-.28-.06l.28-.05c.05-.11,.08-.16-.01-.26l.2-.02c0-.07-.82,.08-.84,.02l.41-.1c-.03-.11,.31-.3-.09-.33,.06-.01,.18-.03,.2-.02,0-.05,.24-.26-.33-.13,.37-.08,.01-.12-.16-.15l.28-.05c-.36,.02-.46,.04-.57-.01,.03-.02,.22-.06,.15-.02,.13-.08-.27,0-.14-.09h.18c0-.07-.08-.05-.29-.04-.12-.01,.05-.12,.29-.18-.15,.02-.36,.03-.3-.02,.09-.02,.15-.02,.18-.02,.17-.13-.35-.08-.09-.2,.09-.02,.13-.03,.16-.04,0,.08,0,.14-.01,.14,.25-.05,.28-.12,.64-.14-.2-.01-.63-.01-.52-.1,.02,0,.05-.02,.09-.03h.03s0-.03-.05-.03c.04-.03,.07-.05,.07-.07,.21-.05,.1-.09,.1-.13-.28,.06-.24,0-.46,.09,.02,0,.03,0,.05,.02,0,0,.01,0,.03,0h-.02s.02,.05,.03,.08c-.14,0-.27,0-.12-.06-.18,.02-.37,.04-.45,.05,.38-.12,.57-.24,.8-.3-.17-.06-.15-.2-.68-.16-.07-.01,.14-.06,.22-.09,.06,0,.05,.03,.13,.02-.14-.03-.08-.15-.45-.09,.15-.1,.34-.03,.26-.11h.11c.54-.31-.98-.12-.28-.47-.04,.02-.06,.03-.12,.05,.28-.3-.4-.41,.07-.75,.09-.09-.14-.05-.32-.05l.29-.07h-.36c-.27-.04,.69-.31,.2-.34l-.2,.06c.03-.05-.15-.11,.09-.15-.04,0-.21,.03-.11-.01l.15-.03-.29-.05c.1-.11,.62-.11,.62-.24-.07-.03-.48-.04-.58,0,0,.02-.09,.07-.24,.1l-.09-.02c-.46,.08-.93,.15-1.23,.31H.46l-.22,.08-.03-.06c-.2,.08-.01,.06,.12,.06-.12,.03-.2,.06-.24,.08l.45-.02c-.18,.04-.36,.04-.45,.11,.21,0,.39-.11,.54-.08-.2,.08-.37,.1-.19,.1-.12,.03-.19,.04-.25,.03,.15,0,.08,.08,.32,.05-.25,.09,.09,.11-.34,.19,.11,0,.35,0,.38,.02-.53,.05,0,.13-.56,.22,.47-.05,.24,.12,.51,.14-.04,0-.11,0-.09,0-.03,.05-.17,.09-.25,.14,.39-.07,.49-.02,.73-.03-.36,.13-.46,.06-.81,.15,.31-.07,.33,.03,.59-.04-.22,.09-.1,.06-.42,.14,.48-.09,.09,.02,.39,0-.22,.11-.45,.11-.29,.14-.14,.06-.32,.04-.32,.04Zm1.14,1.38h0l-.02-.03s.01,.01,.03,.03Zm.03,.13s0-.04,0-.06c.09-.02,.19-.04,.19-.02-.07,0-.11,.05-.19,.08Zm1.85-.66s0,.03-.07,.04c0,0-.02-.02-.04-.03h-.03c.05,0,.1-.01,.14-.02Z" />
                        <path class="cls-4" d="M2.7,90.49h-.02s-.04,.01-.06,.02h.09v-.02Z" />
                        <path class="cls-4" d="M4.66,102.33h0s-.02,0-.04,0c.01,0,.02,0,.03,0Z" />
                        <polygon class="cls-4" points="1.04 93.01 1.11 92.99 1.05 92.99 1.04 93.01" />
                        <path class="cls-4" d="M3.85,103.24s-.05,.01-.07,.02c.02,0,.04-.01,.07-.02Z" />
                        <path class="cls-4" d="M3.85,103.56l-.09,.06c.05-.03,.08-.05,.09-.06Z" />
                        <path class="cls-4" d="M3.76,103.82s.09-.01,.12-.02h0l-.12,.02Z" />
                        <path class="cls-4" d="M2.68,100.12s0,0-.01,0c-.06-.01-.03,0,.01,0Z" />
                        <path class="cls-4" d="M3.55,101.11c-.05,0-.1,0-.14,0-.02,.02-.02,.04,.14,0Z" />
                        <polygon class="cls-4" points="2.1 98.93 2.1 98.93 2.1 98.92 2.1 98.93" />
                        <path class="cls-4" d="M3.41,101.05c-.05,.03-.04,.05,0,.05,.02-.02,.04-.05,0-.05Z" />
                        <path class="cls-4" d="M3.85,104.88h0s.03,0,.04,0h-.04Z" />
                        <path class="cls-4" d="M3.88,104.88h.04s0,0-.04,0Z" />
                        <path class="cls-4" d="M3.99,104.9h-.07s0,0,.07,0Z" />
                        <path class="cls-4" d="M3.91,104.54l-.1,.02s.05,0,.1-.02Z" />
                        <path class="cls-4" d="M3.86,104.45s-.2,.1-.13,.12h.08c-.15,0,.23-.13,.05-.12Z" />
                        <path class="cls-4" d="M5.02,103.8l-.06,.1c.1-.04,.24-.08,.28-.05,.3-.16-.23,.07-.21-.04Z" />
                        <path class="cls-4" d="M5.12,103.52c.06,.03,.15-.03,.22-.04-.1,0-.13,0-.22,.04Z" />
                        <path class="cls-4" d="M4.76,101.73l.25-.05s-.1,.02-.25,.05Z" />
                        <polygon class="cls-4" points="3.4 101.65 3.25 101.71 3.48 101.68 3.4 101.65" />
                        <polygon class="cls-4" points="5.14 101.09 5.18 101.09 5.08 101.06 5.14 101.09" />
                        <path class="cls-4" d="M4.45,98.09l-.31,.07c.06,.01,.41-.05,.31-.07Z" />
                        <path class="cls-4" d="M3.87,96.85c.15-.05,.24-.1,.09-.09-.02,.03-.13,.09-.09,.09Z" />
                        <polygon class="cls-4" points="3.59 92.85 3.7 92.86 3.6 92.83 3.59 92.85" />
                    </g>
                </g>
                <g>
                    <line class="cls-2" x1="21.71" y1="96.16" x2="5.71" y2="105.33" />
                    <g>
                        <path class="cls-4" d="M5.38,104.75c.03,.08,.14,.25,.14,.2l-.15-.3v.1Z" />
                        <path class="cls-4" d="M5.84,105.2c-.05-.15-.16-.42-.33-.67,.13,.29,.06,.18,.22,.53,0,.05-.09-.07-.15-.18,.03,.08-.07-.04,.02,.14,.16,.21,.2,.19,.14-.01,.04,.06,.08,.14,.11,.19Z" />
                        <path class="cls-4" d="M8.36,104.34l-.03-.03s.03,.02,.03,.03Z" />
                        <path class="cls-4" d="M9.86,103.7s0,.04,.02,.07c0-.02,0-.05-.02-.07Z" />
                        <path class="cls-4" d="M10.28,103.88s-.02,0-.03-.01c.02,.02,.03,.03,.03,.01Z" />
                        <path class="cls-4" d="M8.36,104.34l.09,.07c-.05-.1-.06-.06-.09-.07Z" />
                        <path class="cls-4" d="M5.75,104.32s0,.05,.02,.09c0-.02,0-.03,0-.04l-.02-.05Z" />
                        <path class="cls-4" d="M7.88,104.93h-.01s.03,.08,.06,.13l-.05-.13Z" />
                        <path class="cls-4" d="M7.43,105.25s-.12-.24-.18-.35c.05,.1,.07,.16,.07,.18,.03,.05,.06,.1,.1,.17Z" />
                        <path class="cls-4" d="M6.43,105.25v.04s0-.03,0-.04Z" />
                        <path class="cls-4" d="M8.25,104.79s.04,.07,.05,.08c-.02-.03-.04-.06-.05-.08Z" />
                        <path class="cls-4" d="M20.5,95.33s.02,.03,.02,.04c-.01-.03-.02-.04-.02-.04Z" />
                        <path class="cls-4" d="M21.74,96.23v.02s.05,.09,.08,.14l-.08-.16Z" />
                        <path class="cls-4" d="M10.9,103.94h0s0,.02,0,0Z" />
                        <path class="cls-4" d="M14.83,101.45c-.17-.19-.09-.32-.29-.53,.06,.09,.16,.42,.29,.53Z" />
                        <path class="cls-4" d="M5.78,104.35s.01-.01,.02-.01c-.01,0-.02,0-.02,.01Z" />
                        <path class="cls-4" d="M14.53,100.92h0l-.02-.02,.02,.02Z" />
                        <path class="cls-4" d="M11.83,103.21s-.05-.07-.07-.1c.01,.02,.03,.05,.07,.1Z" />
                        <path class="cls-4" d="M10.87,103.29l.04,.02s-.03-.02-.04-.02Z" />
                        <path class="cls-4" d="M12.02,102.64s.04,.04,.04,0l-.02-.03s.02,.06-.02,.02Z" />
                        <path class="cls-4" d="M12.43,102.41s-.02-.03-.04-.04v.02l.04,.02Z" />
                        <path class="cls-4" d="M19.33,96.16c.05,.06,.1,.14,.14,.21-.11-.17-.08-.27-.14-.21Z" />
                        <path class="cls-4" d="M5.83,104.46c-.03-.06-.05-.1-.05-.11,0,0,0,.01,0,.02,.02,.04,.04,.07,.05,.09Z" />
                        <path class="cls-4" d="M10.93,100.71h.09s-.06-.01-.09,0Z" />
                        <path class="cls-4" d="M16.42,97.87v-.04s-.01,0,0,.04Z" />
                        <path class="cls-4" d="M11.19,100.56c.06,.08,.1,.12,.13,.15,0-.02-.01-.04-.03-.07l-.1-.08Z" />
                        <path class="cls-4" d="M19.47,96.37h0Z" />
                        <path class="cls-4" d="M19.57,95.55c-.07,.03,.15,.33,.24,.52-.02,.13-.17-.22-.29-.37,0,.11,.14,.43,.09,.43-.03-.05-.05-.07-.08-.14,.1,.28-.14,.1-.01,.45-.02-.03-.04-.05-.05-.08,.1,.16,.2,.32,.26,.43-.02,.02,.06,.23-.07,.03,.02,0-.03-.09-.06-.16l.02,.11c-.2-.29-.02-.13-.15-.35,0,.13,.08,.42-.02,.36-.18-.29,.04-.16-.16-.39l.13,.07c-.32-.44,.06,0-.27-.46-.14-.03-.01,.21-.15,.17,.07,.18,.15,.24,.22,.41,.04,.37-.52-.68-.39-.24,.09,.21,.29,.59,.11,.43l-.17-.35c-.1,.02,.23,.51,0,.33-.06-.14,0-.15-.03-.18-.21-.23,.07,.21,.02,.24l-.18-.29c-.06,.1-.04,.37-.11,.48-.04-.09-.08-.19-.16-.27-.04,.22-.29,.12-.51,.01l.1,.28s-.09-.1-.1-.16c-.1-.07,.09,.16,.12,.28-.02,.03-.12-.13-.15-.21,.04,.26,.03,.6-.22,.38l-.03-.09c-.13-.06,.22,.57,.02,.37v-.05c-.23-.02-.26,.3-.59-.02,.19,.38-.24-.08,.04,.44-.23-.2-.26-.31-.48-.41-.05,0,.14,.35,.13,.42l-.15-.27,.11,.31-.21-.3v.09s.1,.1,.14,.18c.01,.15-.25-.1-.33-.24v.31c-.07-.11-.07-.16-.09-.24,.08,.32-.17-.27-.1,.01,.04,.06,.09,.16,.12,.22-.13-.14-.2-.1-.22,0l-.09-.19c-.13,.01-.17,.21-.28,.27,.09,.06,.26,.39,.25,.44l-.18-.28c.08,.19,.1,.09,.17,.33-.06,0-.21-.3-.24-.41v.13c-.05-.08-.06-.13-.12-.24,.08,.19-.25-.23-.11,.09l-.05-.08c-.12,.06-.11,.19-.2,.26,.14,.25,.07,.21,.16,.43-.11-.04-.3-.19-.37-.12,.01,.15,.1,.22,.16,.38-.13-.22-.2-.15-.25-.34-.08,.09-.1,.12-.12,.37,.07,.08,.1,.11,.14,.19,0,.05-.11-.06-.16-.17v-.03c.04,.41-.7-.46-.55,.07v.28c-.06,0-.05-.19-.17-.3,.09,.44-.23,.06-.19,.37-.46-.61-.26,.21-.61-.15l.09,.15c.06,.17-.08-.07-.13-.09,.07,.12,.11,.12,.14,.22-.13,.32-.62,.05-.94,.05-.11,0,.41,.83,.08,.52l-.13-.3c.02,.45-.37,.2-.38,.59-.03-.07-.08-.16-.06-.17-.16-.19-.14,.07-.05,.24-.04,0-.09-.15-.16-.23-.11-.1,.06,.32-.08,.12-.02-.03-.03-.07-.03-.09,.03,.11-.13,.04,.03,.27-.13-.08-.06,.18-.2,.07,.12,.29-.19-.06,.02,.32-.22-.4-.3-.25-.23-.04-.05-.13-.11-.1-.18-.28-.04,.03-.05,.13,.08,.33-.36-.42,.04,.48-.35-.09-.02,.29-.07,.51-.14,.67-.22-.39,.12-.12-.12-.53-.03,.23,.1,.61-.08,.58-.06-.04-.08-.18-.11-.25-.03,.23-.25,.1-.24,.37-.02-.04-.03-.08-.04-.12-.01,.02-.08-.03,.02,.15v-.06c.17,.24,.22,.59,.29,.73-.26-.53-.18-.07-.49-.74,0,.04,.04,.14,.11,.25-.04-.02-.09-.09-.14-.24-.02,.14,.12,.31,.04,.35-.05-.09-.05-.13-.11-.23,.06,.19,.12,.38,.02,.34-.03-.05-.07-.12-.05-.13-.08,.08,.09,.54-.12,.44-.18-.39-.11-.1-.3-.42v.13l.11,.14c-.05,.02,.04,.29-.07,.21l-.04-.16-.06,.12,.12,.09c.04,.2,.24,.41,.12,.36,0-.04-.05,.03-.19-.15h0c.03,.12,.07,.24-.01,.18-.07-.1-.2-.36-.24-.43,.13,.29-.08,.14,.06,.45-.03-.07-.13-.24-.15-.28l.11,.23c-.06-.06-.09-.09-.16-.23-.09,0,.26,.4,.07,.27,0-.02-.03-.05-.03-.09-.14-.04-.08,.23-.23,.17-.21-.31,.02-.12-.16-.38-.08,.12-.01,.52-.16,.51l.04,.02c.25,.47-.21-.18-.14,.07,0-.04-.13-.27-.1-.21-.12-.03-.09,.2-.12,.41l-.05-.13c-.1-.08-.15,0-.23-.02,.05,.13,.02,.12,.13,.28-.53-.59-.07,.52-.53,.04,.01-.01-.02-.12-.03-.12l-.05,.17c.12,.2,.08,.11,.2,.26,.05,.13,.08,.24,.05,.25-.03-.16-.18-.32-.27-.42,.04,.06,.07,.13,.11,.19-.26-.32,.22,.41,0,.21l-.06-.11c0,.07,.05,.23,0,.21-.15-.22-.03-.13-.14-.32-.04,.04,.16,.49,0,.28-.02-.08,0-.09,0-.17-.2-.25-.17-.17-.22-.2h0l-.15-.08,.06,.06c.29,.64-.05,.18,.1,.62-.14-.42-.11-.22-.26-.49-.06-.06-.14-.13-.17-.21,.09,.23-.16-.13-.03,.21-.05-.08-.04,.01-.16-.2,0,.09,.1,.14,.15,.25,.09,.33-.37-.25-.25,.2,0,.21,.15,.51,.15,.7-.11-.12-.15-.32-.15-.32-.12-.1-.14-.06-.12,.06-.03-.08-.08-.14-.15-.22-.02,.04,.15,.32,.04,.22-.05-.1-.12-.26-.16-.36,0,.1,.06,.28,.06,.38-.1-.14-.1-.24-.14-.34,0,.09-.04,.2,.08,.44l.08,.07s-.12-.2-.14-.25c-.06-.21,.1,.05,.15,.13v.07c.32,.48,.07-.15,.15-.15l.18,.38-.11-.33c.07,.09,.19,.28,.19,.35,.14,.15-.04-.15,.11,.03,.02,.03,.03,.05,.03,.06l-.02-.13c.04,.08,.15,.25,.1,.21,.19,.17-.03-.34,.15-.08v.03c.04-.18-.14-.27-.24-.63l.43,.62-.14-.27s.05,.01,.11,.12c-.06-.2-.07-.11-.15-.3,.19,.21,.08-.19,.33,.22-.1-.21-.14-.13-.16-.3,.28,.44,.02-.11,.19,.07,.12,.24,0,.14,.17,.33-.2-.41,.14,.03,.14-.06-.18-.32,.01-.18,.02-.32,.06,.11,.22,.1,.35,.18l.03,.05c-.17-.33-.07-.3-.06-.39,.11,.19,.14,.27,.17,.37l.04-.03c-.05-.11-.07-.17-.06-.22l.13,.24c.05-.05-.04-.35,.12-.23-.12-.22-.41-.58-.42-.78,.07,.12,.19,.32,.2,.38,0-.02-.03-.11,.01-.07l.08,.22c.08,.07-.08-.18-.04-.18,.1,.17,.09,.11,.16,.25,0,.02-.06-.06-.04,.02,.05,.01,.14,.09,.23,.22-.06-.1-.13-.23-.12-.27,.05-.05,.14,.19,.22,.26-.05-.13,.05-.03-.09-.28,.02,0,.09,.11,.14,.17-.03-.13,.12-.11-.07-.37h-.02s0-.02,0-.03h0c-.05-.31,.29,.03,.32-.14l.05,.09c0-.13,.1-.13,.03-.34,.02,0,.13,.13,.18,.24,0-.09-.04-.19,.1-.08,.04,.18,.09,.12,.02,.14,.1,.04,.19,.17,.12-.1,.1,.23,.2,.25,.19,.17l-.13-.13s.05-.05,.09-.04l.15,.3c.32,.28-.13-.72,.3-.18-.08-.22-.15-.11-.25-.36,.08,0,.37,.39,.39,.38,.17,.12-.17-.46-.03-.4-.07-.1-.24-.37-.23-.5,.08,0,.31,.39,.33,.5,0,.02-.03-.01-.05-.05,0,.05,0,.1,.09,.2l-.05-.11c.09,.09,.16,.04,.24,.21-.01-.12-.08-.18-.14-.21,.16,.11,.11-.06,.24,0-.04-.05-.12-.17-.11-.17,.18,.07-.07-.22-.02-.31,.13,.13,.2,.38,.2,.21,.11,.08,.17,.27,.2,.36-.05-.24,.2,.06,.26,.07v.1c0-.06,.02-.07,.04-.08l-.14-.19s.06,.02,.11,.1c-.06-.15-.21-.33-.28-.54,.09,.09,.02-.16,.18,.11-.14-.04,.17,.27,.12,.35,0-.04,.01-.05,.05-.02,.02,.03,.03,.06,.03,.08,.22,.2-.14-.33-.05-.37,.08,.16,.19,.28,.18,.24-.04,.02-.16-.25-.2-.38,.12,.09,0-.12,.04-.13l-.06-.04c-.08-.16-.04-.16-.03-.23,.07,.12,.01,.1,.06,.15-.11-.29,.26,.23,.21,0,.09,.09,.17,.29,.23,.34-.05-.24,.19,.17,.17-.03-.14-.2-.11-.14-.18-.37l-.03,.21-.1-.34s0,.17-.04,.15c-.06-.19-.04-.14-.15-.3,.22,.28-.01-.23,.16-.06l.29,.51c.21,.18,0-.35,.17-.28l-.09-.07c-.1-.21,.05-.07,.04-.17,.1,.17,.15,.22,.23,.32-.07-.13,.08-.03-.1-.38l.18,.2c.14,.04-.18-.54-.07-.53,.08,.2,.19,.3,.21,.47,.03-.01,.07,0,0-.12,.08,.1-.06-.27,.06-.13-.03-.08-.13-.26-.09-.27,.02,.03,.05,.08,.05,.08-.05-.08-.02-.14-.15-.32,.39,.49,.21-.17,.55,.24,.03-.09,.07-.19,.11-.23,.03,.05,.05,.09,.03,.07,.17,.12-.24-.52-.05-.39,.2,.25,.04,.18,.13,.26,.33,.56,.06-.14,.3,.16v.04c.16,.17-.01-.27,.08-.28,0,0,.03,.05,.05,.09-.12-.32-.08-.46-.05-.58,.1,.23,.04,.13,.18,.35,.01-.05-.22-.35-.19-.45,.09,.11,.19,.19,.34,.43l-.05,.05c.21,.29,.07-.05,.13-.02l.07,.14c.06-.09-.13-.44-.02-.47l-.07-.1c-.14-.37,.15,.16,.06-.12l.21,.33c-.01-.1-.07-.4-.04-.5,.11,.27,.11,.45,.15,.62,.04-.02,.1-.09,.02-.27,0,.04,.04,.13,0,.09-.11-.29-.13-.46-.06-.49,.37,.67,.27,.07,.62,.55-.02-.31,.3-.03,.42-.15-.35-.49,.03-.04-.28-.56,.01-.05,.03-.05,.05-.02l.28,.26c.11,.14,.04,.13,.11,.25,.09,0,.16,.21,.29,.32-.12-.18-.13-.29-.05-.24l-.2-.21c-.06-.34,.34,.4,.28,.06l.06,.19c0-.13,.19-.11,0-.56,.04,.06,.14,.19,.14,.25,.16,0,.02-.61,.26-.4l.06,.14c0-.05-.1-.27,0-.15,.03,.05,.06,.13,.08,.14-.01-.05-.07-.26,0-.2l.06,.16c.22,.1-.02-.46,.03-.61,.22,.38,.38,.45,.47,.49l.03,.05c.17-.03,.06-.45,.1-.68,.32,.37,.37,.02,.64,.17-.06-.06-.17-.3-.17-.35,.07,.06-.07-.31,.13,.04h-.01c.22,.33,.23,.2,.28,.18l-.25-.46c.51,.59,.2-.44,.61,.12-.03-.13,0-.15-.03-.28l.14,.25c.12,.01,.18,.02,.25-.1l.08,.19c.07-.02-.33-.75-.28-.8l.23,.36c.1-.07,.39,.2,.3-.2,.03,.05,.09,.16,.08,.19,.05-.02,.33,.14,.03-.35,.19,.33,.13-.03,.1-.21l.13,.25c-.13-.34-.18-.42-.16-.54,.03,.02,.12,.19,.07,.14,.12,.1-.09-.25,.05-.16l.06,.17c.06-.01,.01-.09-.06-.29-.02-.12,.14,0,.27,.22-.07-.14-.14-.33-.07-.29,.05,.08,.07,.14,.08,.17,.18,.11-.03-.36,.17-.16,.05,.08,.07,.12,.09,.14-.07,.04-.14,.05-.14,.03,.13,.22,.21,.23,.34,.56-.05-.19-.18-.61-.06-.53,.02,.02,.03,.04,.05,.07v.03s.03-.01,.02-.06c.04,.03,.07,.05,.09,.04,.11,.18,.12,.06,.16,.05-.14-.24-.08-.22-.23-.41,.01,.01,.01,.03,0,.05,0,0,0,.02,0,.03v-.02s-.05,.04-.07,.06c-.05-.14-.08-.25,.03-.14-.08-.17-.15-.34-.19-.42,.23,.32,.42,.46,.55,.66,0-.19,.16-.21-.05-.7,0-.07,.1,.11,.15,.18,.01,.05,0,.06,.02,.13-.02-.15,.12-.13-.05-.46,.15,.11,.13,.31,.19,.21l.04,.1c.46,.41-.19-.98,.37-.43-.04-.03-.05-.05-.09-.1,.38,.17,.29-.53,.76-.19,.11,.06,0-.15-.05-.33l.16,.25-.11-.34c-.04-.27,.52,.55,.4,.07l-.12-.17c.06,0,.07-.18,.18,.03-.01-.03-.09-.19-.02-.11l.08,.14-.03-.29c.13,.05,.3,.55,.43,.51,.01-.08-.11-.47-.18-.55-.02,0-.09-.06-.17-.2v-.09c-.23-.41-.43-.84-.69-1.07l.08,.28-.13-.18,.05-.04c-.14-.17-.06,0-.02,.13-.07-.1-.12-.17-.15-.2l.16,.42c-.1-.15-.15-.33-.24-.39,.07,.2,.23,.34,.25,.48-.14-.17-.21-.32-.16-.14-.06-.1-.09-.17-.11-.23,.04,.14-.06,.1,.05,.33-.16-.21-.08,.12-.29-.26,.04,.1,.11,.33,.09,.37-.21-.49-.13,.04-.39-.46,.2,.43-.04,.27,.02,.54-.01-.03-.04-.11-.03-.09-.06-.01-.14-.13-.21-.19,.19,.34,.17,.46,.26,.69-.24-.3-.2-.42-.39-.72,.16,.27,.07,.32,.22,.54-.15-.18-.09-.08-.27-.35,.24,.43,0,.09,.12,.37-.18-.18-.24-.39-.23-.23-.1-.11-.14-.3-.14-.3Zm-1.02,1.56h0l.02-.04s-.01,.02-.02,.04Zm-.12,.07s.04,0,.06-.02c.05,.08,.1,.17,.08,.17-.03-.06-.08-.09-.14-.15Zm1.22,1.54s-.03,0-.06-.05c0,0,.01-.02,.02-.05v-.03s.03,.09,.05,.13Z" />
                        <path class="cls-4" d="M19.5,98.39s0-.02,0-.02c-.02-.02-.03-.04-.04-.05l.04,.08h0Z" />
                        <path class="cls-4" d="M8.32,104.31h0s-.02-.01-.03-.03c0,.01,.01,.02,.02,.03Z" />
                        <polygon class="cls-4" points="16.49 97.67 16.53 97.74 16.51 97.68 16.49 97.67" />
                        <path class="cls-4" d="M7.18,103.86s-.03-.04-.04-.06c0,.02,.03,.04,.04,.06Z" />
                        <path class="cls-4" d="M6.86,103.97l-.09-.06s.07,.06,.09,.06Z" />
                        <path class="cls-4" d="M6.57,103.98s.04,.08,.06,.11h0l-.06-.11Z" />
                        <path class="cls-4" d="M9.92,101.67s0,0,0-.02c0-.06-.01-.03,0,.02Z" />
                        <path class="cls-4" d="M9.2,102.84c-.01-.05-.03-.1-.03-.13-.03,0-.05,0,.03,.13Z" />
                        <polygon class="cls-4" points="10.92 100.71 10.93 100.71 10.93 100.71 10.92 100.71" />
                        <path class="cls-4" d="M9.22,102.68s-.06-.02-.05,.02c.02,0,.06,.02,.05-.02Z" />
                        <path class="cls-4" d="M5.54,104.42h-.02s.02,.03,.02,.04v-.04Z" />
                        <path class="cls-4" d="M5.55,104.45v.04s.01,0,0-.04Z" />
                        <path class="cls-4" d="M5.56,104.56v-.08s-.03,0,0,.08Z" />
                        <path class="cls-4" d="M5.9,104.36l-.05-.09s.02,.05,.05,.09Z" />
                        <path class="cls-4" d="M5.97,104.28s-.16-.16-.16-.09l.04,.07c-.06-.14,.19,.17,.12,.01Z" />
                        <path class="cls-4" d="M6.97,105.16l-.12-.03c.07,.09,.16,.2,.14,.25,.26,.23-.14-.2-.02-.22Z" />
                        <path class="cls-4" d="M7.28,105.17c-.02,.07,.08,.14,.11,.19-.02-.1-.03-.13-.11-.19Z" />
                        <path class="cls-4" d="M8.96,104.21l.12,.22s-.05-.09-.12-.22Z" />
                        <polygon class="cls-4" points="8.62 102.88 8.51 102.76 8.61 102.97 8.62 102.88" />
                        <polygon class="cls-4" points="9.71 104.35 9.72 104.39 9.72 104.28 9.71 104.35" />
                        <path class="cls-4" d="M12.48,102.66l-.17-.27c0,.06,.18,.37,.17,.27Z" />
                        <path class="cls-4" d="M13.53,101.69c.09,.13,.18,.2,.12,.05-.04,0-.13-.09-.12-.05Z" />
                        <polygon class="cls-4" points="17.42 100.05 17.45 100.16 17.45 100.05 17.42 100.05" />
                    </g>
                </g>
            </g>
        </g>
    </g>
</svg>