<?xml version="1.0" encoding="UTF-8"?><svg id="Layer_2" xmlns="http://www.w3.org/2000/svg" width="349.86" height="92.29" viewBox="0 0 349.86 92.29"><defs><style>.cls-1{fill:#265e5d;stroke:#265e5d;stroke-miterlimit:10;stroke-width:2px;}</style></defs><g id="Contact"><g><path class="cls-1" d="M1,47.1V24.76C1,10.57,11.13,1,26.24,1s25.15,9.57,25.15,24.09v5.27h-8.55v-5.27c0-9.71-6.7-16.46-16.6-16.46S9.65,15.38,9.65,25.41v21.13c0,10.08,6.66,16.83,16.6,16.83s16.6-6.75,16.6-16.55v-5.18h8.55v5.18c0,14.61-10.08,24.18-25.15,24.18S1,61.43,1,47.1ZM57.5,16.26c0-8.97,6.66-15.03,16.6-15.03s16.46,6.06,16.46,15.03v12.76c0,8.97-6.61,15.03-16.46,15.03s-16.6-6.06-16.6-15.03v-12.76Zm16.6,21.04c5.32,0,8.83-3.56,8.83-8.78v-11.65c0-5.27-3.51-8.78-8.83-8.78s-8.97,3.47-8.97,8.78v11.65c0,5.32,3.61,8.78,8.97,8.78Zm0,22.33c3.05,0,5.64,2.5,5.64,5.55,0,3.24-2.59,5.69-5.64,5.69s-5.73-2.45-5.73-5.69c0-3.05,2.59-5.55,5.73-5.55Z"/><path class="cls-1" d="M96.68,1h8.79l25.94,15.05c2.91,1.72,5.02,.33,5.02-3.01V1h8.93V76.48c0,9.32-5.64,14.81-15.48,14.81h-1l-.05-7.55h1c4.06,0,6.59-2.77,6.59-7.45V31.86c0-2.29-.91-3.82-2.91-5.02l-22.93-13.33c-2.91-1.67-5.02-.33-5.02,3.01v54.51h-8.89V1Z"/><path class="cls-1" d="M166.55,8.54h-15.38V1h60.02l39.82,70h-9.69l-4.63-7.88c-.57-.86-2.34-3.63-5.83-3.63h-22.68c-2.2,0-3.44,1.15-3.44,3.34v8.17h-8.88V12.84c0-2.53-1.77-4.3-4.3-4.3h-7.59c-2.44,0-4.3,1.77-4.3,4.3v58.16h-8.83V12.84c0-2.53-1.77-4.3-4.3-4.3Zm41.64,43.36h17.52c4.25,0,2.86-3.58,2.29-4.68l-20.68-36.58c-.43-.76-.76-1.24-1.48-1.24-.67,0-1.1,.48-1.1,1.19V48.56c0,2.2,1.24,3.34,3.44,3.34Z"/><path class="cls-1" d="M249.01,47.1V24.76c0-14.19,10.13-23.76,25.24-23.76s25.15,9.57,25.15,24.09v5.27h-8.55v-5.27c0-9.71-6.7-16.46-16.6-16.46s-16.6,6.75-16.6,16.78v21.13c0,10.08,6.66,16.83,16.6,16.83s16.6-6.75,16.6-16.55v-5.18h8.55v5.18c0,14.61-10.08,24.18-25.15,24.18s-25.24-9.57-25.24-23.9Z"/><path class="cls-1" d="M315.68,8.54h-15.04V1h48.23v7.54h-15.42c-2.44,0-4.3,1.77-4.3,4.3v58.16h-8.83V13.13c0-2.67-1.91-4.58-4.63-4.58Z"/></g></g></svg>