<?xml version="1.0" encoding="UTF-8"?><svg id="Layer_2" xmlns="http://www.w3.org/2000/svg" width="343.64" height="68.56" viewBox="0 0 343.64 68.56"><g id="Layer_1-2"><g id="Contact"><path d="M0,44.43V24C0,9.61,10.37,0,25.89,0s25.84,9.61,25.84,24.49v5.73h-12.18v-5.73c0-8.03-5.46-13.67-13.67-13.67s-13.67,5.64-13.67,14.12v18.67c0,8.48,5.46,14.12,13.67,14.12s13.67-5.64,13.67-13.76v-5.64h12.18v5.64c0,14.97-10.33,24.58-25.84,24.58S0,58.95,0,44.43ZM56.56,15.43C56.56,6.36,63.19,.27,73.3,.27s16.6,6.09,16.6,15.16v11.73c0,9.07-6.63,15.16-16.6,15.16s-16.73-6.09-16.73-15.16V15.43Zm16.73,38.43c3.97,0,7.31,3.25,7.31,7.22s-3.34,7.4-7.31,7.4-7.4-3.25-7.4-7.4,3.34-7.22,7.4-7.22Zm0-20.03c4.24,0,6.99-2.98,6.99-7.31v-10.28c0-4.42-2.75-7.35-6.99-7.35s-7.13,2.84-7.13,7.35v10.28c0,4.42,2.84,7.31,7.13,7.31Z"/><path d="M96.35,1.22h12.22l17.91,10.6c3.52,2.12,6.09,.54,6.09-3.52V1.22h12.22V67.34h-12.22V32.61c0-2.75-.99-4.69-3.43-6.09l-14.48-8.62c-3.52-2.03-6.09-.54-6.09,3.52v45.92h-12.22V1.22Z"/><path d="M163.07,11.55h-11.82V1.22h60.89l34.28,66.12h-13.31l-2.48-4.92c-.27-.54-2.35-4.42-6.95-4.42h-17c-2.39,0-3.7,1.31-3.7,3.7v5.64h-12.18V16.73c0-2.98-2.21-5.19-5.19-5.19s-5.19,2.21-5.19,5.19v50.61h-12.18V16.73c0-2.98-2.21-5.19-5.19-5.19Zm43.62,36.13h10.19c5.41,0,3.38-4.74,2.93-5.64l-14.3-29.45c-.32-.68-.68-1.13-1.4-1.13s-1.13,.45-1.13,1.13v31.39c0,2.39,1.31,3.7,3.7,3.7Z"/><path d="M244.49,44.43V24c0-14.39,10.37-24,25.89-24s25.84,9.61,25.84,24.49v5.73h-12.18v-5.73c0-8.03-5.46-13.67-13.67-13.67s-13.67,5.64-13.67,14.12v18.67c0,8.48,5.46,14.12,13.67,14.12s13.67-5.64,13.67-13.76v-5.64h12.18v5.64c0,14.97-10.33,24.58-25.84,24.58s-25.89-9.61-25.89-24.13Z"/><path d="M308.82,11.55h-11.37V1.22h46.19V11.55h-11.82c-2.93,0-5.19,2.21-5.19,5.19v50.61h-12.18V17.19c0-3.25-2.39-5.64-5.64-5.64Z"/></g></g></svg>