<?xml version="1.0" encoding="UTF-8"?><svg id="Layer_2" xmlns="http://www.w3.org/2000/svg" width="616.08" height="72" viewBox="0 0 616.08 72"><defs><style>.cls-1{fill:#265e5d;stroke:#265e5d;stroke-miterlimit:10;stroke-width:2px;}</style></defs><g id="Eleanor_green"><g><path id="E" class="cls-1" d="M1,1.9H44.51v7.45H13.59c-2.31,0-3.82,1.32-3.82,3.39v6.32c0,2.12,1.51,3.54,3.82,3.54h30.92v7.45H13.92c-2.5,0-4.15,1.65-4.15,4.2v25.17c0,2.5,1.65,4.15,4.15,4.15h30.59v7.45H1V1.9Z"/><path id="L" class="cls-1" d="M99.4,63.56v7.44H56.41V1.89h8.77V59.4c0,2.6,1.56,4.16,4.14,4.16h30.07Z"/><path id="E-2" class="cls-1" d="M85.25,12.74v6.32c0,2.12,1.5,3.53,3.82,3.53h35.67l-2.12,7.45h-33.55c-2.17,0-3.82,1.6-3.82,3.77v7.17c0,2.12,1.65,3.71,3.82,3.71h29.38l-2.12,7.45h-39.85V1.89h54.14l-2.12,7.45h-39.43c-2.32,0-3.82,1.31-3.82,3.39Z"/><path id="A" class="cls-1" d="M142.15,1.9h13.95l20.13,69.1h-9.29l-2.45-7.92c-.19-.71-1.23-3.44-4.57-3.44h-21.54c-3.44,0-4.43,2.73-4.67,3.44l-2.31,7.92h-8.91L142.15,1.9Zm-.61,50.25h15.13c4.2,0,3.82-3.58,3.58-4.62l-10.09-36.25c-.19-.71-.57-1.27-1.23-1.27-.71,0-1.04,.57-1.18,1.27l-9.76,36.25c-.28,1.08-.66,4.62,3.54,4.62Z"/><path id="NO" class="cls-1" d="M184.05,1.9h8.67l25.6,14.85c2.88,1.7,4.95,.33,4.95-2.97V1.9h8.81V71h-8.81V32.35c0-2.26-.9-3.77-2.88-4.95l-22.63-13.15c-2.88-1.65-4.95-.33-4.95,2.97v53.78h-8.77V1.9Zm56.09,51.14h35.68v7.68h-35.68v-7.68Zm.94-36.67c0-9.19,6.74-15.37,16.97-15.37s16.83,6.18,16.83,15.37v12.92c0,9.19-6.74,15.37-16.83,15.37s-16.97-6.18-16.97-15.37v-12.92Zm16.97,21.21c5.33,0,8.81-3.58,8.81-8.81v-11.78c0-5.28-3.49-8.81-8.81-8.81s-8.96,3.49-8.96,8.81v11.78c0,5.33,3.58,8.81,8.96,8.81Z"/><path id="R" class="cls-1" d="M284.25,1.9h35.78c8.67,0,14.66,5.75,14.66,14.05s-5.99,14.09-14.66,14.09h-9.52c-1.65,0-2.36,.75-2.36,1.74,0,.52,.24,1.08,.66,1.7l24.65,37.52h-10.13l-25.17-38.7c-.52-.75-1.32-2.26-2.92-2.26-1.89,0-2.22,1.51-2.22,2.64v38.32h-8.77V1.9Zm13.1,20.69h21.02c4.67,0,7.54-2.59,7.54-6.65s-2.88-6.6-7.54-6.6h-21.02c-2.69,0-4.34,1.08-4.34,3.72v5.61c0,2.83,1.7,3.91,4.34,3.91Z"/></g></g><g id="Mears_green"><g><path class="cls-1" d="M363.42,1.93h8.66l12.66,14.2c.93,1.02,1.95,1.49,2.93,1.49s2-.51,2.93-1.49l12.57-14.2h8.8V70.16h-8.66V19.29c0-1.82-1.02-2.84-2.28-2.84-.7,0-1.54,.42-2.28,1.3l-10.98,12.61h-.14l-11.03-12.43c-.74-.88-1.58-1.26-2.33-1.26-1.21,0-2.19,.98-2.19,2.79v50.68h-8.66V1.93Z"/><path class="cls-1" d="M420.56,1.93h42.96v7.35h-30.53c-2.28,0-3.77,1.3-3.77,3.35v6.24c0,2.09,1.49,3.49,3.77,3.49h30.53v7.35h-30.21c-2.47,0-4.1,1.63-4.1,4.14v24.85c0,2.47,1.63,4.1,4.1,4.1h30.21v7.35h-42.96V1.93Z"/><path class="cls-1" d="M506.5,1.93h41.66c8.56,0,14.47,5.68,14.47,13.87s-5.91,13.92-14.47,13.92h-9.4c-1.63,0-2.33,.74-2.33,1.72,0,.51,.23,1.07,.65,1.68l24.34,37.05h-10.01l-24.85-38.21c-.51-.74-1.3-2.23-2.89-2.23-1.86,0-2.19,1.49-2.19,2.61v37.84h-8.66v-7.96h-.05c0-2.14-1.16-3.26-3.3-3.26h-22.11c-3.4,0-5.12,2.7-5.49,3.4l-4.7,7.82h-9.45L506.5,1.93Zm-14.1,49.61h17.08c2.14,0,3.3-1.12,3.3-3.26h.05V11.05l-.05,.23c0-.7-.33-1.16-.98-1.16-.74,0-1.02,.47-1.4,1.21l-20.25,35.65c-.61,1.07-1.91,4.56,2.23,4.56Zm33.37-29.18h20.76c4.61,0,7.45-2.56,7.45-6.56s-2.84-6.52-7.45-6.52h-20.76c-2.65,0-4.28,1.07-4.28,3.68v5.54c0,2.79,1.68,3.86,4.28,3.86Z"/><path class="cls-1" d="M567.47,48.57v-3.07h8.66v2.89c0,9.22,6,15.03,15.5,15.03,8.98,0,14.71-4.89,14.75-12.71,.05-7.17-4.79-11.59-12.8-11.73l-5.49-.14c-12.38-.28-19.87-6.98-19.87-18.43s9.03-19.41,22.57-19.41c14.38,0,23.22,7.82,23.22,20.48v2.98h-8.66v-2.79c0-7.96-5.72-12.99-14.66-12.99-8.28,0-13.82,4.56-13.82,11.5,0,6.42,4.65,10.33,12.47,10.47l5.49,.14c12.57,.28,20.25,7.49,20.25,19.41,0,12.89-9.12,20.8-23.55,20.8s-24.06-8.56-24.06-22.43Z"/></g></g></svg>