<?xml version="1.0" encoding="UTF-8"?><svg id="Layer_2" xmlns="http://www.w3.org/2000/svg" width="250.87" height="54.21" viewBox="0 0 250.87 54.21"><defs><style>.cls-1{fill:#265e5d;stroke:#265e5d;stroke-miterlimit:10;stroke-width:2px;}</style></defs><g id="Eleanor_green"><g><path id="E" class="cls-1" d="M1,1.67H33.45V7.22H10.39c-1.72,0-2.85,.98-2.85,2.53v4.71c0,1.58,1.12,2.64,2.85,2.64h23.06v5.55H10.63c-1.86,0-3.09,1.23-3.09,3.13v18.77c0,1.86,1.23,3.09,3.09,3.09h22.82v5.55H1V1.67Z"/><path id="L" class="cls-1" d="M74.39,47.66v5.55H42.33V1.67h6.54V44.56c0,1.94,1.16,3.1,3.09,3.1h22.43Z"/><path id="E-2" class="cls-1" d="M63.84,9.76v4.71c0,1.58,1.12,2.63,2.85,2.63h26.6l-1.58,5.56h-25.02c-1.62,0-2.85,1.19-2.85,2.81v5.35c0,1.58,1.23,2.77,2.85,2.77h21.91l-1.58,5.56h-29.72V1.67h40.38l-1.58,5.56h-29.41c-1.73,0-2.85,.98-2.85,2.53Z"/><path id="A" class="cls-1" d="M106.27,1.67h10.41l15.01,51.54h-6.93l-1.83-5.91c-.14-.53-.91-2.57-3.41-2.57h-16.07c-2.57,0-3.3,2.04-3.48,2.57l-1.72,5.91h-6.64L106.27,1.67Zm-.46,37.48h11.29c3.13,0,2.85-2.67,2.67-3.45l-7.52-27.04c-.14-.53-.42-.95-.91-.95-.53,0-.77,.42-.88,.95l-7.28,27.04c-.21,.81-.49,3.45,2.64,3.45Z"/><path id="NO" class="cls-1" d="M137.52,1.67h6.47l19.09,11.07c2.14,1.27,3.69,.25,3.69-2.21V1.67h6.57V53.21h-6.57V24.38c0-1.69-.67-2.81-2.14-3.69l-16.88-9.81c-2.14-1.23-3.69-.25-3.69,2.21V53.21h-6.54V1.67Zm41.84,38.14h26.61v5.73h-26.61v-5.73Zm.7-27.35c0-6.86,5.03-11.46,12.66-11.46s12.55,4.61,12.55,11.46v9.63c0,6.86-5.03,11.46-12.55,11.46s-12.66-4.61-12.66-11.46V12.46Zm12.66,15.82c3.97,0,6.57-2.67,6.57-6.57V12.92c0-3.94-2.6-6.57-6.57-6.57s-6.68,2.6-6.68,6.57v8.79c0,3.97,2.67,6.57,6.68,6.57Z"/><path id="R" class="cls-1" d="M212.25,1.67h26.68c6.47,0,10.93,4.29,10.93,10.48s-4.46,10.51-10.93,10.51h-7.1c-1.23,0-1.76,.56-1.76,1.3,0,.39,.18,.81,.49,1.27l18.39,27.98h-7.56l-18.77-28.86c-.39-.56-.98-1.69-2.18-1.69-1.41,0-1.65,1.12-1.65,1.97v28.58h-6.54V1.67Zm9.77,15.43h15.68c3.48,0,5.62-1.93,5.62-4.96s-2.14-4.92-5.62-4.92h-15.68c-2,0-3.23,.81-3.23,2.78v4.18c0,2.11,1.27,2.92,3.23,2.92Z"/></g></g></svg>