<?xml version="1.0" encoding="UTF-8"?><svg id="Layer_2" xmlns="http://www.w3.org/2000/svg" width="317.39" height="71.58" viewBox="0 0 317.39 71.58"><defs><style>.cls-1{fill:#00605e;stroke:#00605e;stroke-miterlimit:10;stroke-width:2px;}</style></defs><g id="projets"><g id="projets-2"><path id="P" class="cls-1" d="M1,1.92H22.08c15.63,0,25.75,8.51,25.75,23.9,0,14.19-10.13,23.26-25.75,23.26H13.71c-2.4,0-4.11,1.76-4.11,4.16v16.46H1V1.92ZM13.44,41.78h7.35c11.28,0,18.45-6.15,18.45-16.14s-7.17-16.41-18.45-16.41h-7.35c-2.36,0-3.84,1.34-3.84,3.38v25.8c0,2.03,1.48,3.38,3.84,3.38Z"/><path id="R" class="cls-1" d="M55.76,1.92h35.09c8.51,0,14.38,5.64,14.38,13.78s-5.87,13.82-14.38,13.82h-9.34c-1.62,0-2.31,.74-2.31,1.71,0,.51,.23,1.06,.65,1.66l24.18,36.8h-9.94l-24.69-37.96c-.51-.74-1.29-2.22-2.87-2.22-1.85,0-2.17,1.48-2.17,2.59v37.59h-8.6V1.92Zm12.85,20.3h20.62c4.58,0,7.4-2.54,7.4-6.52s-2.82-6.47-7.4-6.47h-20.62c-2.64,0-4.25,1.06-4.25,3.65v5.5c0,2.77,1.66,3.84,4.25,3.84Z"/><path id="o" class="cls-1" d="M111.61,24.45V13.7c0-7.56,6.66-12.66,16.6-12.66s16.46,5.1,16.46,12.66v10.75c0,7.56-6.61,12.66-16.46,12.66s-16.6-5.1-16.6-12.66Zm16.6,6.97c5.32,0,8.83-3,8.83-7.4V14.21c0-4.44-3.51-7.4-8.83-7.4s-8.97,2.92-8.97,7.4v9.81c0,4.48,3.61,7.4,8.97,7.4Z"/><path id="J" class="cls-1" d="M113.39,47.05l8.55,.05c0,9.52,5.96,15.9,14.7,15.9s14.8-6.38,14.8-15.9V1.92h8.55V47.05c0,14.15-9.34,23.53-23.35,23.53s-23.26-9.39-23.26-23.53Z"/><path id="E" class="cls-1" d="M169.17,1.92h42.72v7.31h-29.87c-2.54,0-4.25,1.34-4.25,3.38v6.2c0,2.13,1.71,3.47,4.25,3.47h29.87v7.35h-29.87c-2.54,0-4.16,1.29-4.16,3.51v5.5c0,2.03,1.62,3.38,4.16,3.38l29.87-.05v7.31l-29.87,.05c-2.54,0-4.25,1.39-4.25,3.47v6.24c0,2.03,1.71,3.38,4.25,3.38h29.87v7.31h-42.72V1.92Z"/><path id="T" class="cls-1" d="M235.09,9.23h-14.56V1.92h46.7v7.31h-14.93c-2.36,0-4.16,1.71-4.16,4.16v56.31h-8.55V13.67c0-2.59-1.85-4.44-4.48-4.44Z"/><path id="S" class="cls-1" d="M269.09,48.25v-3.05h8.6v2.87c0,9.15,5.96,14.93,15.4,14.93,8.92,0,14.61-4.85,14.66-12.62,.05-7.12-4.76-11.51-12.71-11.65l-5.46-.14c-12.3-.28-19.74-6.94-19.74-18.31s8.97-19.28,22.42-19.28c14.29,0,23.07,7.77,23.07,20.34v2.96h-8.6v-2.77c0-7.91-5.69-12.9-14.56-12.9-8.23,0-13.73,4.53-13.73,11.42,0,6.38,4.62,10.26,12.39,10.4l5.46,.14c12.48,.28,20.11,7.44,20.11,19.28,0,12.81-9.06,20.67-23.39,20.67s-23.9-8.51-23.9-22.29Z"/></g></g></svg>