<?xml version="1.0" encoding="UTF-8"?><svg id="Layer_2" xmlns="http://www.w3.org/2000/svg" width="200" height="200" viewBox="0 0 200 200"><g id="logo-white"><path d="M100.78,112.01c2.94,0,4.89,1.64,6.26,3.27l77.69,84.72h15.26L117.61,110.1c-2.94-3.27-3.13-4.64-3.13-6.14,0-1.77,.2-3.14,2.74-6.41L200,0h-15.26L106.85,91.54c-1.37,2.05-3.52,3.82-6.26,3.82-2.94,0-5.09-1.77-6.65-3.82L15.07,0H0L83.17,97.54c2.94,3.27,3.52,4.64,3.52,6.41,0,1.64-.59,3.14-3.13,6.14L0,200H15.07L94.52,115.28c1.37-1.64,3.52-3.27,6.26-3.27Z"/></g></svg>