<?xml version="1.0" encoding="UTF-8"?><svg id="Layer_2" xmlns="http://www.w3.org/2000/svg" width="200" height="200" viewBox="0 0 200 200"><g id="logo-white"><path d="M100.54,82.95c4.34,0,6.33-2.73,7.41-4.23L163.11,0h36.89l-62.75,88.13c-2.35,3.27-2.89,5.59-2.89,7.91,0,2.59,.72,5.05,2.71,8.46l62.93,95.5h-36.89l-55.15-84.58c-1.09-1.91-3.44-5.05-7.59-5.05s-6.51,3.14-7.78,5.05l-55.7,84.58H0L62.75,104.5c2.35-3.41,3.26-5.87,3.26-8.46,0-2.46-.9-4.78-3.07-7.91L0,0H36.89l56.24,78.45c1.27,1.77,3.44,4.5,7.41,4.5Z"/></g></svg>