<svg id="about_fr" xmlns="http://www.w3.org/2000/svg" width="524.22998046875" height="120.33000183105469" viewBox="0 0 524.23 120.33">
    <defs>
        <style>
            .cls-1 {
                fill: #f9f3dc;
                stroke: #f9f3dc;
                stroke-miterlimit: 10;
                stroke-width: 2px;
            }
        </style>
    </defs>
    <g id="a_propos">
        <g>
            <path id="A" class="cls-1 svg-elem-1" d="M26.62,28.96h17.95l25.9,88.91h-11.95l-3.15-10.19c-.24-.91-1.58-4.43-5.88-4.43H21.76c-4.43,0-5.7,3.52-6.01,4.43l-2.97,10.19H1.32L26.62,28.96ZM30.62,1l9.95,21.23h-9.28L19.64,1h10.98Zm-4.79,92.61h19.47c5.4,0,4.91-4.61,4.61-5.94l-12.98-46.64c-.24-.91-.73-1.64-1.58-1.64-.91,0-1.34,.73-1.52,1.64l-12.55,46.64c-.36,1.39-.85,5.94,4.55,5.94Z"></path>
            <path id="P" class="cls-1 svg-elem-2" d="M118.08,28.96h27.66c20.5,0,33.78,11.16,33.78,31.36,0,18.62-13.28,30.51-33.78,30.51h-10.98c-3.15,0-5.4,2.31-5.4,5.46v21.59h-11.28V28.96Zm16.32,52.28h9.64c14.8,0,24.2-8.07,24.2-21.17s-9.4-21.53-24.2-21.53h-9.64c-3.09,0-5.03,1.76-5.03,4.43v33.84c0,2.67,1.94,4.43,5.03,4.43Z"></path>
            <path id="R" class="cls-1 svg-elem-3" d="M188.69,28.96h46.03c11.16,0,18.86,7.4,18.86,18.07s-7.7,18.13-18.86,18.13h-12.25c-2.12,0-3.03,.97-3.03,2.24,0,.67,.3,1.39,.85,2.18l31.72,48.28h-13.04l-32.39-49.79c-.67-.97-1.7-2.91-3.76-2.91-2.43,0-2.85,1.94-2.85,3.4v49.31h-11.28V28.96Zm16.86,26.63h27.05c6,0,9.7-3.34,9.7-8.55s-3.7-8.49-9.7-8.49h-27.05c-3.46,0-5.58,1.39-5.58,4.79v7.22c0,3.64,2.18,5.03,5.58,5.03Z"></path>
            <path id="o" class="cls-1 svg-elem-4" d="M260.95,48.1c0-12.06,8.95-20.21,22.32-20.21s22.13,8.14,22.13,20.21v17.16c0,12.06-8.89,20.21-22.13,20.21s-22.32-8.14-22.32-20.21v-17.16Zm22.32,28.29c7.15,0,11.87-4.79,11.87-11.81v-15.67c0-7.09-4.72-11.81-11.87-11.81s-12.06,4.66-12.06,11.81v15.67c0,7.15,4.85,11.81,12.06,11.81Zm0,20.62c4.1,0,7.58,3.36,7.58,7.46,0,4.35-3.48,7.65-7.58,7.65s-7.71-3.3-7.71-7.65c0-4.1,3.48-7.46,7.71-7.46Z"></path>
            <g id="point-virgule">
                <path class="cls-1 svg-elem-5" d="M426.11,76.85c.07,2.28-5.06,20.05-5.61,22.66h-6.71c1.06-5.08,5.32-13.9-.16-17.78-8.04-10.35,11.39-17.78,12.48-4.88Z"></path>
                <path class="cls-1 svg-elem-6" d="M426.05,54.53c0,3.91-3.17,7.15-7.02,7.15-4.1,0-7.27-3.24-7.27-7.15s3.17-7.21,7.27-7.21c3.85,0,7.02,3.16,7.02,7.21Z"></path>
            </g>
            <path id="P-2" class="cls-1 svg-elem-7" d="M314.74,28.96h27.66c20.5,0,33.78,11.16,33.78,31.36,0,18.62-13.28,30.51-33.78,30.51h-10.98c-3.15,0-5.4,2.31-5.4,5.46v21.59h-11.28V28.96Zm16.32,52.28h9.64c14.8,0,24.2-8.07,24.2-21.17s-9.4-21.53-24.2-21.53h-9.64c-3.09,0-5.03,1.76-5.03,4.43v33.84c0,2.67,1.94,4.43,5.03,4.43Z"></path>
            <path id="O" class="cls-1 svg-elem-8" d="M385.79,87.97v-29.29c0-18.62,13.28-31.17,33.12-31.17s32.99,12.55,32.99,31.17v29.29c0,18.8-13.22,31.36-32.99,31.36s-33.12-12.55-33.12-31.36Zm33.12,21.35c12.98,0,21.77-8.86,21.77-22.08v-27.72c0-13.16-8.79-22.02-21.77-22.02s-21.77,8.85-21.77,22.02v27.72c0,13.22,8.73,22.08,21.77,22.08Z"></path>
            <path id="S" class="cls-1 svg-elem-9" d="M461.18,89.79v-4h11.28v3.76c0,12.01,7.82,19.59,20.2,19.59,11.71,0,19.17-6.37,19.23-16.56,.06-9.34-6.25-15.1-16.68-15.28l-7.16-.18c-16.13-.36-25.9-9.1-25.9-24.02s11.77-25.29,29.42-25.29c18.74,0,30.27,10.19,30.27,26.69v3.88h-11.28v-3.64c0-10.37-7.46-16.92-19.1-16.92-10.8,0-18.01,5.94-18.01,14.98,0,8.37,6.07,13.46,16.25,13.65l7.16,.18c16.38,.36,26.38,9.77,26.38,25.29,0,16.8-11.89,27.11-30.69,27.11s-31.36-11.16-31.36-29.23Z"></path>
        </g>
    </g>
</svg>