                        <svg id="contact" xmlns="http://www.w3.org/2000/svg" width="577.1699829101562" height="72" viewBox="0 0 577.17 72">
                            <defs>
                                <style>
                                    .cls-1 {
                                        fill: #265e5d;
                                        stroke: #265e5d;
                                        stroke-miterlimit: 10;
                                        stroke-width: 2px;
                                    }
                                </style>
                            </defs>
                            <g id="Connect">
                                <g>
                                    <path class="cls-1 svg-elem-1" d="M1,1H9.6V57.41c0,2.54,1.53,4.07,4.07,4.07h29.5v7.31H1V1Zm21.9,0h42.68v7.31h-30.33c-2.27,0-3.75,1.29-3.75,3.33v6.2c0,2.08,1.48,3.47,3.75,3.47h30.33v7.31h-30.33c-2.13,0-3.75,1.57-3.75,3.7v7.03c0,2.08,1.62,3.65,3.75,3.65h30.33v7.31H22.9V1Z"></path>
                                    <path class="cls-1 svg-elem-2" d="M81.38,7.52h-7.77V1h29.59V7.52h-7.72c-1.85,0-3.24,1.34-3.24,3.19l.13,39.58h-7.63l-.13-39.58c0-1.8-1.39-3.19-3.24-3.19Z"></path>
                                    <path class="cls-1 svg-elem-3" d="M111.87,10.39c-.97-1.11-1.48-2.36-1.48-3.84,0-3.05,2.59-5.55,5.69-5.55s5.69,2.5,5.69,5.55c0,.74-.14,1.53-.51,2.91l-3.93,15.03h-5.32l2.03-7.91c.69-2.73-.51-4.25-2.17-6.2Z"></path>
                                    <path class="cls-1 svg-elem-4" d="M126.94,48.25v-3.05h8.6v2.87c0,9.15,5.96,14.93,15.4,14.93,8.92,0,14.61-4.85,14.66-12.62,.05-7.12-4.76-11.51-12.71-11.65l-5.46-.14c-12.3-.28-19.74-6.94-19.74-18.31S136.65,1,150.11,1c14.29,0,23.07,7.77,23.07,20.34v2.96h-8.6v-2.77c0-7.91-5.69-12.9-14.56-12.9-8.23,0-13.73,4.53-13.73,11.42,0,6.38,4.62,10.26,12.39,10.4l5.46,.14c12.48,.28,20.11,7.44,20.11,19.28,0,12.81-9.06,20.67-23.39,20.67s-23.9-8.51-23.9-22.29Z"></path>
                                    <path class="cls-1 svg-elem-5" d="M201.71,47.1V24.76c0-14.19,10.13-23.76,25.24-23.76s25.15,9.57,25.15,24.09v5.27h-8.55v-5.27c0-9.71-6.7-16.46-16.6-16.46s-16.6,6.75-16.6,16.78v21.13c0,10.08,6.66,16.83,16.6,16.83s16.6-6.75,16.6-16.55v-5.18h8.55v5.18c0,14.61-10.08,24.18-25.15,24.18s-25.24-9.57-25.24-23.9Zm56.5-30.84c0-8.97,6.66-15.03,16.6-15.03s16.46,6.06,16.46,15.03v12.76c0,8.97-6.61,15.03-16.46,15.03s-16.6-6.06-16.6-15.03v-12.76Zm16.6,21.04c5.32,0,8.83-3.56,8.83-8.78v-11.65c0-5.27-3.51-8.78-8.83-8.78s-8.97,3.47-8.97,8.78v11.65c0,5.32,3.61,8.78,8.97,8.78Zm0,15.33c3.05,0,5.64,2.5,5.64,5.55,0,3.24-2.59,5.69-5.64,5.69s-5.73-2.45-5.73-5.69c0-3.05,2.59-5.55,5.73-5.55Z"></path>
                                    <path class="cls-1 svg-elem-6" d="M299.22,1h8.51l25.11,14.56c2.82,1.66,4.85,.32,4.85-2.91V1h8.65v.05l25.01,14.52c2.82,1.66,4.85,.32,4.85-2.91V1h8.65V68.78h-8.65V30.87c0-2.22-.88-3.7-2.82-4.85l-22.19-12.9c-2.82-1.62-4.85-.32-4.85,2.91v52.75h-8.65V30.87c0-2.22-.88-3.7-2.82-4.85l-22.19-12.9c-2.82-1.62-4.85-.32-4.85,2.91v52.75h-8.6V1Z"></path>
                                    <path class="cls-1 svg-elem-7" d="M395.72,1h42.68v7.31h-30.33c-2.27,0-3.75,1.29-3.75,3.33v6.2c0,2.08,1.48,3.47,3.75,3.47h30.33v7.31h-30.01c-2.45,0-4.07,1.62-4.07,4.11v24.69c0,2.45,1.62,4.07,4.07,4.07h30.01v7.31h-42.68V1Z"></path>
                                    <path class="cls-1 svg-elem-8" d="M447.56,47.1V24.76c0-14.19,10.13-23.76,25.24-23.76s25.15,9.57,25.15,24.09v5.27h-8.55v-5.27c0-9.71-6.7-16.46-16.6-16.46s-16.6,6.75-16.6,16.78v21.13c0,10.08,6.66,16.83,16.6,16.83s16.6-6.75,16.6-16.55v-5.18h8.55v5.18c0,14.61-10.08,24.18-25.15,24.18s-25.24-9.57-25.24-23.9Z"></path>
                                    <path class="cls-1 svg-elem-9" d="M517.12,8.31h-14.56V1h46.7v7.31h-14.93c-2.36,0-4.16,1.71-4.16,4.16v56.31h-8.55V12.74c0-2.59-1.85-4.44-4.48-4.44Z"></path>
                                    <path class="cls-1 svg-elem-10" d="M564.8,64.06c0-3.05,2.59-5.55,5.73-5.55s5.64,2.5,5.64,5.55c0,3.24-2.64,5.69-5.64,5.69s-5.73-2.45-5.73-5.69Zm10.17-63.06l-.42,50.26h-8.18l-.42-50.26h9.02Z"></path>
                                    <g>
                                        <path class="cls-1 svg-elem-11" d="M478.12,38.56c.05,1.7-3.77,14.91-4.17,16.85h-4.99c.79-3.78,3.95-10.33-.12-13.22-5.98-7.7,8.47-13.22,9.28-3.63Z"></path>
                                        <path class="cls-1 svg-elem-12" d="M478.07,21.95c0,2.91-2.36,5.32-5.22,5.32-3.05,0-5.41-2.41-5.41-5.32s2.36-5.36,5.41-5.36c2.86,0,5.22,2.35,5.22,5.36Z"></path>
                                    </g>
                                </g>
                            </g>
                        </svg>